<svg width="776" height="344" viewBox="0 0 776 344" fill="none" xmlns="http://www.w3.org/2000/svg">
<defs>
<filter id="glow1" x="-30%" y="-30%" width="160%" height="160%" color-interpolation-filters="sRGB">
<feGaussianBlur stdDeviation="5 5" result="glow"/>
<feMerge>
<feMergeNode in="glow"/>
<feMergeNode in="glow"/>
<feMergeNode in="glow"/>
</feMerge>
</filter>
<filter id="glow2" x="-30%" y="-30%" width="160%" height="160%" >
<feGaussianBlur stdDeviation="10 10" result="glow" color-interpolation-filters="sRGB"/>
<feMerge>
<feMergeNode in="glow"/>
<feMergeNode in="glow"/>
</feMerge>
</filter>
<filter id="glow3" x="-30%" y="-30%" width="160%" height="160%" >
<feGaussianBlur stdDeviation="0" result="glow" color-interpolation-filters="sRGB"/>
</filter>
<mask id="textMask">
<text style="fill:white;" x="175" y="55"> Complex Glow </text>
</mask>
</defs>
  <style type="text/css">
    @keyframes animate {
        40% {
            opacity: 1;
        }
        43% {
            opacity: 0.8;
        }
        44% {
            opacity: 1;
        }
        45% {
            opacity: 0.7;
        }
        46% {
            opacity: 1;
        }
    }

    .logo {
        filter: drop-shadow(0px 0px 5px #E8E8E8);
        animation: animate 10s ease-in-out infinite alternate;
    }
      .scsetop {
        <!-- text-shadow: 0 0 5px #ff7bac, 0 0 10px #ff7bac, 0 0 20px #ff7bac, 0 0 40px #ff7bac, 0 0 80px #ff7bac, 0 0 100px #ff7bac, 0 0 120px #ff7bac;  -->
        fill: #ff7bac;
        font-size: 1.5em;
        animation: blink 3s infinite linear alternate;
    }
    @keyframes blink {
        60%, 70%, 79% {
            opacity: 1;
        }
        65%, 67%, 79% {
            opacity: 0.2;
        }
        66%, 69%, 77% {
            opacity: 0.8;
        }
    }
    @keyframes flicker {
        0%, 2%, 35%, 37%, 39%, 41%, 100% {
            opacity: 1;
        }
        1%, 3%, 34%, 36%, 38%, 40% {
            opacity: 0;
        }
    }

    @keyframes border-flicker {
        0%, 2%, 4%, 6%, 33%, 37%, 39%, 41%, 100% {
            border: 2px solid black;
            box-shadow: #a48ff2 0px 0px 10px, inset #a48ff2 2px 2px 10px;
        }
        1%, 3%, 5%, 34%, 36%, 38%, 40% {
            border-color: transparent;
            box-shadow: unset;
        }
    }
    <!-- prime numbers baby -->
    .b {
    animation: flicker 6s ease-in-out 7s infinite alternate both;
    }

    <!-- .o {
    animation: flicker 6s ease-in-out 2.75s infinite alternate both;
    }
    .r1 {
    animation: flicker 6s ease-in-out 7.41s infinite alternate both;
    }-->
    .d1 {
    animation: flicker 6s ease-in-out 13s infinite alternate both;
    }
    <!--
    .e {
    animation: flicker 6s ease-in-out 4.47s infinite alternate both;
    } -->
    .r2 {
    animation: flicker 6s ease-in-out 19s infinite alternate both;
    }
    .l {
    animation: flicker 6s ease-in-out 29s infinite alternate both;
    }
    .a {
    animation: flicker 6s ease-in-out 23s infinite alternate both;
    }
    .n {
    animation: flicker 6s ease-in-out 17s infinite alternate both;
    }
    .d2 {
    animation: flicker 6s ease-in-out 11s infinite alternate both;
    }

  </style>

  
<path class="scsetop" style="filter: url(#glow3);" d="M21.9482 32.2598C21.9482 33.7246 21.696 35.0348 21.1914 36.1904C20.7031 37.3298 20.0277 38.2982 19.165 39.0957C18.3187 39.8932 17.3014 40.5036 16.1133 40.9268C14.9414 41.3499 13.6882 41.5615 12.3535 41.5615C10.8561 41.5615 9.50521 41.293 8.30078 40.7559C7.09635 40.2188 6.06283 39.3317 5.2002 38.0947V41H0.65918V30.5996H5.2002C5.2002 31.6413 5.37923 32.5609 5.7373 33.3584C6.11165 34.1559 6.59993 34.8314 7.20215 35.3848C7.80436 35.9219 8.50423 36.3369 9.30176 36.6299C10.0993 36.9066 10.9456 37.0449 11.8408 37.0449C13.3545 37.0449 14.5752 36.695 15.5029 35.9951C16.4307 35.2952 16.8945 34.1803 16.8945 32.6504C16.8945 31.8529 16.748 31.1693 16.4551 30.5996C16.1784 30.0299 15.7715 29.5254 15.2344 29.0859C14.7135 28.6302 14.0706 28.2396 13.3057 27.9141C12.5407 27.5723 11.6699 27.2142 10.6934 26.8398C9.53776 26.4492 8.38216 26.0098 7.22656 25.5215C6.07096 25.0332 5.03743 24.431 4.12598 23.7148C3.21452 22.9987 2.47396 22.1198 1.9043 21.0781C1.33464 20.0202 1.0498 18.6937 1.0498 17.0986C1.0498 15.6989 1.30208 14.4782 1.80664 13.4365C2.32747 12.3786 3.01107 11.4915 3.85742 10.7754C4.72005 10.0592 5.71289 9.52214 6.83594 9.16406C7.97526 8.78971 9.17969 8.60254 10.4492 8.60254C11.9141 8.60254 13.1673 8.91178 14.209 9.53027C15.2669 10.1488 16.0807 10.9707 16.6504 11.9961V9.13965H21.1914V19.0518H16.6504C16.6504 17.18 16.154 15.7233 15.1611 14.6816C14.1846 13.6237 12.8662 13.0947 11.2061 13.0947C9.74121 13.0947 8.52051 13.4365 7.54395 14.1201C6.58366 14.8037 6.10352 15.764 6.10352 17.001C6.10352 17.6357 6.22559 18.181 6.46973 18.6367C6.73014 19.0762 7.09635 19.4831 7.56836 19.8574C8.05664 20.2155 8.66699 20.5573 9.39941 20.8828C10.1318 21.1921 10.9782 21.5339 11.9385 21.9082C13.1429 22.3314 14.3392 22.8115 15.5273 23.3486C16.7155 23.8857 17.7816 24.5449 18.7256 25.3262C19.6696 26.1074 20.4427 27.0596 21.0449 28.1826C21.6471 29.2894 21.9482 30.6484 21.9482 32.2598ZM50.5371 31.2588C50.1465 32.8213 49.6257 34.2373 48.9746 35.5068C48.3236 36.7764 47.526 37.8587 46.582 38.7539C45.6543 39.6491 44.5638 40.3408 43.3105 40.8291C42.0736 41.3174 40.6494 41.5615 39.0381 41.5615C36.8083 41.5615 34.9202 41.1058 33.374 40.1943C31.8278 39.2666 30.5583 38.0378 29.5654 36.5078C28.5889 34.9616 27.8809 33.2038 27.4414 31.2344C27.0182 29.2487 26.8066 27.1898 26.8066 25.0576C26.8066 22.9255 27.0182 20.8665 27.4414 18.8809C27.8809 16.8952 28.5807 15.1455 29.541 13.6318C30.5176 12.1182 31.7546 10.9056 33.252 9.99414C34.7493 9.06641 36.5804 8.60254 38.7451 8.60254C39.445 8.60254 40.153 8.69206 40.8691 8.87109C41.5853 9.05013 42.2526 9.32682 42.8711 9.70117C43.4896 10.0592 44.0267 10.5068 44.4824 11.0439C44.9544 11.5811 45.2881 12.1995 45.4834 12.8994V9.13965H50.0488V21.2002H45.4834C45.4834 20.2074 45.3613 19.2308 45.1172 18.2705C44.873 17.2939 44.4824 16.4313 43.9453 15.6826C43.4082 14.9339 42.7327 14.3236 41.9189 13.8516C41.1051 13.3796 40.1449 13.1436 39.0381 13.1436C37.6058 13.1436 36.4339 13.4935 35.5225 14.1934C34.611 14.8932 33.8786 15.8128 33.3252 16.9521C32.7718 18.0915 32.3812 19.3691 32.1533 20.7852C31.9417 22.2012 31.8359 23.6253 31.8359 25.0576C31.8359 26.4899 31.9417 27.9222 32.1533 29.3545C32.3812 30.7868 32.7637 32.0726 33.3008 33.2119C33.8379 34.335 34.5703 35.2464 35.498 35.9463C36.4258 36.6462 37.6058 36.9961 39.0381 36.9961C41.1051 36.9961 42.6921 36.3369 43.7988 35.0186C44.9219 33.7002 45.8171 31.9261 46.4844 29.6963L50.5371 31.2588ZM76.5381 32.2598C76.5381 33.7246 76.2858 35.0348 75.7812 36.1904C75.293 37.3298 74.6175 38.2982 73.7549 39.0957C72.9085 39.8932 71.8913 40.5036 70.7031 40.9268C69.5312 41.3499 68.278 41.5615 66.9434 41.5615C65.446 41.5615 64.0951 41.293 62.8906 40.7559C61.6862 40.2188 60.6527 39.3317 59.79 38.0947V41H55.249V30.5996H59.79C59.79 31.6413 59.9691 32.5609 60.3271 33.3584C60.7015 34.1559 61.1898 34.8314 61.792 35.3848C62.3942 35.9219 63.0941 36.3369 63.8916 36.6299C64.6891 36.9066 65.5355 37.0449 66.4307 37.0449C67.9443 37.0449 69.165 36.695 70.0928 35.9951C71.0205 35.2952 71.4844 34.1803 71.4844 32.6504C71.4844 31.8529 71.3379 31.1693 71.0449 30.5996C70.7682 30.0299 70.3613 29.5254 69.8242 29.0859C69.3034 28.6302 68.6605 28.2396 67.8955 27.9141C67.1305 27.5723 66.2598 27.2142 65.2832 26.8398C64.1276 26.4492 62.972 26.0098 61.8164 25.5215C60.6608 25.0332 59.6273 24.431 58.7158 23.7148C57.8044 22.9987 57.0638 22.1198 56.4941 21.0781C55.9245 20.0202 55.6396 18.6937 55.6396 17.0986C55.6396 15.6989 55.8919 14.4782 56.3965 13.4365C56.9173 12.3786 57.6009 11.4915 58.4473 10.7754C59.3099 10.0592 60.3027 9.52214 61.4258 9.16406C62.5651 8.78971 63.7695 8.60254 65.0391 8.60254C66.5039 8.60254 67.7572 8.91178 68.7988 9.53027C69.8568 10.1488 70.6706 10.9707 71.2402 11.9961V9.13965H75.7812V19.0518H71.2402C71.2402 17.18 70.7438 15.7233 69.751 14.6816C68.7744 13.6237 67.4561 13.0947 65.7959 13.0947C64.3311 13.0947 63.1104 13.4365 62.1338 14.1201C61.1735 14.8037 60.6934 15.764 60.6934 17.001C60.6934 17.6357 60.8154 18.181 61.0596 18.6367C61.32 19.0762 61.6862 19.4831 62.1582 19.8574C62.6465 20.2155 63.2568 20.5573 63.9893 20.8828C64.7217 21.1921 65.568 21.5339 66.5283 21.9082C67.7327 22.3314 68.929 22.8115 70.1172 23.3486C71.3053 23.8857 72.3714 24.5449 73.3154 25.3262C74.2594 26.1074 75.0326 27.0596 75.6348 28.1826C76.237 29.2894 76.5381 30.6484 76.5381 32.2598ZM103.442 41H83.0811V9.13965H103.442V13.7051H88.1348V22.4941H100.073V27.0596H88.1348V36.459H103.442V41ZM159.18 20.7607H154.663V13.7051H150.366V36.459H155.42V41H140.283V36.459H145.312V13.7051H140.967V20.7607H136.475V9.13965H159.18V20.7607ZM162.964 25.0576C162.964 22.9255 163.192 20.8665 163.647 18.8809C164.103 16.8952 164.811 15.1455 165.771 13.6318C166.732 12.1182 167.985 10.9056 169.531 9.99414C171.094 9.06641 172.974 8.60254 175.171 8.60254C177.368 8.60254 179.24 9.06641 180.786 9.99414C182.349 10.9056 183.618 12.1182 184.595 13.6318C185.571 15.1455 186.279 16.8952 186.719 18.8809C187.158 20.8665 187.378 22.9255 187.378 25.0576C187.378 27.1898 187.158 29.2487 186.719 31.2344C186.279 33.2038 185.579 34.9616 184.619 36.5078C183.659 38.0378 182.397 39.2666 180.835 40.1943C179.289 41.1058 177.401 41.5615 175.171 41.5615C172.941 41.5615 171.045 41.1058 169.482 40.1943C167.936 39.2666 166.675 38.0378 165.698 36.5078C164.738 34.9616 164.046 33.2038 163.623 31.2344C163.184 29.2487 162.964 27.1898 162.964 25.0576ZM168.018 25.0576C168.018 26.4899 168.123 27.9222 168.335 29.3545C168.563 30.7868 168.937 32.0726 169.458 33.2119C169.995 34.335 170.719 35.2464 171.631 35.9463C172.559 36.6462 173.739 36.9961 175.171 36.9961C176.603 36.9961 177.775 36.6462 178.687 35.9463C179.614 35.2464 180.339 34.335 180.859 33.2119C181.396 32.0726 181.771 30.7868 181.982 29.3545C182.21 27.9222 182.324 26.4899 182.324 25.0576C182.324 23.6253 182.21 22.2012 181.982 20.7852C181.771 19.3691 181.396 18.0915 180.859 16.9521C180.339 15.8128 179.606 14.8932 178.662 14.1934C177.734 13.4935 176.571 13.1436 175.171 13.1436C172.843 13.1436 171.069 14.1934 169.849 16.293C168.628 18.3926 168.018 21.3141 168.018 25.0576ZM213.818 18.6611C213.818 21.8512 212.85 24.2275 210.913 25.79C208.976 27.3363 206.274 28.1094 202.808 28.1094H197.314V41H192.261V9.13965H202.759C206.258 9.13965 208.976 9.94531 210.913 11.5566C212.85 13.1517 213.818 15.5199 213.818 18.6611ZM208.765 18.5879C208.765 16.9603 208.228 15.7396 207.153 14.9258C206.095 14.112 204.647 13.7051 202.808 13.7051H197.314V23.5439H202.808C204.647 23.5439 206.095 23.137 207.153 22.3232C208.228 21.5094 208.765 20.2643 208.765 18.5879ZM267.749 17.8555C267.749 19.3529 267.35 20.8828 266.553 22.4453C265.755 24.0078 264.657 25.4889 263.257 26.8887L253.296 36.459H262.646V32.0889H267.212V41H246.704V36.2393L259.546 23.959C260.653 22.8197 261.45 21.7536 261.938 20.7607C262.443 19.7516 262.695 18.7832 262.695 17.8555C262.695 17.0254 262.533 16.3092 262.207 15.707C261.898 15.1048 261.491 14.6165 260.986 14.2422C260.498 13.8516 259.937 13.5749 259.302 13.4121C258.667 13.2331 258.032 13.1436 257.397 13.1436C255.396 13.1436 253.817 13.7295 252.661 14.9014C251.522 16.0732 250.952 17.8066 250.952 20.1016H246.216C246.216 16.5046 247.168 13.6888 249.072 11.6543C250.993 9.61979 253.768 8.60254 257.397 8.60254C258.765 8.60254 260.075 8.80599 261.328 9.21289C262.581 9.60352 263.68 10.1813 264.624 10.9463C265.584 11.7113 266.341 12.6797 266.895 13.8516C267.464 15.0234 267.749 16.3581 267.749 17.8555ZM272.144 25.0576C272.144 22.9255 272.371 20.8665 272.827 18.8809C273.283 16.8952 273.991 15.1455 274.951 13.6318C275.911 12.1182 277.165 10.9056 278.711 9.99414C280.273 9.06641 282.153 8.60254 284.351 8.60254C286.548 8.60254 288.42 9.06641 289.966 9.99414C291.528 10.9056 292.798 12.1182 293.774 13.6318C294.751 15.1455 295.459 16.8952 295.898 18.8809C296.338 20.8665 296.558 22.9255 296.558 25.0576C296.558 27.1898 296.338 29.2487 295.898 31.2344C295.459 33.2038 294.759 34.9616 293.799 36.5078C292.839 38.0378 291.577 39.2666 290.015 40.1943C288.468 41.1058 286.58 41.5615 284.351 41.5615C282.121 41.5615 280.225 41.1058 278.662 40.1943C277.116 39.2666 275.854 38.0378 274.878 36.5078C273.918 34.9616 273.226 33.2038 272.803 31.2344C272.363 29.2487 272.144 27.1898 272.144 25.0576ZM277.197 25.0576C277.197 26.555 277.295 28.0036 277.49 29.4033L289.99 16.8545C289.437 15.7477 288.704 14.8525 287.793 14.1689C286.898 13.4854 285.75 13.1436 284.351 13.1436C282.023 13.1436 280.249 14.1934 279.028 16.293C277.808 18.3926 277.197 21.3141 277.197 25.0576ZM284.351 36.9961C285.783 36.9961 286.955 36.6462 287.866 35.9463C288.794 35.2464 289.518 34.335 290.039 33.2119C290.576 32.0726 290.951 30.7868 291.162 29.3545C291.39 27.9222 291.504 26.4899 291.504 25.0576C291.504 23.6904 291.406 22.3558 291.211 21.0537L278.809 33.5049C279.362 34.5628 280.07 35.4092 280.933 36.0439C281.812 36.6787 282.951 36.9961 284.351 36.9961ZM322.339 17.8555C322.339 19.3529 321.94 20.8828 321.143 22.4453C320.345 24.0078 319.246 25.4889 317.847 26.8887L307.886 36.459H317.236V32.0889H321.802V41H301.294V36.2393L314.136 23.959C315.243 22.8197 316.04 21.7536 316.528 20.7607C317.033 19.7516 317.285 18.7832 317.285 17.8555C317.285 17.0254 317.122 16.3092 316.797 15.707C316.488 15.1048 316.081 14.6165 315.576 14.2422C315.088 13.8516 314.526 13.5749 313.892 13.4121C313.257 13.2331 312.622 13.1436 311.987 13.1436C309.985 13.1436 308.407 13.7295 307.251 14.9014C306.112 16.0732 305.542 17.8066 305.542 20.1016H300.806C300.806 16.5046 301.758 13.6888 303.662 11.6543C305.583 9.61979 308.358 8.60254 311.987 8.60254C313.354 8.60254 314.665 8.80599 315.918 9.21289C317.171 9.60352 318.27 10.1813 319.214 10.9463C320.174 11.7113 320.931 12.6797 321.484 13.8516C322.054 15.0234 322.339 16.3581 322.339 17.8555ZM349.634 17.8555C349.634 19.3529 349.235 20.8828 348.438 22.4453C347.64 24.0078 346.541 25.4889 345.142 26.8887L335.181 36.459H344.531V32.0889H349.097V41H328.589V36.2393L341.431 23.959C342.537 22.8197 343.335 21.7536 343.823 20.7607C344.328 19.7516 344.58 18.7832 344.58 17.8555C344.58 17.0254 344.417 16.3092 344.092 15.707C343.783 15.1048 343.376 14.6165 342.871 14.2422C342.383 13.8516 341.821 13.5749 341.187 13.4121C340.552 13.2331 339.917 13.1436 339.282 13.1436C337.28 13.1436 335.701 13.7295 334.546 14.9014C333.407 16.0732 332.837 17.8066 332.837 20.1016H328.101C328.101 16.5046 329.053 13.6888 330.957 11.6543C332.878 9.61979 335.653 8.60254 339.282 8.60254C340.649 8.60254 341.96 8.80599 343.213 9.21289C344.466 9.60352 345.565 10.1813 346.509 10.9463C347.469 11.7113 348.226 12.6797 348.779 13.8516C349.349 15.0234 349.634 16.3581 349.634 17.8555Z" fill="#E8E8E8"/>

<path class="scsetop" style="filter: url(#glow2);" d="M21.9482 32.2598C21.9482 33.7246 21.696 35.0348 21.1914 36.1904C20.7031 37.3298 20.0277 38.2982 19.165 39.0957C18.3187 39.8932 17.3014 40.5036 16.1133 40.9268C14.9414 41.3499 13.6882 41.5615 12.3535 41.5615C10.8561 41.5615 9.50521 41.293 8.30078 40.7559C7.09635 40.2188 6.06283 39.3317 5.2002 38.0947V41H0.65918V30.5996H5.2002C5.2002 31.6413 5.37923 32.5609 5.7373 33.3584C6.11165 34.1559 6.59993 34.8314 7.20215 35.3848C7.80436 35.9219 8.50423 36.3369 9.30176 36.6299C10.0993 36.9066 10.9456 37.0449 11.8408 37.0449C13.3545 37.0449 14.5752 36.695 15.5029 35.9951C16.4307 35.2952 16.8945 34.1803 16.8945 32.6504C16.8945 31.8529 16.748 31.1693 16.4551 30.5996C16.1784 30.0299 15.7715 29.5254 15.2344 29.0859C14.7135 28.6302 14.0706 28.2396 13.3057 27.9141C12.5407 27.5723 11.6699 27.2142 10.6934 26.8398C9.53776 26.4492 8.38216 26.0098 7.22656 25.5215C6.07096 25.0332 5.03743 24.431 4.12598 23.7148C3.21452 22.9987 2.47396 22.1198 1.9043 21.0781C1.33464 20.0202 1.0498 18.6937 1.0498 17.0986C1.0498 15.6989 1.30208 14.4782 1.80664 13.4365C2.32747 12.3786 3.01107 11.4915 3.85742 10.7754C4.72005 10.0592 5.71289 9.52214 6.83594 9.16406C7.97526 8.78971 9.17969 8.60254 10.4492 8.60254C11.9141 8.60254 13.1673 8.91178 14.209 9.53027C15.2669 10.1488 16.0807 10.9707 16.6504 11.9961V9.13965H21.1914V19.0518H16.6504C16.6504 17.18 16.154 15.7233 15.1611 14.6816C14.1846 13.6237 12.8662 13.0947 11.2061 13.0947C9.74121 13.0947 8.52051 13.4365 7.54395 14.1201C6.58366 14.8037 6.10352 15.764 6.10352 17.001C6.10352 17.6357 6.22559 18.181 6.46973 18.6367C6.73014 19.0762 7.09635 19.4831 7.56836 19.8574C8.05664 20.2155 8.66699 20.5573 9.39941 20.8828C10.1318 21.1921 10.9782 21.5339 11.9385 21.9082C13.1429 22.3314 14.3392 22.8115 15.5273 23.3486C16.7155 23.8857 17.7816 24.5449 18.7256 25.3262C19.6696 26.1074 20.4427 27.0596 21.0449 28.1826C21.6471 29.2894 21.9482 30.6484 21.9482 32.2598ZM50.5371 31.2588C50.1465 32.8213 49.6257 34.2373 48.9746 35.5068C48.3236 36.7764 47.526 37.8587 46.582 38.7539C45.6543 39.6491 44.5638 40.3408 43.3105 40.8291C42.0736 41.3174 40.6494 41.5615 39.0381 41.5615C36.8083 41.5615 34.9202 41.1058 33.374 40.1943C31.8278 39.2666 30.5583 38.0378 29.5654 36.5078C28.5889 34.9616 27.8809 33.2038 27.4414 31.2344C27.0182 29.2487 26.8066 27.1898 26.8066 25.0576C26.8066 22.9255 27.0182 20.8665 27.4414 18.8809C27.8809 16.8952 28.5807 15.1455 29.541 13.6318C30.5176 12.1182 31.7546 10.9056 33.252 9.99414C34.7493 9.06641 36.5804 8.60254 38.7451 8.60254C39.445 8.60254 40.153 8.69206 40.8691 8.87109C41.5853 9.05013 42.2526 9.32682 42.8711 9.70117C43.4896 10.0592 44.0267 10.5068 44.4824 11.0439C44.9544 11.5811 45.2881 12.1995 45.4834 12.8994V9.13965H50.0488V21.2002H45.4834C45.4834 20.2074 45.3613 19.2308 45.1172 18.2705C44.873 17.2939 44.4824 16.4313 43.9453 15.6826C43.4082 14.9339 42.7327 14.3236 41.9189 13.8516C41.1051 13.3796 40.1449 13.1436 39.0381 13.1436C37.6058 13.1436 36.4339 13.4935 35.5225 14.1934C34.611 14.8932 33.8786 15.8128 33.3252 16.9521C32.7718 18.0915 32.3812 19.3691 32.1533 20.7852C31.9417 22.2012 31.8359 23.6253 31.8359 25.0576C31.8359 26.4899 31.9417 27.9222 32.1533 29.3545C32.3812 30.7868 32.7637 32.0726 33.3008 33.2119C33.8379 34.335 34.5703 35.2464 35.498 35.9463C36.4258 36.6462 37.6058 36.9961 39.0381 36.9961C41.1051 36.9961 42.6921 36.3369 43.7988 35.0186C44.9219 33.7002 45.8171 31.9261 46.4844 29.6963L50.5371 31.2588ZM76.5381 32.2598C76.5381 33.7246 76.2858 35.0348 75.7812 36.1904C75.293 37.3298 74.6175 38.2982 73.7549 39.0957C72.9085 39.8932 71.8913 40.5036 70.7031 40.9268C69.5312 41.3499 68.278 41.5615 66.9434 41.5615C65.446 41.5615 64.0951 41.293 62.8906 40.7559C61.6862 40.2188 60.6527 39.3317 59.79 38.0947V41H55.249V30.5996H59.79C59.79 31.6413 59.9691 32.5609 60.3271 33.3584C60.7015 34.1559 61.1898 34.8314 61.792 35.3848C62.3942 35.9219 63.0941 36.3369 63.8916 36.6299C64.6891 36.9066 65.5355 37.0449 66.4307 37.0449C67.9443 37.0449 69.165 36.695 70.0928 35.9951C71.0205 35.2952 71.4844 34.1803 71.4844 32.6504C71.4844 31.8529 71.3379 31.1693 71.0449 30.5996C70.7682 30.0299 70.3613 29.5254 69.8242 29.0859C69.3034 28.6302 68.6605 28.2396 67.8955 27.9141C67.1305 27.5723 66.2598 27.2142 65.2832 26.8398C64.1276 26.4492 62.972 26.0098 61.8164 25.5215C60.6608 25.0332 59.6273 24.431 58.7158 23.7148C57.8044 22.9987 57.0638 22.1198 56.4941 21.0781C55.9245 20.0202 55.6396 18.6937 55.6396 17.0986C55.6396 15.6989 55.8919 14.4782 56.3965 13.4365C56.9173 12.3786 57.6009 11.4915 58.4473 10.7754C59.3099 10.0592 60.3027 9.52214 61.4258 9.16406C62.5651 8.78971 63.7695 8.60254 65.0391 8.60254C66.5039 8.60254 67.7572 8.91178 68.7988 9.53027C69.8568 10.1488 70.6706 10.9707 71.2402 11.9961V9.13965H75.7812V19.0518H71.2402C71.2402 17.18 70.7438 15.7233 69.751 14.6816C68.7744 13.6237 67.4561 13.0947 65.7959 13.0947C64.3311 13.0947 63.1104 13.4365 62.1338 14.1201C61.1735 14.8037 60.6934 15.764 60.6934 17.001C60.6934 17.6357 60.8154 18.181 61.0596 18.6367C61.32 19.0762 61.6862 19.4831 62.1582 19.8574C62.6465 20.2155 63.2568 20.5573 63.9893 20.8828C64.7217 21.1921 65.568 21.5339 66.5283 21.9082C67.7327 22.3314 68.929 22.8115 70.1172 23.3486C71.3053 23.8857 72.3714 24.5449 73.3154 25.3262C74.2594 26.1074 75.0326 27.0596 75.6348 28.1826C76.237 29.2894 76.5381 30.6484 76.5381 32.2598ZM103.442 41H83.0811V9.13965H103.442V13.7051H88.1348V22.4941H100.073V27.0596H88.1348V36.459H103.442V41ZM159.18 20.7607H154.663V13.7051H150.366V36.459H155.42V41H140.283V36.459H145.312V13.7051H140.967V20.7607H136.475V9.13965H159.18V20.7607ZM162.964 25.0576C162.964 22.9255 163.192 20.8665 163.647 18.8809C164.103 16.8952 164.811 15.1455 165.771 13.6318C166.732 12.1182 167.985 10.9056 169.531 9.99414C171.094 9.06641 172.974 8.60254 175.171 8.60254C177.368 8.60254 179.24 9.06641 180.786 9.99414C182.349 10.9056 183.618 12.1182 184.595 13.6318C185.571 15.1455 186.279 16.8952 186.719 18.8809C187.158 20.8665 187.378 22.9255 187.378 25.0576C187.378 27.1898 187.158 29.2487 186.719 31.2344C186.279 33.2038 185.579 34.9616 184.619 36.5078C183.659 38.0378 182.397 39.2666 180.835 40.1943C179.289 41.1058 177.401 41.5615 175.171 41.5615C172.941 41.5615 171.045 41.1058 169.482 40.1943C167.936 39.2666 166.675 38.0378 165.698 36.5078C164.738 34.9616 164.046 33.2038 163.623 31.2344C163.184 29.2487 162.964 27.1898 162.964 25.0576ZM168.018 25.0576C168.018 26.4899 168.123 27.9222 168.335 29.3545C168.563 30.7868 168.937 32.0726 169.458 33.2119C169.995 34.335 170.719 35.2464 171.631 35.9463C172.559 36.6462 173.739 36.9961 175.171 36.9961C176.603 36.9961 177.775 36.6462 178.687 35.9463C179.614 35.2464 180.339 34.335 180.859 33.2119C181.396 32.0726 181.771 30.7868 181.982 29.3545C182.21 27.9222 182.324 26.4899 182.324 25.0576C182.324 23.6253 182.21 22.2012 181.982 20.7852C181.771 19.3691 181.396 18.0915 180.859 16.9521C180.339 15.8128 179.606 14.8932 178.662 14.1934C177.734 13.4935 176.571 13.1436 175.171 13.1436C172.843 13.1436 171.069 14.1934 169.849 16.293C168.628 18.3926 168.018 21.3141 168.018 25.0576ZM213.818 18.6611C213.818 21.8512 212.85 24.2275 210.913 25.79C208.976 27.3363 206.274 28.1094 202.808 28.1094H197.314V41H192.261V9.13965H202.759C206.258 9.13965 208.976 9.94531 210.913 11.5566C212.85 13.1517 213.818 15.5199 213.818 18.6611ZM208.765 18.5879C208.765 16.9603 208.228 15.7396 207.153 14.9258C206.095 14.112 204.647 13.7051 202.808 13.7051H197.314V23.5439H202.808C204.647 23.5439 206.095 23.137 207.153 22.3232C208.228 21.5094 208.765 20.2643 208.765 18.5879ZM267.749 17.8555C267.749 19.3529 267.35 20.8828 266.553 22.4453C265.755 24.0078 264.657 25.4889 263.257 26.8887L253.296 36.459H262.646V32.0889H267.212V41H246.704V36.2393L259.546 23.959C260.653 22.8197 261.45 21.7536 261.938 20.7607C262.443 19.7516 262.695 18.7832 262.695 17.8555C262.695 17.0254 262.533 16.3092 262.207 15.707C261.898 15.1048 261.491 14.6165 260.986 14.2422C260.498 13.8516 259.937 13.5749 259.302 13.4121C258.667 13.2331 258.032 13.1436 257.397 13.1436C255.396 13.1436 253.817 13.7295 252.661 14.9014C251.522 16.0732 250.952 17.8066 250.952 20.1016H246.216C246.216 16.5046 247.168 13.6888 249.072 11.6543C250.993 9.61979 253.768 8.60254 257.397 8.60254C258.765 8.60254 260.075 8.80599 261.328 9.21289C262.581 9.60352 263.68 10.1813 264.624 10.9463C265.584 11.7113 266.341 12.6797 266.895 13.8516C267.464 15.0234 267.749 16.3581 267.749 17.8555ZM272.144 25.0576C272.144 22.9255 272.371 20.8665 272.827 18.8809C273.283 16.8952 273.991 15.1455 274.951 13.6318C275.911 12.1182 277.165 10.9056 278.711 9.99414C280.273 9.06641 282.153 8.60254 284.351 8.60254C286.548 8.60254 288.42 9.06641 289.966 9.99414C291.528 10.9056 292.798 12.1182 293.774 13.6318C294.751 15.1455 295.459 16.8952 295.898 18.8809C296.338 20.8665 296.558 22.9255 296.558 25.0576C296.558 27.1898 296.338 29.2487 295.898 31.2344C295.459 33.2038 294.759 34.9616 293.799 36.5078C292.839 38.0378 291.577 39.2666 290.015 40.1943C288.468 41.1058 286.58 41.5615 284.351 41.5615C282.121 41.5615 280.225 41.1058 278.662 40.1943C277.116 39.2666 275.854 38.0378 274.878 36.5078C273.918 34.9616 273.226 33.2038 272.803 31.2344C272.363 29.2487 272.144 27.1898 272.144 25.0576ZM277.197 25.0576C277.197 26.555 277.295 28.0036 277.49 29.4033L289.99 16.8545C289.437 15.7477 288.704 14.8525 287.793 14.1689C286.898 13.4854 285.75 13.1436 284.351 13.1436C282.023 13.1436 280.249 14.1934 279.028 16.293C277.808 18.3926 277.197 21.3141 277.197 25.0576ZM284.351 36.9961C285.783 36.9961 286.955 36.6462 287.866 35.9463C288.794 35.2464 289.518 34.335 290.039 33.2119C290.576 32.0726 290.951 30.7868 291.162 29.3545C291.39 27.9222 291.504 26.4899 291.504 25.0576C291.504 23.6904 291.406 22.3558 291.211 21.0537L278.809 33.5049C279.362 34.5628 280.07 35.4092 280.933 36.0439C281.812 36.6787 282.951 36.9961 284.351 36.9961ZM322.339 17.8555C322.339 19.3529 321.94 20.8828 321.143 22.4453C320.345 24.0078 319.246 25.4889 317.847 26.8887L307.886 36.459H317.236V32.0889H321.802V41H301.294V36.2393L314.136 23.959C315.243 22.8197 316.04 21.7536 316.528 20.7607C317.033 19.7516 317.285 18.7832 317.285 17.8555C317.285 17.0254 317.122 16.3092 316.797 15.707C316.488 15.1048 316.081 14.6165 315.576 14.2422C315.088 13.8516 314.526 13.5749 313.892 13.4121C313.257 13.2331 312.622 13.1436 311.987 13.1436C309.985 13.1436 308.407 13.7295 307.251 14.9014C306.112 16.0732 305.542 17.8066 305.542 20.1016H300.806C300.806 16.5046 301.758 13.6888 303.662 11.6543C305.583 9.61979 308.358 8.60254 311.987 8.60254C313.354 8.60254 314.665 8.80599 315.918 9.21289C317.171 9.60352 318.27 10.1813 319.214 10.9463C320.174 11.7113 320.931 12.6797 321.484 13.8516C322.054 15.0234 322.339 16.3581 322.339 17.8555ZM349.634 17.8555C349.634 19.3529 349.235 20.8828 348.438 22.4453C347.64 24.0078 346.541 25.4889 345.142 26.8887L335.181 36.459H344.531V32.0889H349.097V41H328.589V36.2393L341.431 23.959C342.537 22.8197 343.335 21.7536 343.823 20.7607C344.328 19.7516 344.58 18.7832 344.58 17.8555C344.58 17.0254 344.417 16.3092 344.092 15.707C343.783 15.1048 343.376 14.6165 342.871 14.2422C342.383 13.8516 341.821 13.5749 341.187 13.4121C340.552 13.2331 339.917 13.1436 339.282 13.1436C337.28 13.1436 335.701 13.7295 334.546 14.9014C333.407 16.0732 332.837 17.8066 332.837 20.1016H328.101C328.101 16.5046 329.053 13.6888 330.957 11.6543C332.878 9.61979 335.653 8.60254 339.282 8.60254C340.649 8.60254 341.96 8.80599 343.213 9.21289C344.466 9.60352 345.565 10.1813 346.509 10.9463C347.469 11.7113 348.226 12.6797 348.779 13.8516C349.349 15.0234 349.634 16.3581 349.634 17.8555Z" fill="#E8E8E8"/>

  <g class="logo">
<path class="br_jap" d="M619.864 254.59C618.099 256.235 616.416 257.791 614.747 259.367C607.595 266.097 600.174 272.526 592.594 278.769C580.785 288.496 568.56 297.672 556.022 306.438C543.816 314.976 531.368 323.126 518.676 330.887C514.799 333.269 510.814 333.563 506.765 331.29C505.22 330.369 503.891 329.127 502.869 327.647C496.088 318.477 489.316 309.299 482.552 300.112C481.426 298.588 480.255 297.102 479.219 295.521C476.699 291.678 476.577 287.651 478.714 283.597C479.692 281.843 481.138 280.395 482.891 279.416C488.719 275.907 494.585 272.475 500.348 268.863C518.208 257.767 535.256 245.414 551.365 231.896C557.487 226.716 563.43 221.311 569.328 215.887C576.586 209.12 583.489 201.982 590.009 194.5C590.303 194.233 590.507 193.882 590.592 193.494C590.678 193.106 590.642 192.702 590.489 192.336C590.235 191.576 590.193 190.761 590.368 189.979C590.542 189.197 590.927 188.477 591.481 187.898C592.715 186.464 594.001 185.074 595.216 183.627C596.988 181.507 598.748 179.375 600.449 177.223C601.071 176.383 601.89 175.71 602.834 175.263C603.778 174.816 604.818 174.61 605.861 174.662C626.421 174.709 646.985 174.709 667.554 174.662C669.761 174.662 671.616 175.168 672.742 177.223C673.868 179.279 673.292 181.066 672.102 182.852C669.908 186.239 667.752 189.652 665.552 193.04C665.402 193.213 665.303 193.424 665.266 193.65C665.229 193.876 665.255 194.108 665.341 194.321C666.115 196.152 665.68 197.811 664.599 199.386C662.859 201.947 661.144 204.457 659.423 206.993C659.308 207.16 659.219 207.345 659.04 207.633C659.948 208.427 660.856 209.228 661.765 210.015C670.397 217.546 679.024 225.076 687.647 232.607C688.288 233.188 689.131 233.494 689.995 233.458C699.463 233.433 708.926 233.433 718.385 233.458C718.846 233.458 719.306 233.458 719.767 233.458C722.671 233.567 724.558 235.379 724.66 238.293C724.724 240.131 724.66 241.975 724.66 243.819C724.66 246.118 724.66 248.41 724.66 250.895C725.108 250.895 725.646 250.953 726.183 250.959C730.84 250.959 735.491 250.959 740.148 250.959C740.811 250.946 741.474 251.004 742.124 251.132C743.085 251.323 743.958 251.818 744.614 252.545C745.271 253.272 745.677 254.191 745.771 255.166C745.814 255.521 745.836 255.878 745.835 256.235C745.835 259.616 745.783 262.991 745.835 266.372C745.878 267.063 745.773 267.755 745.529 268.403C745.284 269.05 744.905 269.639 744.417 270.128C743.928 270.618 743.341 270.998 742.694 271.244C742.047 271.489 741.356 271.595 740.666 271.552C737.602 271.437 734.525 271.552 731.46 271.552H729.541C730.13 272.193 730.475 272.59 730.821 272.961C735.503 277.61 740.218 282.227 744.894 286.901C746.473 288.452 747.538 290.45 747.944 292.627C748.351 294.803 748.079 297.052 747.165 299.068C746.589 300.319 745.806 301.465 744.849 302.455C739.386 308.135 733.847 313.732 728.339 319.367C724.5 323.279 720.611 327.128 716.901 331.143C712.308 336.112 704.657 335.491 700.512 331.143C693.903 324.157 687.078 317.343 680.271 310.581C672.957 303.358 665.567 296.212 658.099 289.143C645.915 277.616 633.469 266.381 620.76 255.435C620.562 255.108 620.293 254.91 619.864 254.59ZM661.042 196.094C660.229 196.056 659.763 196.011 659.264 196.011C638.337 196.011 617.414 196.011 596.496 196.011C595.997 195.989 595.499 196.087 595.046 196.297C594.593 196.508 594.197 196.825 593.892 197.221C581.639 211.122 568.327 224.051 554.077 235.892C533.664 252.976 511.773 267.947 488.872 281.465C487.593 282.221 486.313 282.919 485.034 283.725C483.918 284.376 483.032 285.358 482.499 286.535C481.966 287.712 481.812 289.027 482.059 290.295C482.32 291.555 482.897 292.727 483.735 293.702C489.633 301.681 495.527 309.666 501.417 317.657C503.336 320.219 505.165 322.78 507.078 325.303C508.741 327.506 510.961 328.46 513.68 327.864C514.666 327.607 515.602 327.187 516.45 326.622C533.082 316.421 549.299 305.657 565.016 294.112C583.926 280.229 602.016 265.36 618.809 248.955C619.09 248.679 619.41 248.436 619.73 248.167C620.146 248.506 620.51 248.807 620.849 249.089C629.21 256.472 637.642 263.779 645.913 271.251C662.206 285.979 677.962 301.245 693.411 316.844C696.936 320.404 700.448 324.009 703.928 327.602C705.023 328.838 706.535 329.627 708.175 329.817C709.171 329.928 710.179 329.801 711.116 329.447C712.053 329.093 712.893 328.522 713.568 327.781C717.747 323.512 721.927 319.228 726.106 314.929C731.185 309.73 736.265 304.534 741.344 299.343C742.362 298.394 743.05 297.145 743.308 295.777C743.509 294.689 743.429 293.568 743.074 292.521C742.719 291.474 742.101 290.536 741.28 289.796C733.966 282.637 726.665 275.469 719.376 268.293C718.967 267.883 718.57 267.461 718.167 267.051C718.219 266.948 718.27 266.852 718.315 266.756H741.082V255.608H692.08C691.517 255.608 690.954 255.608 690.392 255.563C690.227 255.568 690.062 255.537 689.91 255.473C689.758 255.409 689.622 255.313 689.51 255.191C689.397 255.07 689.313 254.926 689.261 254.77C689.209 254.613 689.191 254.447 689.208 254.282C689.208 253.514 689.208 252.746 689.208 251.977C689.208 249.371 689.253 249.32 691.863 249.32H719.92V238.107H718.001C708.13 238.107 698.26 238.107 688.383 238.107C687.371 238.148 686.385 237.786 685.638 237.102C675.002 227.817 664.341 218.555 653.653 209.317C653.289 208.997 652.93 208.677 652.591 208.351L661.042 196.094ZM668.642 179.311C668.002 179.279 667.656 179.253 667.311 179.247C646.904 179.247 626.498 179.247 606.091 179.247C605.721 179.227 605.351 179.301 605.016 179.461C604.68 179.621 604.391 179.862 604.172 180.163C601.383 183.556 598.53 186.905 595.703 190.274C595.527 190.538 595.373 190.817 595.242 191.106H659.084C659.443 191.106 659.801 191.106 660.159 191.106C660.437 191.145 660.721 191.098 660.971 190.971C661.221 190.844 661.427 190.643 661.56 190.395C662.948 188.244 664.381 186.131 665.763 183.992C666.684 182.538 667.58 181.053 668.642 179.337V179.311Z" fill="#E8E8E8"/>
<path class="bl_jap" d="M210.076 193.789C210.134 194 210.179 194.193 210.249 194.385C210.606 195.271 210.678 196.247 210.455 197.176C210.233 198.106 209.727 198.943 209.008 199.571C207.012 201.492 205.029 203.413 202.995 205.264C197.408 210.387 191.619 215.256 185.627 219.87C181.539 223.008 176.217 223.322 172.193 220.459C170.823 219.39 169.561 218.189 168.425 216.873C165.515 213.787 162.668 210.649 159.777 207.537C159.508 207.243 159.188 206.999 158.708 206.57C158.542 207.736 158.388 208.715 158.267 209.695C156.687 222.304 154.429 234.765 150.155 246.778C145.701 259.339 139.476 271.199 131.668 281.996C127.295 287.987 122.518 293.672 117.371 299.01C108.996 307.784 99.8287 315.762 89.9848 322.844C82.3896 328.304 74.4869 333.322 66.3158 337.873C65.0028 338.673 63.545 339.207 62.0259 339.443C60.5068 339.679 58.956 339.614 57.4623 339.25C54.8139 338.609 52.8372 336.97 51.1356 334.902C43.8856 326.103 36.6208 317.311 29.3409 308.526C27.94 306.835 26.5262 305.151 25.1381 303.442C23.6613 301.68 22.7597 299.508 22.555 297.218C22.3502 294.928 22.8521 292.63 23.993 290.635C25.0639 288.756 26.6665 287.236 28.5989 286.268C33.4798 283.706 38.3927 281.177 43.1841 278.436C52.247 273.356 60.701 267.256 68.382 260.257C79.6792 249.787 88.2448 237.493 92.9786 222.694C94.6574 217.109 95.8475 211.389 96.5354 205.597C96.9576 202.511 97.2391 199.399 97.6485 196.306C97.7636 195.409 98.2882 194.551 98.2882 193.661C98.2882 192.771 97.7636 191.99 97.7892 191.157C97.8596 188.66 98.0963 186.163 98.2626 183.659C98.3586 182.231 98.4353 180.803 98.5377 179.375C98.7488 176.493 100.642 174.7 103.534 174.63C103.994 174.63 104.455 174.63 104.916 174.63H215.866C216.529 174.604 217.193 174.617 217.855 174.668C218.704 174.725 219.522 175.012 220.22 175.5C220.918 175.987 221.469 176.656 221.815 177.435C222.21 178.192 222.368 179.05 222.27 179.898C222.172 180.746 221.822 181.546 221.265 182.192C219.985 183.761 218.54 185.241 217.113 186.707C214.797 189.051 212.431 191.407 210.076 193.789ZM102.465 196.094C102.414 196.575 102.376 196.92 102.331 197.266C101.73 201.883 101.218 206.513 100.521 211.11C98.7977 222.689 94.6728 233.778 88.4112 243.665C81.5599 254.551 72.7512 263.567 62.5543 271.303C52.9921 278.437 42.78 284.655 32.0533 289.873C31.4583 290.167 30.8506 290.443 30.2877 290.795C29.5648 291.235 28.9377 291.816 28.444 292.504C27.9502 293.192 27.5998 293.973 27.4135 294.799C27.2273 295.625 27.2091 296.481 27.36 297.314C27.5109 298.148 27.8278 298.942 28.2918 299.651C28.6637 300.203 29.0696 300.731 29.5072 301.232L43.6831 318.4C47.4637 322.972 51.2636 327.531 55.0186 332.129C56.6819 334.172 58.7673 335.126 61.3581 334.69C62.3614 334.494 63.3199 334.114 64.1856 333.57C70.0837 329.99 76.0713 326.526 81.803 322.684C96.8933 312.709 110.441 300.573 122.015 286.665C135.282 270.592 144.622 252.521 149.522 232.235C152.081 221.516 153.552 210.617 154.582 199.661C154.691 198.515 154.768 197.369 154.864 196.146L102.465 196.094ZM102.465 191.112H203.961C204.367 191.148 204.776 191.148 205.183 191.112C205.577 191.055 205.953 190.908 206.283 190.683C206.931 190.186 207.543 189.643 208.113 189.057C210.987 186.146 213.846 183.219 216.691 180.278C216.92 179.993 217.134 179.696 217.331 179.388H103.348C103.041 183.287 102.785 187.085 102.491 191.119L102.465 191.112ZM155.644 196.107L160.269 201.115C164.662 205.845 169.042 210.575 173.409 215.305C174.207 216.244 175.243 216.952 176.409 217.354C177.486 217.694 178.633 217.755 179.74 217.531C180.848 217.307 181.881 216.805 182.742 216.073C190.442 210.149 197.81 203.804 204.812 197.068C205.042 196.844 205.227 196.562 205.567 196.146L155.644 196.107Z" fill="#E8E8E8"/>
<path class="tl_jap" d="M131.393 115.04C89.6458 115.04 47.903 115.04 6.16446 115.04C5.30552 115.061 4.44697 114.984 3.60564 114.809C2.651 114.587 1.79183 114.066 1.15242 113.322C0.513014 112.579 0.12653 111.651 0.0488894 110.673C0.0146782 110.315 -0.000274519 109.956 0.00410542 109.597C0.00410542 100.594 0.00410542 91.586 0.00410542 82.5743C-0.0397633 80.9831 0.268399 79.4019 0.90652 77.944C1.54464 76.486 2.49694 75.1873 3.69521 74.1409C5.40301 72.5663 7.59146 71.6142 9.90673 71.4387C10.7255 71.3811 11.5444 71.3747 12.3632 71.3747C91.6566 71.3747 170.948 71.3747 250.237 71.3747C251.565 71.3278 252.893 71.4331 254.197 71.6884C259.154 72.841 262.513 77.1698 262.513 82.4654C262.564 86.4547 262.513 90.4505 262.513 94.4398C262.513 99.4089 262.513 104.374 262.513 109.334C262.513 113.221 260.677 115.046 256.756 115.046L131.393 115.04ZM4.81469 110.288H257.849V108.687C257.849 100.192 257.849 91.697 257.849 83.2018C257.856 82.691 257.837 82.1802 257.792 81.6714C257.693 80.4361 257.215 79.2617 256.422 78.3099C255.629 77.3581 254.561 76.6757 253.365 76.3565C252.316 76.1214 251.241 76.0224 250.167 76.062C170.886 76.062 91.6118 76.062 12.344 76.062C11.7811 76.062 11.2181 76.062 10.6552 76.062C9.42159 76.1277 8.23576 76.5609 7.24983 77.3059C6.2639 78.0509 5.52284 79.0738 5.12174 80.2434C4.87881 81.0228 4.75586 81.8347 4.7571 82.6511C4.7571 91.4558 4.7571 100.254 4.7571 109.059C4.73151 109.417 4.7827 109.77 4.81469 110.288Z" fill="#E8E8E8"/>
<path class="bm2_jap" d="M460.597 184.997C460.597 186.63 460.597 188.269 460.597 189.902C460.597 191.183 460.073 192.303 459.919 193.482C459.766 194.66 460.456 195.87 460.412 197.055C460.297 200.526 460.041 203.996 459.772 207.46C459.215 214.607 458.397 221.714 457.213 228.784C455.294 240.47 452.492 251.913 447.579 262.76C442.574 273.881 435.908 284.176 427.812 293.292C418.722 303.538 408.359 312.278 397.215 320.186C385.633 328.248 373.597 335.637 361.168 342.317C359.777 343.133 358.239 343.666 356.642 343.886C355.044 344.106 353.42 344.008 351.86 343.597C349.37 342.904 347.202 341.358 345.732 339.23C337.857 328.581 329.963 317.939 322.152 307.213C319.306 303.32 318.954 299.106 321.308 294.816C322.511 292.639 324.43 291.224 326.611 290.097C331.607 287.535 336.616 284.974 341.529 282.233C351.912 276.47 361.897 270.067 370.853 262.191C379.809 254.314 387.006 245.004 391.637 233.881C394.074 228.035 395.411 221.9 396.403 215.676C397.452 209.106 398.177 202.502 398.578 195.864C399.41 194.096 398.725 192.316 398.712 190.53C398.712 187.93 398.949 185.324 399.07 182.718C399.122 181.642 399.147 180.572 399.179 179.516C399.269 176.692 401.214 174.643 404.035 174.636C421.371 174.611 438.709 174.611 456.049 174.636C458.972 174.636 460.885 176.679 460.911 179.631C460.911 181.418 460.911 183.211 460.911 184.997H460.597ZM403.42 196.126C403.35 196.767 403.261 197.343 403.222 197.9C402.722 205.456 401.791 212.978 400.433 220.427C399.105 228.102 396.563 235.517 392.904 242.391C387.3 252.707 379.688 261.307 370.616 268.677C362.463 275.198 353.758 280.996 344.6 286.005C339.284 288.963 333.859 291.717 328.46 294.528C327.598 294.922 326.83 295.495 326.207 296.21C325.584 296.924 325.12 297.763 324.846 298.671C324.206 300.931 324.846 302.891 326.202 304.716C333.964 315.205 341.706 325.704 349.429 336.214C350.405 337.673 351.906 338.698 353.618 339.078C355.33 339.457 357.122 339.161 358.622 338.251C368.077 333.045 377.423 327.666 386.443 321.723C397.522 314.423 408.109 306.49 417.616 297.173C435.092 280.024 446.473 259.591 451.168 235.469C453.464 223.2 454.96 210.793 455.646 198.329C455.691 197.631 455.646 196.927 455.646 196.133L403.42 196.126ZM456.266 179.356H403.996C403.809 183.24 403.623 187.098 403.44 190.927C405.359 191.26 454.558 191.176 455.825 190.824C455.972 187.066 456.113 183.287 456.266 179.356Z" fill="#E8E8E8"/>
<path class="tr_jap" d="M511.108 115.04C510.292 115.057 509.477 114.984 508.677 114.822C507.661 114.619 506.747 114.07 506.09 113.267C505.434 112.465 505.075 111.46 505.076 110.423C505.037 104.436 504.961 98.4484 505.121 92.4932C505.255 87.2552 509.97 82.7408 515.19 82.5102C515.906 82.4782 516.622 82.5102 517.339 82.5102C572.622 82.5102 627.905 82.5102 683.189 82.5102C684.414 82.4634 685.641 82.5493 686.848 82.7664C689.242 83.3045 691.382 84.6404 692.918 86.5553C694.455 88.4701 695.296 90.8505 695.305 93.3064C695.407 98.9286 695.368 104.564 695.305 110.192C695.305 113.035 693.296 114.956 690.449 115.084C689.893 115.084 689.323 115.084 688.767 115.084L511.108 115.04ZM509.726 110.288H690.494C690.56 109.965 690.607 109.638 690.635 109.309C690.635 104.088 690.635 98.8667 690.635 93.6458C690.635 89.5156 687.263 87.1399 683.796 87.1463C628.095 87.189 572.394 87.189 516.693 87.1463C512.304 87.1463 509.605 90.348 509.694 94.1517C509.816 99.0119 509.694 103.872 509.694 108.732L509.726 110.288Z" fill="#E8E8E8"/>
<path class="bm1_jap" d="M340.064 174.617C340.576 174.617 341.088 174.617 341.599 174.617C344.21 174.739 346.212 176.538 346.276 179.17C346.384 183.159 346.461 187.162 346.237 191.138C346.141 192.784 345.751 194.378 346.301 196.005C346.34 196.257 346.34 196.514 346.301 196.767C346.301 209.305 346.301 221.84 346.301 234.374C346.339 235.836 346.079 237.291 345.54 238.65C345 240.009 344.19 241.245 343.16 242.282C342.171 243.325 340.98 244.155 339.661 244.723C338.341 245.291 336.92 245.585 335.484 245.586C332.72 245.618 329.963 245.586 327.2 245.586C317.073 245.586 306.953 245.625 296.827 245.586C292.061 245.586 288.702 243.198 286.694 238.908C286.062 237.391 285.774 235.753 285.849 234.112C285.849 222.043 285.849 209.971 285.849 197.894C285.77 197.182 285.787 196.462 285.9 195.755C286.323 194.257 286.009 192.822 285.932 191.337C285.734 187.251 285.805 183.153 285.888 179.061C285.925 177.89 286.411 176.777 287.244 175.954C288.077 175.13 289.195 174.659 290.366 174.636C291.28 174.585 292.202 174.636 293.123 174.636L340.064 174.617ZM290.622 196.133C290.59 196.671 290.538 197.119 290.538 197.567C290.538 209.798 290.538 222.026 290.538 234.252C290.538 238.325 293.18 240.944 297.287 240.95C309.768 240.95 322.236 240.95 334.716 240.95C335.635 240.996 336.553 240.849 337.412 240.519C338.271 240.189 339.052 239.683 339.704 239.034C340.357 238.385 340.867 237.607 341.202 236.75C341.537 235.892 341.69 234.974 341.651 234.054C341.555 221.926 341.619 209.804 341.612 197.676C341.612 197.183 341.561 196.69 341.529 196.133H290.622ZM290.583 191.01H341.42C341.734 189.211 341.651 180.406 341.324 179.362C338.088 179.068 291.747 179.202 290.583 179.516V191.01Z" fill="#E8E8E8"/>
<path class="tm2_jap" d="M430.32 115.04C421.987 115.04 413.649 115.04 405.308 115.04C404.551 115.045 403.796 114.955 403.062 114.771C402.058 114.524 401.164 113.95 400.522 113.138C399.88 112.326 399.527 111.324 399.518 110.288C399.518 110.032 399.518 109.776 399.518 109.52V61.1868C399.518 56.3202 401.828 52.8944 406.19 50.9413C407.499 50.3652 408.912 50.0623 410.342 50.0512C423.639 49.9829 436.939 49.9829 450.24 50.0512C451.678 50.046 453.101 50.327 454.429 50.8779C455.757 51.4287 456.961 52.2384 457.974 53.2598C458.986 54.2812 459.785 55.4939 460.324 56.8273C460.863 58.1607 461.132 59.5882 461.115 61.0267C461.173 67.0139 461.115 73.0011 461.115 78.9883V108.931C461.115 109.392 461.115 109.853 461.115 110.314C461.089 111.531 460.607 112.695 459.765 113.573C458.922 114.452 457.781 114.982 456.567 115.059C456.062 115.104 455.544 115.059 455.032 115.059L430.32 115.04ZM404.188 110.25H456.388V80.1025C456.388 73.8144 456.388 67.5198 456.388 61.2316C456.388 57.3896 453.829 54.7962 449.991 54.6489C449.633 54.6489 449.274 54.6489 448.916 54.6489H411.615C411.155 54.6489 410.694 54.6489 410.24 54.6489C407.566 54.9242 405.583 56.2113 404.649 58.7663C404.325 59.7884 404.176 60.8578 404.207 61.9296C404.182 77.4259 404.182 92.9265 404.207 108.431L404.188 110.25Z" fill="#E8E8E8"/>
<path class="tm1_jap" d="M315.947 115.04C307.815 115.04 299.686 115.04 291.562 115.04C290.848 115.053 290.135 114.982 289.438 114.828C288.459 114.598 287.582 114.054 286.94 113.278C286.299 112.502 285.93 111.538 285.888 110.532C285.888 110.231 285.888 109.923 285.888 109.616C285.888 97.283 285.888 84.9563 285.888 72.6297C285.83 71.0132 286.129 69.4039 286.764 67.9163C287.399 66.4288 288.353 65.0996 289.56 64.0235C291.335 62.3667 293.641 61.3953 296.065 61.2829C296.577 61.2829 297.089 61.2508 297.601 61.2508H334.569C336.26 61.15 337.952 61.421 339.527 62.0449C343.64 63.9339 345.969 67.1036 346.314 71.65C346.359 72.2135 346.314 72.777 346.314 73.3405V109.097C346.314 109.456 346.314 109.814 346.314 110.173C346.313 111.444 345.816 112.663 344.929 113.572C344.043 114.481 342.836 115.008 341.568 115.04C341.107 115.04 340.646 115.04 340.186 115.04H315.947ZM290.538 110.25H341.593V73.1996C341.607 72.6375 341.586 72.075 341.529 71.5155C341.432 70.3309 340.983 69.2025 340.24 68.2758C339.497 67.349 338.493 66.6664 337.358 66.3159C336.432 66.0373 335.466 65.9119 334.499 65.9445C324.328 65.9445 314.156 65.9445 303.985 65.9445C301.58 65.9445 299.174 65.9125 296.775 65.9445C295.356 65.9377 293.978 66.4233 292.876 67.3188C291.774 68.2142 291.016 69.4641 290.73 70.856C290.585 71.6089 290.523 72.3755 290.545 73.142C290.545 84.9542 290.545 96.7664 290.545 108.579L290.538 110.25Z" fill="#E8E8E8"/>
<path class="b" d="M175.699 162.995V126.937C176.204 126.899 176.646 126.841 177.093 126.841C181.437 126.841 185.78 126.771 190.124 126.841C191.805 126.871 193.474 127.136 195.082 127.629C198.671 128.775 200.5 131.471 200.909 135.14C200.989 135.902 201.002 136.669 200.948 137.432C200.913 138.747 200.511 140.026 199.787 141.124C199.064 142.221 198.047 143.094 196.854 143.644C196.272 143.938 195.651 144.156 194.794 144.515C194.964 144.61 195.142 144.691 195.325 144.758C200.052 145.987 202.01 150.291 201.396 154.747C200.756 159.39 197.685 162.355 192.996 162.95C192.441 163.034 191.882 163.083 191.32 163.097C186.309 163.097 181.3 163.097 176.294 163.097C176.092 163.084 175.893 163.05 175.699 162.995ZM181.648 157.482H183.35C185.697 157.482 188.045 157.514 190.386 157.424C191.248 157.353 192.094 157.15 192.894 156.822C193.809 156.477 194.553 155.788 194.967 154.901C196.694 151.443 194.615 147.608 190.777 147.409C187.828 147.255 184.866 147.409 181.904 147.409C181.827 147.409 181.744 147.518 181.642 147.601L181.648 157.482ZM181.648 141.684C184.847 141.684 187.898 141.684 190.949 141.684C191.357 141.662 191.758 141.576 192.139 141.428C192.68 141.27 193.179 140.995 193.601 140.622C194.023 140.249 194.359 139.787 194.583 139.27C196.035 135.928 194.18 132.828 190.565 132.572C190.111 132.572 189.651 132.572 189.19 132.572H181.654L181.648 141.684Z" fill="#E8E8E8"/>
<path class="r1" d="M269.128 126.88C269.703 126.848 270.151 126.803 270.599 126.803C274.994 126.803 279.388 126.803 283.789 126.803C284.913 126.795 286.033 126.918 287.129 127.168C288.714 127.517 290.176 128.285 291.365 129.392C292.553 130.499 293.423 131.905 293.884 133.462C294.738 136.004 294.758 138.752 293.942 141.307C293.564 142.643 292.891 143.877 291.972 144.916C291.053 145.956 289.911 146.775 288.632 147.313L287.557 147.8L295.931 162.995C295.533 163.068 295.132 163.12 294.728 163.149C293.193 163.149 291.658 163.104 290.123 163.181C289.723 163.225 289.321 163.133 288.98 162.921C288.638 162.708 288.379 162.387 288.242 162.009C286.092 157.885 283.892 153.787 281.704 149.682C281.461 149.228 281.218 148.786 280.892 148.19H275.032V163.117C272.991 163.206 271.098 163.194 269.128 163.117V126.88ZM275.122 142.427C278.32 142.427 281.391 142.459 284.448 142.427C285.066 142.415 285.669 142.24 286.197 141.919C286.725 141.599 287.159 141.144 287.455 140.602C288.099 139.549 288.389 138.317 288.28 137.087C288.044 134.039 286.259 132.374 283.45 132.559C282.286 132.636 281.109 132.559 279.932 132.559H275.122V142.427Z" fill="#E8E8E8"/>
<path class="n" d="M566.084 153.012V126.937H571.567C571.918 128.103 571.989 161.247 571.624 163.136C569.705 163.136 567.786 163.136 565.867 163.136C565.532 163.071 565.23 162.89 565.016 162.624C564.767 162.295 564.552 161.94 564.376 161.567C560.112 153.998 555.828 146.431 551.525 138.867C551.256 138.38 550.962 137.906 550.616 137.317C550.13 137.874 550.309 138.438 550.309 138.937C550.309 146.357 550.309 153.778 550.309 161.202V163.085H544.814C544.494 161.97 544.411 128.794 544.75 126.892C546.669 126.892 548.588 126.841 550.508 126.931C550.879 126.931 551.326 127.475 551.557 127.866C553.06 130.485 554.518 133.123 555.99 135.761L564.946 151.834L565.701 153.115L566.084 153.012Z" fill="#E8E8E8"/>
<path class="r2" d="M426.143 147.819C428.932 152.884 431.689 157.879 434.574 163.11C433.448 163.11 432.553 163.161 431.657 163.168C430.761 163.174 429.706 163.117 428.74 163.168C428.339 163.229 427.929 163.149 427.579 162.943C427.23 162.736 426.962 162.415 426.821 162.034C424.799 158.128 422.74 154.244 420.641 150.38C419.183 147.691 420.098 148.254 416.963 148.19C415.901 148.19 414.846 148.19 413.649 148.19V163.085C411.621 163.213 409.722 163.168 407.758 163.085V126.803H409.344C413.637 126.803 417.935 126.771 422.228 126.803C423.453 126.793 424.676 126.933 425.868 127.219C429.827 128.276 432.073 131.01 432.84 134.954C433.235 136.922 433.168 138.954 432.642 140.89C432.295 142.31 431.62 143.628 430.673 144.74C429.725 145.852 428.531 146.726 427.185 147.294C426.878 147.473 426.559 147.627 426.143 147.819ZM413.694 142.427C416.931 142.427 419.989 142.466 423.04 142.427C423.731 142.405 424.4 142.183 424.967 141.789C425.535 141.395 425.976 140.845 426.239 140.205C426.886 138.857 427.029 137.321 426.642 135.876C426.117 133.718 424.723 132.611 422.458 132.585C419.861 132.585 417.257 132.585 414.66 132.585C414.324 132.611 413.99 132.663 413.662 132.739L413.694 142.427Z" fill="#E8E8E8"/>
<path class="d1" d="M316.139 127.033C316.264 126.965 316.397 126.913 316.536 126.88C321.231 126.931 325.946 126.758 330.609 127.091C337.409 127.584 341.676 132.335 341.791 139.161C341.86 143.05 341.86 146.935 341.791 150.816C341.676 157.68 337.314 162.399 330.469 162.982C327.622 163.219 324.75 163.149 321.89 163.187C320.009 163.187 318.129 163.187 316.286 163.187C315.979 161.913 315.864 129.499 316.139 127.033ZM322.082 157.424C324.481 157.424 326.675 157.456 328.869 157.424C329.585 157.394 330.295 157.273 330.98 157.065C332.285 156.758 333.45 156.025 334.292 154.982C335.135 153.938 335.606 152.644 335.631 151.302C335.733 147.108 335.74 142.914 335.631 138.726C335.604 137.378 335.122 136.078 334.264 135.039C333.406 134 332.221 133.281 330.904 133.001C330.01 132.788 329.097 132.67 328.179 132.649C326.547 132.598 324.91 132.649 323.278 132.649C322.888 132.649 322.498 132.713 322.089 132.752L322.082 157.424Z" fill="#E8E8E8"/>
<path class="d2" d="M594.071 163.174V126.841H595.613C598.984 126.841 602.362 126.841 605.733 126.841C607.885 126.805 610.026 127.148 612.06 127.853C616.467 129.479 618.905 132.694 619.544 137.285C619.716 138.706 619.789 140.138 619.762 141.569C619.762 144.995 619.89 148.44 619.608 151.847C619.065 158.372 614.83 162.502 608.26 162.963C604.646 163.219 601.006 163.11 597.385 163.161C596.342 163.181 595.274 163.174 594.071 163.174ZM600.091 132.624C599.765 135.082 599.88 156.316 600.219 157.418C602.445 157.418 604.697 157.533 606.929 157.418C611.132 157.149 613.544 154.671 613.64 150.534C613.723 146.858 613.723 143.17 613.64 139.494C613.544 135.46 611.222 132.976 607.243 132.681C604.876 132.483 602.522 132.624 600.091 132.624Z" fill="#E8E8E8"/>
<path class="o" d="M247.653 144.867C247.531 147.524 247.589 150.15 247.256 152.724C246.456 158.903 241.678 163.136 235.434 163.277C233.8 163.356 232.163 163.2 230.573 162.816C225.647 161.484 222.832 158.096 221.815 153.159C221.619 152.155 221.518 151.135 221.514 150.111C221.482 146.583 221.412 143.068 221.514 139.52C221.553 137.779 221.846 136.053 222.384 134.397C223.984 129.755 227.412 127.174 232.204 126.451C234.337 126.089 236.524 126.216 238.601 126.822C243.546 128.327 246.45 131.733 247.205 136.779C247.614 139.494 247.531 142.229 247.653 144.867ZM241.39 144.867C241.39 142.946 241.448 140.98 241.39 139.04C241.243 135.114 238.703 132.431 235.076 132.265C231.027 132.079 228.11 134.237 227.847 138.303C227.558 142.836 227.593 147.383 227.95 151.911C228.218 155.349 230.969 157.386 234.404 157.437C237.84 157.488 240.494 155.471 241.192 152.052C241.321 151.4 241.389 150.737 241.396 150.073C241.409 148.344 241.39 146.609 241.39 144.867Z" fill="#E8E8E8"/>
<path class="e" d="M387.127 132.624H369.356V142.229H384.313V147.902H369.363V157.398H387.07V162.88C385.95 163.213 365.179 163.283 363.401 162.95V126.937H387.07C387.223 128.788 387.07 130.6 387.127 132.624Z" fill="#E8E8E8"/>
<path class="a" d="M512.061 126.841L525.674 163.117C524.497 163.117 523.499 163.161 522.476 163.168C521.452 163.174 520.435 163.168 519.277 163.168C518.465 160.875 517.665 158.628 516.853 156.323H502.92L500.553 163.072H494.31C494.36 162.712 494.437 162.357 494.54 162.009C498.783 150.671 503.027 139.332 507.27 127.994C507.583 127.161 507.974 126.713 508.92 126.816C509.867 126.918 510.955 126.841 512.061 126.841ZM510.053 136.574H509.733C508.159 141.14 506.579 145.706 504.916 150.528C508.332 150.528 511.498 150.566 514.883 150.489L510.053 136.574Z" fill="#E8E8E8"/>
<path class="l" d="M478.298 163.072H454.878C454.571 161.926 454.494 128.781 454.795 126.944H460.552V157.418H478.266L478.298 163.072Z" fill="#E8E8E8"/>
<path class="br2_jap" d="M765.576 250.786C767.412 250.786 769.254 250.786 771.097 250.786C773.911 250.837 775.869 252.643 775.933 255.454C776.022 259.181 776.022 262.921 775.933 266.647C775.869 269.439 773.905 271.303 771.09 271.341C767.361 271.392 763.631 271.399 759.902 271.341C759.283 271.364 758.667 271.262 758.089 271.041C757.511 270.819 756.984 270.483 756.539 270.052C756.095 269.622 755.742 269.105 755.502 268.534C755.262 267.964 755.139 267.35 755.142 266.731C755.044 262.944 755.044 259.16 755.142 255.377C755.213 252.65 757.17 250.85 759.902 250.799C761.789 250.754 763.682 250.786 765.576 250.786ZM771.193 255.518H759.908V266.571H771.193V255.518Z" fill="#E8E8E8"/>
</g>
</svg>
