<svg width="776" height="344" viewBox="0 0 776 344" fill="none" xmlns="http://www.w3.org/2000/svg">
<defs>
<filter id="glow1" x="-30%" y="-30%" width="160%" height="160%">
<feGaussianBlur stdDeviation="5 5" result="glow"/>
<feMerge>
<feMergeNode in="glow"/>
<feMergeNode in="glow"/>
<feMergeNode in="glow"/>
</feMerge>
</filter>
<filter id="glow2" x="-30%" y="-30%" width="160%" height="160%">
<feGaussianBlur stdDeviation="5 5" result="glow"/>
<feMerge>
<feMergeNode in="glow"/>
<feMergeNode in="glow"/>
</feMerge>
</filter>
<filter id="glow3" x="-30%" y="-30%" width="160%" height="160%">
<feGaussianBlur stdDeviation="1 1" result="glow"/>
</filter>
<mask id="textMask">
<text style="fill:white;" x="175" y="55"> Complex Glow </text>
</mask>
</defs>
  <style type="text/css">
    @keyframes animate {
        40% {
            opacity: 1;
        }
        43% {
            opacity: 0.8;
        }
        44% {
            opacity: 1;
        }
        45% {
            opacity: 0.7;
        }
        46% {
            opacity: 1;
        }
    }

    .logo {
        filter: drop-shadow(0px 0px 5px #E8E8E8);
        animation: animate 5s ease-in-out infinite alternate;
    }
      .scsetop {
        <!-- text-shadow: 0 0 5px #ff7bac, 0 0 10px #ff7bac, 0 0 20px #ff7bac, 0 0 40px #ff7bac, 0 0 80px #ff7bac, 0 0 100px #ff7bac, 0 0 120px #ff7bac;  -->
        fill: #ff7bac;
        font-size: 1.5em;
        animation: blink 3s infinite linear alternate;
    }
    @keyframes blink {
        60%, 70%, 79% {
            opacity: 1;
        }
        65%, 67%, 79% {
            opacity: 0.2;
        }
        66%, 69%, 77% {
            opacity: 0.8;
        }
    }
    @keyframes flicker {
        0%, 2%, 35%, 37%, 39%, 41%, 100% {
            opacity: 1;
        }
        1%, 3%, 34%, 36%, 38%, 40% {
            opacity: 0;
        }
    }

    @keyframes border-flicker {
        0%, 2%, 4%, 6%, 33%, 37%, 39%, 41%, 100% {
            border: 2px solid black;
            box-shadow: #a48ff2 0px 0px 10px, inset #a48ff2 2px 2px 10px;
        }
        1%, 3%, 5%, 34%, 36%, 38%, 40% {
            border-color: transparent;
            box-shadow: unset;
        }
    }
    .b {
    animation: flicker 6s ease-in-out 7.75s infinite alternate both;
    }

    <!-- .o {
    animation: flicker 6s ease-in-out 2.75s infinite alternate both;
    }
    .r1 {
    animation: flicker 6s ease-in-out 7.41s infinite alternate both;
    }-->
    .d1 {
    animation: flicker 6s ease-in-out 8.94s infinite alternate both;
    }
    <!--
    .e {
    animation: flicker 6s ease-in-out 4.47s infinite alternate both;
    } -->
    .r2 {
    animation: flicker 6s ease-in-out 6.6s infinite alternate both;
    }
    .l {
    animation: flicker 6s ease-in-out 3.81s infinite alternate both;
    }
    .a {
    animation: flicker 6s ease-in-out 6.39s infinite alternate both;
    }
    .n {
    animation: flicker 6s ease-in-out 74.76s infinite alternate both;
    }
    .d2 {
    animation: flicker 6s ease-in-out 12.75s infinite alternate both;
    }

  </style>
  <path class="scsetop" style="filter: url(#glow2);" d="M19.0625 17.5511C18.911 16.2064 18.286 15.1648 17.1875 14.4261C16.089 13.678 14.7064 13.304 13.0398 13.304C11.8466 13.304 10.8144 13.4934 9.94318 13.8722C9.07197 14.2415 8.39489 14.7528 7.91193 15.4062C7.43845 16.0502 7.2017 16.7841 7.2017 17.608C7.2017 18.2992 7.36269 18.8958 7.68466 19.3977C8.0161 19.8996 8.44697 20.321 8.97727 20.6619C9.51705 20.9934 10.0947 21.2727 10.7102 21.5C11.3258 21.7178 11.9176 21.8977 12.4858 22.0398L15.3267 22.7784C16.2547 23.0057 17.2064 23.3134 18.1818 23.7017C19.1572 24.09 20.0616 24.6013 20.8949 25.2358C21.7282 25.8703 22.4006 26.6562 22.9119 27.5938C23.4328 28.5312 23.6932 29.6534 23.6932 30.9602C23.6932 32.608 23.267 34.071 22.4148 35.3494C21.572 36.6278 20.3456 37.6364 18.7358 38.375C17.1354 39.1136 15.1989 39.483 12.9261 39.483C10.7481 39.483 8.86364 39.1373 7.27273 38.446C5.68182 37.7547 4.43655 36.7746 3.53693 35.5057C2.63731 34.2273 2.14015 32.7121 2.04545 30.9602H6.44886C6.53409 32.0114 6.875 32.8873 7.47159 33.5881C8.07765 34.2794 8.84943 34.7955 9.78693 35.1364C10.7339 35.4678 11.7708 35.6335 12.8977 35.6335C14.1383 35.6335 15.2415 35.4394 16.2074 35.0511C17.1828 34.6534 17.9498 34.1042 18.5085 33.4034C19.0672 32.6932 19.3466 31.8646 19.3466 30.9176C19.3466 30.0559 19.1004 29.3504 18.608 28.8011C18.125 28.2519 17.4669 27.7973 16.6335 27.4375C15.8097 27.0777 14.8769 26.7604 13.8352 26.4858L10.3977 25.5483C8.06818 24.9138 6.22159 23.9811 4.85795 22.75C3.50379 21.5189 2.8267 19.8902 2.8267 17.8636C2.8267 16.1875 3.28125 14.7244 4.19034 13.4744C5.09943 12.2244 6.33049 11.2538 7.88352 10.5625C9.43655 9.86174 11.1884 9.51136 13.1392 9.51136C15.1089 9.51136 16.8466 9.85701 18.3523 10.5483C19.8674 11.2396 21.0606 12.1913 21.9318 13.4034C22.803 14.6061 23.2576 15.9886 23.2955 17.5511H19.0625ZM53.1001 19.3693H48.6683C48.4979 18.4223 48.1806 17.589 47.7166 16.8693C47.2526 16.1496 46.6844 15.5388 46.0121 15.0369C45.3397 14.535 44.5869 14.1562 43.7536 13.9006C42.9297 13.6449 42.0537 13.517 41.1257 13.517C39.4496 13.517 37.9486 13.9384 36.6229 14.7812C35.3066 15.6241 34.2649 16.8598 33.4979 18.4886C32.7403 20.1174 32.3615 22.1061 32.3615 24.4545C32.3615 26.822 32.7403 28.8201 33.4979 30.4489C34.2649 32.0777 35.3113 33.3087 36.6371 34.142C37.9628 34.9754 39.4543 35.392 41.1115 35.392C42.0301 35.392 42.9013 35.2689 43.7251 35.0227C44.5585 34.767 45.3113 34.393 45.9837 33.9006C46.656 33.4081 47.2242 32.8068 47.6882 32.0966C48.1617 31.3769 48.4884 30.553 48.6683 29.625L53.1001 29.6392C52.8634 31.0691 52.4041 32.3854 51.7223 33.5881C51.05 34.7812 50.1835 35.8134 49.1229 36.6847C48.0717 37.5464 46.8691 38.214 45.5149 38.6875C44.1607 39.161 42.6835 39.3977 41.0831 39.3977C38.5642 39.3977 36.3198 38.8011 34.3501 37.608C32.3804 36.4053 30.8274 34.6866 29.6911 32.4517C28.5642 30.2169 28.0007 27.5511 28.0007 24.4545C28.0007 21.3485 28.5689 18.6828 29.7053 16.4574C30.8416 14.2225 32.3946 12.5085 34.3643 11.3153C36.334 10.1127 38.5736 9.51136 41.0831 9.51136C42.6267 9.51136 44.0661 9.7339 45.4013 10.179C46.746 10.6146 47.9534 11.2585 49.0234 12.1108C50.0935 12.9536 50.9789 13.9858 51.6797 15.2074C52.3804 16.4195 52.8539 17.8068 53.1001 19.3693ZM74.2188 17.5511C74.0672 16.2064 73.4422 15.1648 72.3438 14.4261C71.2453 13.678 69.8627 13.304 68.196 13.304C67.0028 13.304 65.9706 13.4934 65.0994 13.8722C64.2282 14.2415 63.5511 14.7528 63.0682 15.4062C62.5947 16.0502 62.358 16.7841 62.358 17.608C62.358 18.2992 62.5189 18.8958 62.8409 19.3977C63.1723 19.8996 63.6032 20.321 64.1335 20.6619C64.6733 20.9934 65.2509 21.2727 65.8665 21.5C66.482 21.7178 67.0739 21.8977 67.642 22.0398L70.483 22.7784C71.411 23.0057 72.3627 23.3134 73.3381 23.7017C74.3134 24.09 75.2178 24.6013 76.0511 25.2358C76.8845 25.8703 77.5568 26.6562 78.0682 27.5938C78.589 28.5312 78.8494 29.6534 78.8494 30.9602C78.8494 32.608 78.4233 34.071 77.571 35.3494C76.7282 36.6278 75.5019 37.6364 73.892 38.375C72.2917 39.1136 70.3551 39.483 68.0824 39.483C65.9044 39.483 64.0199 39.1373 62.429 38.446C60.8381 37.7547 59.5928 36.7746 58.6932 35.5057C57.7936 34.2273 57.2964 32.7121 57.2017 30.9602H61.6051C61.6903 32.0114 62.0313 32.8873 62.6278 33.5881C63.2339 34.2794 64.0057 34.7955 64.9432 35.1364C65.8902 35.4678 66.9271 35.6335 68.054 35.6335C69.2945 35.6335 70.3977 35.4394 71.3636 35.0511C72.339 34.6534 73.1061 34.1042 73.6648 33.4034C74.2235 32.6932 74.5028 31.8646 74.5028 30.9176C74.5028 30.0559 74.2566 29.3504 73.7642 28.8011C73.2813 28.2519 72.6231 27.7973 71.7898 27.4375C70.9659 27.0777 70.0331 26.7604 68.9915 26.4858L65.554 25.5483C63.2244 24.9138 61.3778 23.9811 60.0142 22.75C58.66 21.5189 57.983 19.8902 57.983 17.8636C57.983 16.1875 58.4375 14.7244 59.3466 13.4744C60.2557 12.2244 61.4867 11.2538 63.0398 10.5625C64.5928 9.86174 66.3447 9.51136 68.2955 9.51136C70.2652 9.51136 72.0028 9.85701 73.5085 10.5483C75.0237 11.2396 76.2169 12.1913 77.0881 13.4034C77.9593 14.6061 78.4138 15.9886 78.4517 17.5511H74.2188ZM84.0945 39V9.90909H102.333V13.6875H88.4837V22.5511H101.381V26.3153H88.4837V35.2216H102.504V39H84.0945ZM117.347 13.6875V9.90909H139.862V13.6875H130.785V39H126.41V13.6875H117.347ZM168.857 24.4545C168.857 27.5606 168.288 30.2311 167.152 32.4659C166.016 34.6913 164.458 36.4053 162.479 37.608C160.509 38.8011 158.269 39.3977 155.76 39.3977C153.241 39.3977 150.992 38.8011 149.013 37.608C147.043 36.4053 145.49 34.6866 144.354 32.4517C143.217 30.2169 142.649 27.5511 142.649 24.4545C142.649 21.3485 143.217 18.6828 144.354 16.4574C145.49 14.2225 147.043 12.5085 149.013 11.3153C150.992 10.1127 153.241 9.51136 155.76 9.51136C158.269 9.51136 160.509 10.1127 162.479 11.3153C164.458 12.5085 166.016 14.2225 167.152 16.4574C168.288 18.6828 168.857 21.3485 168.857 24.4545ZM164.51 24.4545C164.51 22.0871 164.126 20.0937 163.359 18.4744C162.602 16.8456 161.56 15.6146 160.234 14.7812C158.918 13.9384 157.427 13.517 155.76 13.517C154.084 13.517 152.588 13.9384 151.271 14.7812C149.955 15.6146 148.913 16.8456 148.146 18.4744C147.389 20.0937 147.01 22.0871 147.01 24.4545C147.01 26.822 147.389 28.8201 148.146 30.4489C148.913 32.0682 149.955 33.2992 151.271 34.142C152.588 34.9754 154.084 35.392 155.76 35.392C157.427 35.392 158.918 34.9754 160.234 34.142C161.56 33.2992 162.602 32.0682 163.359 30.4489C164.126 28.8201 164.51 26.822 164.51 24.4545ZM174.329 39V9.90909H184.698C186.961 9.90909 188.836 10.321 190.323 11.1449C191.81 11.9687 192.923 13.0956 193.661 14.5256C194.4 15.946 194.769 17.5464 194.769 19.3267C194.769 21.1165 194.395 22.7263 193.647 24.1562C192.908 25.5767 191.791 26.7036 190.295 27.5369C188.808 28.3608 186.938 28.7727 184.684 28.7727H177.553V25.0511H184.286C185.716 25.0511 186.876 24.8049 187.766 24.3125C188.656 23.8106 189.31 23.1288 189.727 22.267C190.143 21.4053 190.352 20.4252 190.352 19.3267C190.352 18.2282 190.143 17.2528 189.727 16.4006C189.31 15.5483 188.652 14.8807 187.752 14.3977C186.862 13.9148 185.688 13.6733 184.229 13.6733H178.718V39H174.329ZM210.103 39V35.8182L219.947 25.6193C220.998 24.5114 221.864 23.5407 222.546 22.7074C223.237 21.8646 223.754 21.0644 224.094 20.3068C224.435 19.5492 224.606 18.7443 224.606 17.892C224.606 16.9261 224.379 16.0928 223.924 15.392C223.469 14.6818 222.849 14.1373 222.063 13.7585C221.277 13.3703 220.392 13.1761 219.407 13.1761C218.365 13.1761 217.456 13.3892 216.68 13.8153C215.903 14.2415 215.307 14.8428 214.89 15.6193C214.473 16.3958 214.265 17.3049 214.265 18.3466H210.075C210.075 16.5758 210.482 15.0275 211.296 13.7017C212.111 12.3759 213.228 11.3485 214.648 10.6193C216.069 9.88068 217.683 9.51136 219.492 9.51136C221.32 9.51136 222.93 9.87595 224.322 10.6051C225.723 11.3248 226.817 12.3097 227.603 13.5597C228.389 14.8002 228.782 16.2017 228.782 17.7642C228.782 18.8438 228.578 19.8996 228.171 20.9318C227.773 21.964 227.077 23.1146 226.083 24.3835C225.089 25.643 223.706 27.1723 221.935 28.9716L216.154 35.0227V35.2358H229.251V39H210.103ZM244.762 39.483C242.518 39.4735 240.6 38.8816 239.009 37.7074C237.418 36.5331 236.201 34.8239 235.359 32.5795C234.516 30.3352 234.094 27.6316 234.094 24.4688C234.094 21.3153 234.516 18.6212 235.359 16.3864C236.211 14.1515 237.433 12.447 239.023 11.2727C240.624 10.0985 242.537 9.51136 244.762 9.51136C246.987 9.51136 248.896 10.1032 250.487 11.2869C252.077 12.4612 253.294 14.1657 254.137 16.4006C254.989 18.6259 255.415 21.3153 255.415 24.4688C255.415 27.6411 254.994 30.3494 254.151 32.5938C253.308 34.8286 252.092 36.5379 250.501 37.7216C248.91 38.8958 246.997 39.483 244.762 39.483ZM244.762 35.6903C246.732 35.6903 248.271 34.7292 249.379 32.8068C250.496 30.8845 251.055 28.1051 251.055 24.4688C251.055 22.054 250.799 20.0133 250.288 18.3466C249.786 16.6705 249.061 15.4015 248.114 14.5398C247.177 13.6686 246.059 13.233 244.762 13.233C242.802 13.233 241.263 14.1989 240.146 16.1307C239.028 18.0625 238.465 20.8419 238.455 24.4688C238.455 26.893 238.706 28.9432 239.208 30.6193C239.719 32.286 240.444 33.5502 241.381 34.4119C242.319 35.2642 243.446 35.6903 244.762 35.6903ZM260.455 39V35.8182L270.298 25.6193C271.349 24.5114 272.216 23.5407 272.898 22.7074C273.589 21.8646 274.105 21.0644 274.446 20.3068C274.787 19.5492 274.957 18.7443 274.957 17.892C274.957 16.9261 274.73 16.0928 274.276 15.392C273.821 14.6818 273.201 14.1373 272.415 13.7585C271.629 13.3703 270.743 13.1761 269.759 13.1761C268.717 13.1761 267.808 13.3892 267.031 13.8153C266.255 14.2415 265.658 14.8428 265.241 15.6193C264.825 16.3958 264.616 17.3049 264.616 18.3466H260.426C260.426 16.5758 260.833 15.0275 261.648 13.7017C262.462 12.3759 263.58 11.3485 265 10.6193C266.42 9.88068 268.035 9.51136 269.844 9.51136C271.671 9.51136 273.281 9.87595 274.673 10.6051C276.075 11.3248 277.169 12.3097 277.955 13.5597C278.741 14.8002 279.134 16.2017 279.134 17.7642C279.134 18.8438 278.93 19.8996 278.523 20.9318C278.125 21.964 277.429 23.1146 276.435 24.3835C275.44 25.643 274.058 27.1723 272.287 28.9716L266.506 35.0227V35.2358H279.602V39H260.455ZM284.986 39V35.8182L294.83 25.6193C295.881 24.5114 296.747 23.5407 297.429 22.7074C298.12 21.8646 298.636 21.0644 298.977 20.3068C299.318 19.5492 299.489 18.7443 299.489 17.892C299.489 16.9261 299.261 16.0928 298.807 15.392C298.352 14.6818 297.732 14.1373 296.946 13.7585C296.16 13.3703 295.275 13.1761 294.29 13.1761C293.248 13.1761 292.339 13.3892 291.562 13.8153C290.786 14.2415 290.189 14.8428 289.773 15.6193C289.356 16.3958 289.148 17.3049 289.148 18.3466H284.957C284.957 16.5758 285.365 15.0275 286.179 13.7017C286.993 12.3759 288.111 11.3485 289.531 10.6193C290.952 9.88068 292.566 9.51136 294.375 9.51136C296.203 9.51136 297.813 9.87595 299.205 10.6051C300.606 11.3248 301.7 12.3097 302.486 13.5597C303.272 14.8002 303.665 16.2017 303.665 17.7642C303.665 18.8438 303.461 19.8996 303.054 20.9318C302.656 21.964 301.96 23.1146 300.966 24.3835C299.972 25.643 298.589 27.1723 296.818 28.9716L291.037 35.0227V35.2358H304.134V39H284.986Z" fill="#E8E8E8"/>
<path class="scsetop" style="filter: url(#glow3);" d="M19.0625 17.5511C18.911 16.2064 18.286 15.1648 17.1875 14.4261C16.089 13.678 14.7064 13.304 13.0398 13.304C11.8466 13.304 10.8144 13.4934 9.94318 13.8722C9.07197 14.2415 8.39489 14.7528 7.91193 15.4062C7.43845 16.0502 7.2017 16.7841 7.2017 17.608C7.2017 18.2992 7.36269 18.8958 7.68466 19.3977C8.0161 19.8996 8.44697 20.321 8.97727 20.6619C9.51705 20.9934 10.0947 21.2727 10.7102 21.5C11.3258 21.7178 11.9176 21.8977 12.4858 22.0398L15.3267 22.7784C16.2547 23.0057 17.2064 23.3134 18.1818 23.7017C19.1572 24.09 20.0616 24.6013 20.8949 25.2358C21.7282 25.8703 22.4006 26.6562 22.9119 27.5938C23.4328 28.5312 23.6932 29.6534 23.6932 30.9602C23.6932 32.608 23.267 34.071 22.4148 35.3494C21.572 36.6278 20.3456 37.6364 18.7358 38.375C17.1354 39.1136 15.1989 39.483 12.9261 39.483C10.7481 39.483 8.86364 39.1373 7.27273 38.446C5.68182 37.7547 4.43655 36.7746 3.53693 35.5057C2.63731 34.2273 2.14015 32.7121 2.04545 30.9602H6.44886C6.53409 32.0114 6.875 32.8873 7.47159 33.5881C8.07765 34.2794 8.84943 34.7955 9.78693 35.1364C10.7339 35.4678 11.7708 35.6335 12.8977 35.6335C14.1383 35.6335 15.2415 35.4394 16.2074 35.0511C17.1828 34.6534 17.9498 34.1042 18.5085 33.4034C19.0672 32.6932 19.3466 31.8646 19.3466 30.9176C19.3466 30.0559 19.1004 29.3504 18.608 28.8011C18.125 28.2519 17.4669 27.7973 16.6335 27.4375C15.8097 27.0777 14.8769 26.7604 13.8352 26.4858L10.3977 25.5483C8.06818 24.9138 6.22159 23.9811 4.85795 22.75C3.50379 21.5189 2.8267 19.8902 2.8267 17.8636C2.8267 16.1875 3.28125 14.7244 4.19034 13.4744C5.09943 12.2244 6.33049 11.2538 7.88352 10.5625C9.43655 9.86174 11.1884 9.51136 13.1392 9.51136C15.1089 9.51136 16.8466 9.85701 18.3523 10.5483C19.8674 11.2396 21.0606 12.1913 21.9318 13.4034C22.803 14.6061 23.2576 15.9886 23.2955 17.5511H19.0625ZM53.1001 19.3693H48.6683C48.4979 18.4223 48.1806 17.589 47.7166 16.8693C47.2526 16.1496 46.6844 15.5388 46.0121 15.0369C45.3397 14.535 44.5869 14.1562 43.7536 13.9006C42.9297 13.6449 42.0537 13.517 41.1257 13.517C39.4496 13.517 37.9486 13.9384 36.6229 14.7812C35.3066 15.6241 34.2649 16.8598 33.4979 18.4886C32.7403 20.1174 32.3615 22.1061 32.3615 24.4545C32.3615 26.822 32.7403 28.8201 33.4979 30.4489C34.2649 32.0777 35.3113 33.3087 36.6371 34.142C37.9628 34.9754 39.4543 35.392 41.1115 35.392C42.0301 35.392 42.9013 35.2689 43.7251 35.0227C44.5585 34.767 45.3113 34.393 45.9837 33.9006C46.656 33.4081 47.2242 32.8068 47.6882 32.0966C48.1617 31.3769 48.4884 30.553 48.6683 29.625L53.1001 29.6392C52.8634 31.0691 52.4041 32.3854 51.7223 33.5881C51.05 34.7812 50.1835 35.8134 49.1229 36.6847C48.0717 37.5464 46.8691 38.214 45.5149 38.6875C44.1607 39.161 42.6835 39.3977 41.0831 39.3977C38.5642 39.3977 36.3198 38.8011 34.3501 37.608C32.3804 36.4053 30.8274 34.6866 29.6911 32.4517C28.5642 30.2169 28.0007 27.5511 28.0007 24.4545C28.0007 21.3485 28.5689 18.6828 29.7053 16.4574C30.8416 14.2225 32.3946 12.5085 34.3643 11.3153C36.334 10.1127 38.5736 9.51136 41.0831 9.51136C42.6267 9.51136 44.0661 9.7339 45.4013 10.179C46.746 10.6146 47.9534 11.2585 49.0234 12.1108C50.0935 12.9536 50.9789 13.9858 51.6797 15.2074C52.3804 16.4195 52.8539 17.8068 53.1001 19.3693ZM74.2188 17.5511C74.0672 16.2064 73.4422 15.1648 72.3438 14.4261C71.2453 13.678 69.8627 13.304 68.196 13.304C67.0028 13.304 65.9706 13.4934 65.0994 13.8722C64.2282 14.2415 63.5511 14.7528 63.0682 15.4062C62.5947 16.0502 62.358 16.7841 62.358 17.608C62.358 18.2992 62.5189 18.8958 62.8409 19.3977C63.1723 19.8996 63.6032 20.321 64.1335 20.6619C64.6733 20.9934 65.2509 21.2727 65.8665 21.5C66.482 21.7178 67.0739 21.8977 67.642 22.0398L70.483 22.7784C71.411 23.0057 72.3627 23.3134 73.3381 23.7017C74.3134 24.09 75.2178 24.6013 76.0511 25.2358C76.8845 25.8703 77.5568 26.6562 78.0682 27.5938C78.589 28.5312 78.8494 29.6534 78.8494 30.9602C78.8494 32.608 78.4233 34.071 77.571 35.3494C76.7282 36.6278 75.5019 37.6364 73.892 38.375C72.2917 39.1136 70.3551 39.483 68.0824 39.483C65.9044 39.483 64.0199 39.1373 62.429 38.446C60.8381 37.7547 59.5928 36.7746 58.6932 35.5057C57.7936 34.2273 57.2964 32.7121 57.2017 30.9602H61.6051C61.6903 32.0114 62.0313 32.8873 62.6278 33.5881C63.2339 34.2794 64.0057 34.7955 64.9432 35.1364C65.8902 35.4678 66.9271 35.6335 68.054 35.6335C69.2945 35.6335 70.3977 35.4394 71.3636 35.0511C72.339 34.6534 73.1061 34.1042 73.6648 33.4034C74.2235 32.6932 74.5028 31.8646 74.5028 30.9176C74.5028 30.0559 74.2566 29.3504 73.7642 28.8011C73.2813 28.2519 72.6231 27.7973 71.7898 27.4375C70.9659 27.0777 70.0331 26.7604 68.9915 26.4858L65.554 25.5483C63.2244 24.9138 61.3778 23.9811 60.0142 22.75C58.66 21.5189 57.983 19.8902 57.983 17.8636C57.983 16.1875 58.4375 14.7244 59.3466 13.4744C60.2557 12.2244 61.4867 11.2538 63.0398 10.5625C64.5928 9.86174 66.3447 9.51136 68.2955 9.51136C70.2652 9.51136 72.0028 9.85701 73.5085 10.5483C75.0237 11.2396 76.2169 12.1913 77.0881 13.4034C77.9593 14.6061 78.4138 15.9886 78.4517 17.5511H74.2188ZM84.0945 39V9.90909H102.333V13.6875H88.4837V22.5511H101.381V26.3153H88.4837V35.2216H102.504V39H84.0945ZM117.347 13.6875V9.90909H139.862V13.6875H130.785V39H126.41V13.6875H117.347ZM168.857 24.4545C168.857 27.5606 168.288 30.2311 167.152 32.4659C166.016 34.6913 164.458 36.4053 162.479 37.608C160.509 38.8011 158.269 39.3977 155.76 39.3977C153.241 39.3977 150.992 38.8011 149.013 37.608C147.043 36.4053 145.49 34.6866 144.354 32.4517C143.217 30.2169 142.649 27.5511 142.649 24.4545C142.649 21.3485 143.217 18.6828 144.354 16.4574C145.49 14.2225 147.043 12.5085 149.013 11.3153C150.992 10.1127 153.241 9.51136 155.76 9.51136C158.269 9.51136 160.509 10.1127 162.479 11.3153C164.458 12.5085 166.016 14.2225 167.152 16.4574C168.288 18.6828 168.857 21.3485 168.857 24.4545ZM164.51 24.4545C164.51 22.0871 164.126 20.0937 163.359 18.4744C162.602 16.8456 161.56 15.6146 160.234 14.7812C158.918 13.9384 157.427 13.517 155.76 13.517C154.084 13.517 152.588 13.9384 151.271 14.7812C149.955 15.6146 148.913 16.8456 148.146 18.4744C147.389 20.0937 147.01 22.0871 147.01 24.4545C147.01 26.822 147.389 28.8201 148.146 30.4489C148.913 32.0682 149.955 33.2992 151.271 34.142C152.588 34.9754 154.084 35.392 155.76 35.392C157.427 35.392 158.918 34.9754 160.234 34.142C161.56 33.2992 162.602 32.0682 163.359 30.4489C164.126 28.8201 164.51 26.822 164.51 24.4545ZM174.329 39V9.90909H184.698C186.961 9.90909 188.836 10.321 190.323 11.1449C191.81 11.9687 192.923 13.0956 193.661 14.5256C194.4 15.946 194.769 17.5464 194.769 19.3267C194.769 21.1165 194.395 22.7263 193.647 24.1562C192.908 25.5767 191.791 26.7036 190.295 27.5369C188.808 28.3608 186.938 28.7727 184.684 28.7727H177.553V25.0511H184.286C185.716 25.0511 186.876 24.8049 187.766 24.3125C188.656 23.8106 189.31 23.1288 189.727 22.267C190.143 21.4053 190.352 20.4252 190.352 19.3267C190.352 18.2282 190.143 17.2528 189.727 16.4006C189.31 15.5483 188.652 14.8807 187.752 14.3977C186.862 13.9148 185.688 13.6733 184.229 13.6733H178.718V39H174.329ZM210.103 39V35.8182L219.947 25.6193C220.998 24.5114 221.864 23.5407 222.546 22.7074C223.237 21.8646 223.754 21.0644 224.094 20.3068C224.435 19.5492 224.606 18.7443 224.606 17.892C224.606 16.9261 224.379 16.0928 223.924 15.392C223.469 14.6818 222.849 14.1373 222.063 13.7585C221.277 13.3703 220.392 13.1761 219.407 13.1761C218.365 13.1761 217.456 13.3892 216.68 13.8153C215.903 14.2415 215.307 14.8428 214.89 15.6193C214.473 16.3958 214.265 17.3049 214.265 18.3466H210.075C210.075 16.5758 210.482 15.0275 211.296 13.7017C212.111 12.3759 213.228 11.3485 214.648 10.6193C216.069 9.88068 217.683 9.51136 219.492 9.51136C221.32 9.51136 222.93 9.87595 224.322 10.6051C225.723 11.3248 226.817 12.3097 227.603 13.5597C228.389 14.8002 228.782 16.2017 228.782 17.7642C228.782 18.8438 228.578 19.8996 228.171 20.9318C227.773 21.964 227.077 23.1146 226.083 24.3835C225.089 25.643 223.706 27.1723 221.935 28.9716L216.154 35.0227V35.2358H229.251V39H210.103ZM244.762 39.483C242.518 39.4735 240.6 38.8816 239.009 37.7074C237.418 36.5331 236.201 34.8239 235.359 32.5795C234.516 30.3352 234.094 27.6316 234.094 24.4688C234.094 21.3153 234.516 18.6212 235.359 16.3864C236.211 14.1515 237.433 12.447 239.023 11.2727C240.624 10.0985 242.537 9.51136 244.762 9.51136C246.987 9.51136 248.896 10.1032 250.487 11.2869C252.077 12.4612 253.294 14.1657 254.137 16.4006C254.989 18.6259 255.415 21.3153 255.415 24.4688C255.415 27.6411 254.994 30.3494 254.151 32.5938C253.308 34.8286 252.092 36.5379 250.501 37.7216C248.91 38.8958 246.997 39.483 244.762 39.483ZM244.762 35.6903C246.732 35.6903 248.271 34.7292 249.379 32.8068C250.496 30.8845 251.055 28.1051 251.055 24.4688C251.055 22.054 250.799 20.0133 250.288 18.3466C249.786 16.6705 249.061 15.4015 248.114 14.5398C247.177 13.6686 246.059 13.233 244.762 13.233C242.802 13.233 241.263 14.1989 240.146 16.1307C239.028 18.0625 238.465 20.8419 238.455 24.4688C238.455 26.893 238.706 28.9432 239.208 30.6193C239.719 32.286 240.444 33.5502 241.381 34.4119C242.319 35.2642 243.446 35.6903 244.762 35.6903ZM260.455 39V35.8182L270.298 25.6193C271.349 24.5114 272.216 23.5407 272.898 22.7074C273.589 21.8646 274.105 21.0644 274.446 20.3068C274.787 19.5492 274.957 18.7443 274.957 17.892C274.957 16.9261 274.73 16.0928 274.276 15.392C273.821 14.6818 273.201 14.1373 272.415 13.7585C271.629 13.3703 270.743 13.1761 269.759 13.1761C268.717 13.1761 267.808 13.3892 267.031 13.8153C266.255 14.2415 265.658 14.8428 265.241 15.6193C264.825 16.3958 264.616 17.3049 264.616 18.3466H260.426C260.426 16.5758 260.833 15.0275 261.648 13.7017C262.462 12.3759 263.58 11.3485 265 10.6193C266.42 9.88068 268.035 9.51136 269.844 9.51136C271.671 9.51136 273.281 9.87595 274.673 10.6051C276.075 11.3248 277.169 12.3097 277.955 13.5597C278.741 14.8002 279.134 16.2017 279.134 17.7642C279.134 18.8438 278.93 19.8996 278.523 20.9318C278.125 21.964 277.429 23.1146 276.435 24.3835C275.44 25.643 274.058 27.1723 272.287 28.9716L266.506 35.0227V35.2358H279.602V39H260.455ZM284.986 39V35.8182L294.83 25.6193C295.881 24.5114 296.747 23.5407 297.429 22.7074C298.12 21.8646 298.636 21.0644 298.977 20.3068C299.318 19.5492 299.489 18.7443 299.489 17.892C299.489 16.9261 299.261 16.0928 298.807 15.392C298.352 14.6818 297.732 14.1373 296.946 13.7585C296.16 13.3703 295.275 13.1761 294.29 13.1761C293.248 13.1761 292.339 13.3892 291.562 13.8153C290.786 14.2415 290.189 14.8428 289.773 15.6193C289.356 16.3958 289.148 17.3049 289.148 18.3466H284.957C284.957 16.5758 285.365 15.0275 286.179 13.7017C286.993 12.3759 288.111 11.3485 289.531 10.6193C290.952 9.88068 292.566 9.51136 294.375 9.51136C296.203 9.51136 297.813 9.87595 299.205 10.6051C300.606 11.3248 301.7 12.3097 302.486 13.5597C303.272 14.8002 303.665 16.2017 303.665 17.7642C303.665 18.8438 303.461 19.8996 303.054 20.9318C302.656 21.964 301.96 23.1146 300.966 24.3835C299.972 25.643 298.589 27.1723 296.818 28.9716L291.037 35.0227V35.2358H304.134V39H284.986Z" fill="#E8E8E8"/>

  <g class="logo">
<path class="br_jap" d="M619.864 254.59C618.099 256.235 616.416 257.791 614.747 259.367C607.595 266.097 600.174 272.526 592.594 278.769C580.785 288.496 568.56 297.672 556.022 306.438C543.816 314.976 531.368 323.126 518.676 330.887C514.799 333.269 510.814 333.563 506.765 331.29C505.22 330.369 503.891 329.127 502.869 327.647C496.088 318.477 489.316 309.299 482.552 300.112C481.426 298.588 480.255 297.102 479.219 295.521C476.699 291.678 476.577 287.651 478.714 283.597C479.692 281.843 481.138 280.395 482.891 279.416C488.719 275.907 494.585 272.475 500.348 268.863C518.208 257.767 535.256 245.414 551.365 231.896C557.487 226.716 563.43 221.311 569.328 215.887C576.586 209.12 583.489 201.982 590.009 194.5C590.303 194.233 590.507 193.882 590.592 193.494C590.678 193.106 590.642 192.702 590.489 192.336C590.235 191.576 590.193 190.761 590.368 189.979C590.542 189.197 590.927 188.477 591.481 187.898C592.715 186.464 594.001 185.074 595.216 183.627C596.988 181.507 598.748 179.375 600.449 177.223C601.071 176.383 601.89 175.71 602.834 175.263C603.778 174.816 604.818 174.61 605.861 174.662C626.421 174.709 646.985 174.709 667.554 174.662C669.761 174.662 671.616 175.168 672.742 177.223C673.868 179.279 673.292 181.066 672.102 182.852C669.908 186.239 667.752 189.652 665.552 193.04C665.402 193.213 665.303 193.424 665.266 193.65C665.229 193.876 665.255 194.108 665.341 194.321C666.115 196.152 665.68 197.811 664.599 199.386C662.859 201.947 661.144 204.457 659.423 206.993C659.308 207.16 659.219 207.345 659.04 207.633C659.948 208.427 660.856 209.228 661.765 210.015C670.397 217.546 679.024 225.076 687.647 232.607C688.288 233.188 689.131 233.494 689.995 233.458C699.463 233.433 708.926 233.433 718.385 233.458C718.846 233.458 719.306 233.458 719.767 233.458C722.671 233.567 724.558 235.379 724.66 238.293C724.724 240.131 724.66 241.975 724.66 243.819C724.66 246.118 724.66 248.41 724.66 250.895C725.108 250.895 725.646 250.953 726.183 250.959C730.84 250.959 735.491 250.959 740.148 250.959C740.811 250.946 741.474 251.004 742.124 251.132C743.085 251.323 743.958 251.818 744.614 252.545C745.271 253.272 745.677 254.191 745.771 255.166C745.814 255.521 745.836 255.878 745.835 256.235C745.835 259.616 745.783 262.991 745.835 266.372C745.878 267.063 745.773 267.755 745.529 268.403C745.284 269.05 744.905 269.639 744.417 270.128C743.928 270.618 743.341 270.998 742.694 271.244C742.047 271.489 741.356 271.595 740.666 271.552C737.602 271.437 734.525 271.552 731.46 271.552H729.541C730.13 272.193 730.475 272.59 730.821 272.961C735.503 277.61 740.218 282.227 744.894 286.901C746.473 288.452 747.538 290.45 747.944 292.627C748.351 294.803 748.079 297.052 747.165 299.068C746.589 300.319 745.806 301.465 744.849 302.455C739.386 308.135 733.847 313.732 728.339 319.367C724.5 323.279 720.611 327.128 716.901 331.143C712.308 336.112 704.657 335.491 700.512 331.143C693.903 324.157 687.078 317.343 680.271 310.581C672.957 303.358 665.567 296.212 658.099 289.143C645.915 277.616 633.469 266.381 620.76 255.435C620.562 255.108 620.293 254.91 619.864 254.59ZM661.042 196.094C660.229 196.056 659.763 196.011 659.264 196.011C638.337 196.011 617.414 196.011 596.496 196.011C595.997 195.989 595.499 196.087 595.046 196.297C594.593 196.508 594.197 196.825 593.892 197.221C581.639 211.122 568.327 224.051 554.077 235.892C533.664 252.976 511.773 267.947 488.872 281.465C487.593 282.221 486.313 282.919 485.034 283.725C483.918 284.376 483.032 285.358 482.499 286.535C481.966 287.712 481.812 289.027 482.059 290.295C482.32 291.555 482.897 292.727 483.735 293.702C489.633 301.681 495.527 309.666 501.417 317.657C503.336 320.219 505.165 322.78 507.078 325.303C508.741 327.506 510.961 328.46 513.68 327.864C514.666 327.607 515.602 327.187 516.45 326.622C533.082 316.421 549.299 305.657 565.016 294.112C583.926 280.229 602.016 265.36 618.809 248.955C619.09 248.679 619.41 248.436 619.73 248.167C620.146 248.506 620.51 248.807 620.849 249.089C629.21 256.472 637.642 263.779 645.913 271.251C662.206 285.979 677.962 301.245 693.411 316.844C696.936 320.404 700.448 324.009 703.928 327.602C705.023 328.838 706.535 329.627 708.175 329.817C709.171 329.928 710.179 329.801 711.116 329.447C712.053 329.093 712.893 328.522 713.568 327.781C717.747 323.512 721.927 319.228 726.106 314.929C731.185 309.73 736.265 304.534 741.344 299.343C742.362 298.394 743.05 297.145 743.308 295.777C743.509 294.689 743.429 293.568 743.074 292.521C742.719 291.474 742.101 290.536 741.28 289.796C733.966 282.637 726.665 275.469 719.376 268.293C718.967 267.883 718.57 267.461 718.167 267.051C718.219 266.948 718.27 266.852 718.315 266.756H741.082V255.608H692.08C691.517 255.608 690.954 255.608 690.392 255.563C690.227 255.568 690.062 255.537 689.91 255.473C689.758 255.409 689.622 255.313 689.51 255.191C689.397 255.07 689.313 254.926 689.261 254.77C689.209 254.613 689.191 254.447 689.208 254.282C689.208 253.514 689.208 252.746 689.208 251.977C689.208 249.371 689.253 249.32 691.863 249.32H719.92V238.107H718.001C708.13 238.107 698.26 238.107 688.383 238.107C687.371 238.148 686.385 237.786 685.638 237.102C675.002 227.817 664.341 218.555 653.653 209.317C653.289 208.997 652.93 208.677 652.591 208.351L661.042 196.094ZM668.642 179.311C668.002 179.279 667.656 179.253 667.311 179.247C646.904 179.247 626.498 179.247 606.091 179.247C605.721 179.227 605.351 179.301 605.016 179.461C604.68 179.621 604.391 179.862 604.172 180.163C601.383 183.556 598.53 186.905 595.703 190.274C595.527 190.538 595.373 190.817 595.242 191.106H659.084C659.443 191.106 659.801 191.106 660.159 191.106C660.437 191.145 660.721 191.098 660.971 190.971C661.221 190.844 661.427 190.643 661.56 190.395C662.948 188.244 664.381 186.131 665.763 183.992C666.684 182.538 667.58 181.053 668.642 179.337V179.311Z" fill="#E8E8E8"/>
<path class="bl_jap" d="M210.076 193.789C210.134 194 210.179 194.193 210.249 194.385C210.606 195.271 210.678 196.247 210.455 197.176C210.233 198.106 209.727 198.943 209.008 199.571C207.012 201.492 205.029 203.413 202.995 205.264C197.408 210.387 191.619 215.256 185.627 219.87C181.539 223.008 176.217 223.322 172.193 220.459C170.823 219.39 169.561 218.189 168.425 216.873C165.515 213.787 162.668 210.649 159.777 207.537C159.508 207.243 159.188 206.999 158.708 206.57C158.542 207.736 158.388 208.715 158.267 209.695C156.687 222.304 154.429 234.765 150.155 246.778C145.701 259.339 139.476 271.199 131.668 281.996C127.295 287.987 122.518 293.672 117.371 299.01C108.996 307.784 99.8287 315.762 89.9848 322.844C82.3896 328.304 74.4869 333.322 66.3158 337.873C65.0028 338.673 63.545 339.207 62.0259 339.443C60.5068 339.679 58.956 339.614 57.4623 339.25C54.8139 338.609 52.8372 336.97 51.1356 334.902C43.8856 326.103 36.6208 317.311 29.3409 308.526C27.94 306.835 26.5262 305.151 25.1381 303.442C23.6613 301.68 22.7597 299.508 22.555 297.218C22.3502 294.928 22.8521 292.63 23.993 290.635C25.0639 288.756 26.6665 287.236 28.5989 286.268C33.4798 283.706 38.3927 281.177 43.1841 278.436C52.247 273.356 60.701 267.256 68.382 260.257C79.6792 249.787 88.2448 237.493 92.9786 222.694C94.6574 217.109 95.8475 211.389 96.5354 205.597C96.9576 202.511 97.2391 199.399 97.6485 196.306C97.7636 195.409 98.2882 194.551 98.2882 193.661C98.2882 192.771 97.7636 191.99 97.7892 191.157C97.8596 188.66 98.0963 186.163 98.2626 183.659C98.3586 182.231 98.4353 180.803 98.5377 179.375C98.7488 176.493 100.642 174.7 103.534 174.63C103.994 174.63 104.455 174.63 104.916 174.63H215.866C216.529 174.604 217.193 174.617 217.855 174.668C218.704 174.725 219.522 175.012 220.22 175.5C220.918 175.987 221.469 176.656 221.815 177.435C222.21 178.192 222.368 179.05 222.27 179.898C222.172 180.746 221.822 181.546 221.265 182.192C219.985 183.761 218.54 185.241 217.113 186.707C214.797 189.051 212.431 191.407 210.076 193.789ZM102.465 196.094C102.414 196.575 102.376 196.92 102.331 197.266C101.73 201.883 101.218 206.513 100.521 211.11C98.7977 222.689 94.6728 233.778 88.4112 243.665C81.5599 254.551 72.7512 263.567 62.5543 271.303C52.9921 278.437 42.78 284.655 32.0533 289.873C31.4583 290.167 30.8506 290.443 30.2877 290.795C29.5648 291.235 28.9377 291.816 28.444 292.504C27.9502 293.192 27.5998 293.973 27.4135 294.799C27.2273 295.625 27.2091 296.481 27.36 297.314C27.5109 298.148 27.8278 298.942 28.2918 299.651C28.6637 300.203 29.0696 300.731 29.5072 301.232L43.6831 318.4C47.4637 322.972 51.2636 327.531 55.0186 332.129C56.6819 334.172 58.7673 335.126 61.3581 334.69C62.3614 334.494 63.3199 334.114 64.1856 333.57C70.0837 329.99 76.0713 326.526 81.803 322.684C96.8933 312.709 110.441 300.573 122.015 286.665C135.282 270.592 144.622 252.521 149.522 232.235C152.081 221.516 153.552 210.617 154.582 199.661C154.691 198.515 154.768 197.369 154.864 196.146L102.465 196.094ZM102.465 191.112H203.961C204.367 191.148 204.776 191.148 205.183 191.112C205.577 191.055 205.953 190.908 206.283 190.683C206.931 190.186 207.543 189.643 208.113 189.057C210.987 186.146 213.846 183.219 216.691 180.278C216.92 179.993 217.134 179.696 217.331 179.388H103.348C103.041 183.287 102.785 187.085 102.491 191.119L102.465 191.112ZM155.644 196.107L160.269 201.115C164.662 205.845 169.042 210.575 173.409 215.305C174.207 216.244 175.243 216.952 176.409 217.354C177.486 217.694 178.633 217.755 179.74 217.531C180.848 217.307 181.881 216.805 182.742 216.073C190.442 210.149 197.81 203.804 204.812 197.068C205.042 196.844 205.227 196.562 205.567 196.146L155.644 196.107Z" fill="#E8E8E8"/>
<path class="tl_jap" d="M131.393 115.04C89.6458 115.04 47.903 115.04 6.16446 115.04C5.30552 115.061 4.44697 114.984 3.60564 114.809C2.651 114.587 1.79183 114.066 1.15242 113.322C0.513014 112.579 0.12653 111.651 0.0488894 110.673C0.0146782 110.315 -0.000274519 109.956 0.00410542 109.597C0.00410542 100.594 0.00410542 91.586 0.00410542 82.5743C-0.0397633 80.9831 0.268399 79.4019 0.90652 77.944C1.54464 76.486 2.49694 75.1873 3.69521 74.1409C5.40301 72.5663 7.59146 71.6142 9.90673 71.4387C10.7255 71.3811 11.5444 71.3747 12.3632 71.3747C91.6566 71.3747 170.948 71.3747 250.237 71.3747C251.565 71.3278 252.893 71.4331 254.197 71.6884C259.154 72.841 262.513 77.1698 262.513 82.4654C262.564 86.4547 262.513 90.4505 262.513 94.4398C262.513 99.4089 262.513 104.374 262.513 109.334C262.513 113.221 260.677 115.046 256.756 115.046L131.393 115.04ZM4.81469 110.288H257.849V108.687C257.849 100.192 257.849 91.697 257.849 83.2018C257.856 82.691 257.837 82.1802 257.792 81.6714C257.693 80.4361 257.215 79.2617 256.422 78.3099C255.629 77.3581 254.561 76.6757 253.365 76.3565C252.316 76.1214 251.241 76.0224 250.167 76.062C170.886 76.062 91.6118 76.062 12.344 76.062C11.7811 76.062 11.2181 76.062 10.6552 76.062C9.42159 76.1277 8.23576 76.5609 7.24983 77.3059C6.2639 78.0509 5.52284 79.0738 5.12174 80.2434C4.87881 81.0228 4.75586 81.8347 4.7571 82.6511C4.7571 91.4558 4.7571 100.254 4.7571 109.059C4.73151 109.417 4.7827 109.77 4.81469 110.288Z" fill="#E8E8E8"/>
<path class="bm2_jap" d="M460.597 184.997C460.597 186.63 460.597 188.269 460.597 189.902C460.597 191.183 460.073 192.303 459.919 193.482C459.766 194.66 460.456 195.87 460.412 197.055C460.297 200.526 460.041 203.996 459.772 207.46C459.215 214.607 458.397 221.714 457.213 228.784C455.294 240.47 452.492 251.913 447.579 262.76C442.574 273.881 435.908 284.176 427.812 293.292C418.722 303.538 408.359 312.278 397.215 320.186C385.633 328.248 373.597 335.637 361.168 342.317C359.777 343.133 358.239 343.666 356.642 343.886C355.044 344.106 353.42 344.008 351.86 343.597C349.37 342.904 347.202 341.358 345.732 339.23C337.857 328.581 329.963 317.939 322.152 307.213C319.306 303.32 318.954 299.106 321.308 294.816C322.511 292.639 324.43 291.224 326.611 290.097C331.607 287.535 336.616 284.974 341.529 282.233C351.912 276.47 361.897 270.067 370.853 262.191C379.809 254.314 387.006 245.004 391.637 233.881C394.074 228.035 395.411 221.9 396.403 215.676C397.452 209.106 398.177 202.502 398.578 195.864C399.41 194.096 398.725 192.316 398.712 190.53C398.712 187.93 398.949 185.324 399.07 182.718C399.122 181.642 399.147 180.572 399.179 179.516C399.269 176.692 401.214 174.643 404.035 174.636C421.371 174.611 438.709 174.611 456.049 174.636C458.972 174.636 460.885 176.679 460.911 179.631C460.911 181.418 460.911 183.211 460.911 184.997H460.597ZM403.42 196.126C403.35 196.767 403.261 197.343 403.222 197.9C402.722 205.456 401.791 212.978 400.433 220.427C399.105 228.102 396.563 235.517 392.904 242.391C387.3 252.707 379.688 261.307 370.616 268.677C362.463 275.198 353.758 280.996 344.6 286.005C339.284 288.963 333.859 291.717 328.46 294.528C327.598 294.922 326.83 295.495 326.207 296.21C325.584 296.924 325.12 297.763 324.846 298.671C324.206 300.931 324.846 302.891 326.202 304.716C333.964 315.205 341.706 325.704 349.429 336.214C350.405 337.673 351.906 338.698 353.618 339.078C355.33 339.457 357.122 339.161 358.622 338.251C368.077 333.045 377.423 327.666 386.443 321.723C397.522 314.423 408.109 306.49 417.616 297.173C435.092 280.024 446.473 259.591 451.168 235.469C453.464 223.2 454.96 210.793 455.646 198.329C455.691 197.631 455.646 196.927 455.646 196.133L403.42 196.126ZM456.266 179.356H403.996C403.809 183.24 403.623 187.098 403.44 190.927C405.359 191.26 454.558 191.176 455.825 190.824C455.972 187.066 456.113 183.287 456.266 179.356Z" fill="#E8E8E8"/>
<path class="tr_jap" d="M511.108 115.04C510.292 115.057 509.477 114.984 508.677 114.822C507.661 114.619 506.747 114.07 506.09 113.267C505.434 112.465 505.075 111.46 505.076 110.423C505.037 104.436 504.961 98.4484 505.121 92.4932C505.255 87.2552 509.97 82.7408 515.19 82.5102C515.906 82.4782 516.622 82.5102 517.339 82.5102C572.622 82.5102 627.905 82.5102 683.189 82.5102C684.414 82.4634 685.641 82.5493 686.848 82.7664C689.242 83.3045 691.382 84.6404 692.918 86.5553C694.455 88.4701 695.296 90.8505 695.305 93.3064C695.407 98.9286 695.368 104.564 695.305 110.192C695.305 113.035 693.296 114.956 690.449 115.084C689.893 115.084 689.323 115.084 688.767 115.084L511.108 115.04ZM509.726 110.288H690.494C690.56 109.965 690.607 109.638 690.635 109.309C690.635 104.088 690.635 98.8667 690.635 93.6458C690.635 89.5156 687.263 87.1399 683.796 87.1463C628.095 87.189 572.394 87.189 516.693 87.1463C512.304 87.1463 509.605 90.348 509.694 94.1517C509.816 99.0119 509.694 103.872 509.694 108.732L509.726 110.288Z" fill="#E8E8E8"/>
<path class="bm1_jap" d="M340.064 174.617C340.576 174.617 341.088 174.617 341.599 174.617C344.21 174.739 346.212 176.538 346.276 179.17C346.384 183.159 346.461 187.162 346.237 191.138C346.141 192.784 345.751 194.378 346.301 196.005C346.34 196.257 346.34 196.514 346.301 196.767C346.301 209.305 346.301 221.84 346.301 234.374C346.339 235.836 346.079 237.291 345.54 238.65C345 240.009 344.19 241.245 343.16 242.282C342.171 243.325 340.98 244.155 339.661 244.723C338.341 245.291 336.92 245.585 335.484 245.586C332.72 245.618 329.963 245.586 327.2 245.586C317.073 245.586 306.953 245.625 296.827 245.586C292.061 245.586 288.702 243.198 286.694 238.908C286.062 237.391 285.774 235.753 285.849 234.112C285.849 222.043 285.849 209.971 285.849 197.894C285.77 197.182 285.787 196.462 285.9 195.755C286.323 194.257 286.009 192.822 285.932 191.337C285.734 187.251 285.805 183.153 285.888 179.061C285.925 177.89 286.411 176.777 287.244 175.954C288.077 175.13 289.195 174.659 290.366 174.636C291.28 174.585 292.202 174.636 293.123 174.636L340.064 174.617ZM290.622 196.133C290.59 196.671 290.538 197.119 290.538 197.567C290.538 209.798 290.538 222.026 290.538 234.252C290.538 238.325 293.18 240.944 297.287 240.95C309.768 240.95 322.236 240.95 334.716 240.95C335.635 240.996 336.553 240.849 337.412 240.519C338.271 240.189 339.052 239.683 339.704 239.034C340.357 238.385 340.867 237.607 341.202 236.75C341.537 235.892 341.69 234.974 341.651 234.054C341.555 221.926 341.619 209.804 341.612 197.676C341.612 197.183 341.561 196.69 341.529 196.133H290.622ZM290.583 191.01H341.42C341.734 189.211 341.651 180.406 341.324 179.362C338.088 179.068 291.747 179.202 290.583 179.516V191.01Z" fill="#E8E8E8"/>
<path class="tm2_jap" d="M430.32 115.04C421.987 115.04 413.649 115.04 405.308 115.04C404.551 115.045 403.796 114.955 403.062 114.771C402.058 114.524 401.164 113.95 400.522 113.138C399.88 112.326 399.527 111.324 399.518 110.288C399.518 110.032 399.518 109.776 399.518 109.52V61.1868C399.518 56.3202 401.828 52.8944 406.19 50.9413C407.499 50.3652 408.912 50.0623 410.342 50.0512C423.639 49.9829 436.939 49.9829 450.24 50.0512C451.678 50.046 453.101 50.327 454.429 50.8779C455.757 51.4287 456.961 52.2384 457.974 53.2598C458.986 54.2812 459.785 55.4939 460.324 56.8273C460.863 58.1607 461.132 59.5882 461.115 61.0267C461.173 67.0139 461.115 73.0011 461.115 78.9883V108.931C461.115 109.392 461.115 109.853 461.115 110.314C461.089 111.531 460.607 112.695 459.765 113.573C458.922 114.452 457.781 114.982 456.567 115.059C456.062 115.104 455.544 115.059 455.032 115.059L430.32 115.04ZM404.188 110.25H456.388V80.1025C456.388 73.8144 456.388 67.5198 456.388 61.2316C456.388 57.3896 453.829 54.7962 449.991 54.6489C449.633 54.6489 449.274 54.6489 448.916 54.6489H411.615C411.155 54.6489 410.694 54.6489 410.24 54.6489C407.566 54.9242 405.583 56.2113 404.649 58.7663C404.325 59.7884 404.176 60.8578 404.207 61.9296C404.182 77.4259 404.182 92.9265 404.207 108.431L404.188 110.25Z" fill="#E8E8E8"/>
<path class="tm1_jap" d="M315.947 115.04C307.815 115.04 299.686 115.04 291.562 115.04C290.848 115.053 290.135 114.982 289.438 114.828C288.459 114.598 287.582 114.054 286.94 113.278C286.299 112.502 285.93 111.538 285.888 110.532C285.888 110.231 285.888 109.923 285.888 109.616C285.888 97.283 285.888 84.9563 285.888 72.6297C285.83 71.0132 286.129 69.4039 286.764 67.9163C287.399 66.4288 288.353 65.0996 289.56 64.0235C291.335 62.3667 293.641 61.3953 296.065 61.2829C296.577 61.2829 297.089 61.2508 297.601 61.2508H334.569C336.26 61.15 337.952 61.421 339.527 62.0449C343.64 63.9339 345.969 67.1036 346.314 71.65C346.359 72.2135 346.314 72.777 346.314 73.3405V109.097C346.314 109.456 346.314 109.814 346.314 110.173C346.313 111.444 345.816 112.663 344.929 113.572C344.043 114.481 342.836 115.008 341.568 115.04C341.107 115.04 340.646 115.04 340.186 115.04H315.947ZM290.538 110.25H341.593V73.1996C341.607 72.6375 341.586 72.075 341.529 71.5155C341.432 70.3309 340.983 69.2025 340.24 68.2758C339.497 67.349 338.493 66.6664 337.358 66.3159C336.432 66.0373 335.466 65.9119 334.499 65.9445C324.328 65.9445 314.156 65.9445 303.985 65.9445C301.58 65.9445 299.174 65.9125 296.775 65.9445C295.356 65.9377 293.978 66.4233 292.876 67.3188C291.774 68.2142 291.016 69.4641 290.73 70.856C290.585 71.6089 290.523 72.3755 290.545 73.142C290.545 84.9542 290.545 96.7664 290.545 108.579L290.538 110.25Z" fill="#E8E8E8"/>
<path class="b" d="M175.699 162.995V126.937C176.204 126.899 176.646 126.841 177.093 126.841C181.437 126.841 185.78 126.771 190.124 126.841C191.805 126.871 193.474 127.136 195.082 127.629C198.671 128.775 200.5 131.471 200.909 135.14C200.989 135.902 201.002 136.669 200.948 137.432C200.913 138.747 200.511 140.026 199.787 141.124C199.064 142.221 198.047 143.094 196.854 143.644C196.272 143.938 195.651 144.156 194.794 144.515C194.964 144.61 195.142 144.691 195.325 144.758C200.052 145.987 202.01 150.291 201.396 154.747C200.756 159.39 197.685 162.355 192.996 162.95C192.441 163.034 191.882 163.083 191.32 163.097C186.309 163.097 181.3 163.097 176.294 163.097C176.092 163.084 175.893 163.05 175.699 162.995ZM181.648 157.482H183.35C185.697 157.482 188.045 157.514 190.386 157.424C191.248 157.353 192.094 157.15 192.894 156.822C193.809 156.477 194.553 155.788 194.967 154.901C196.694 151.443 194.615 147.608 190.777 147.409C187.828 147.255 184.866 147.409 181.904 147.409C181.827 147.409 181.744 147.518 181.642 147.601L181.648 157.482ZM181.648 141.684C184.847 141.684 187.898 141.684 190.949 141.684C191.357 141.662 191.758 141.576 192.139 141.428C192.68 141.27 193.179 140.995 193.601 140.622C194.023 140.249 194.359 139.787 194.583 139.27C196.035 135.928 194.18 132.828 190.565 132.572C190.111 132.572 189.651 132.572 189.19 132.572H181.654L181.648 141.684Z" fill="#E8E8E8"/>
<path class="r1" d="M269.128 126.88C269.703 126.848 270.151 126.803 270.599 126.803C274.994 126.803 279.388 126.803 283.789 126.803C284.913 126.795 286.033 126.918 287.129 127.168C288.714 127.517 290.176 128.285 291.365 129.392C292.553 130.499 293.423 131.905 293.884 133.462C294.738 136.004 294.758 138.752 293.942 141.307C293.564 142.643 292.891 143.877 291.972 144.916C291.053 145.956 289.911 146.775 288.632 147.313L287.557 147.8L295.931 162.995C295.533 163.068 295.132 163.12 294.728 163.149C293.193 163.149 291.658 163.104 290.123 163.181C289.723 163.225 289.321 163.133 288.98 162.921C288.638 162.708 288.379 162.387 288.242 162.009C286.092 157.885 283.892 153.787 281.704 149.682C281.461 149.228 281.218 148.786 280.892 148.19H275.032V163.117C272.991 163.206 271.098 163.194 269.128 163.117V126.88ZM275.122 142.427C278.32 142.427 281.391 142.459 284.448 142.427C285.066 142.415 285.669 142.24 286.197 141.919C286.725 141.599 287.159 141.144 287.455 140.602C288.099 139.549 288.389 138.317 288.28 137.087C288.044 134.039 286.259 132.374 283.45 132.559C282.286 132.636 281.109 132.559 279.932 132.559H275.122V142.427Z" fill="#E8E8E8"/>
<path class="n" d="M566.084 153.012V126.937H571.567C571.918 128.103 571.989 161.247 571.624 163.136C569.705 163.136 567.786 163.136 565.867 163.136C565.532 163.071 565.23 162.89 565.016 162.624C564.767 162.295 564.552 161.94 564.376 161.567C560.112 153.998 555.828 146.431 551.525 138.867C551.256 138.38 550.962 137.906 550.616 137.317C550.13 137.874 550.309 138.438 550.309 138.937C550.309 146.357 550.309 153.778 550.309 161.202V163.085H544.814C544.494 161.97 544.411 128.794 544.75 126.892C546.669 126.892 548.588 126.841 550.508 126.931C550.879 126.931 551.326 127.475 551.557 127.866C553.06 130.485 554.518 133.123 555.99 135.761L564.946 151.834L565.701 153.115L566.084 153.012Z" fill="#E8E8E8"/>
<path class="r2" d="M426.143 147.819C428.932 152.884 431.689 157.879 434.574 163.11C433.448 163.11 432.553 163.161 431.657 163.168C430.761 163.174 429.706 163.117 428.74 163.168C428.339 163.229 427.929 163.149 427.579 162.943C427.23 162.736 426.962 162.415 426.821 162.034C424.799 158.128 422.74 154.244 420.641 150.38C419.183 147.691 420.098 148.254 416.963 148.19C415.901 148.19 414.846 148.19 413.649 148.19V163.085C411.621 163.213 409.722 163.168 407.758 163.085V126.803H409.344C413.637 126.803 417.935 126.771 422.228 126.803C423.453 126.793 424.676 126.933 425.868 127.219C429.827 128.276 432.073 131.01 432.84 134.954C433.235 136.922 433.168 138.954 432.642 140.89C432.295 142.31 431.62 143.628 430.673 144.74C429.725 145.852 428.531 146.726 427.185 147.294C426.878 147.473 426.559 147.627 426.143 147.819ZM413.694 142.427C416.931 142.427 419.989 142.466 423.04 142.427C423.731 142.405 424.4 142.183 424.967 141.789C425.535 141.395 425.976 140.845 426.239 140.205C426.886 138.857 427.029 137.321 426.642 135.876C426.117 133.718 424.723 132.611 422.458 132.585C419.861 132.585 417.257 132.585 414.66 132.585C414.324 132.611 413.99 132.663 413.662 132.739L413.694 142.427Z" fill="#E8E8E8"/>
<path class="d1" d="M316.139 127.033C316.264 126.965 316.397 126.913 316.536 126.88C321.231 126.931 325.946 126.758 330.609 127.091C337.409 127.584 341.676 132.335 341.791 139.161C341.86 143.05 341.86 146.935 341.791 150.816C341.676 157.68 337.314 162.399 330.469 162.982C327.622 163.219 324.75 163.149 321.89 163.187C320.009 163.187 318.129 163.187 316.286 163.187C315.979 161.913 315.864 129.499 316.139 127.033ZM322.082 157.424C324.481 157.424 326.675 157.456 328.869 157.424C329.585 157.394 330.295 157.273 330.98 157.065C332.285 156.758 333.45 156.025 334.292 154.982C335.135 153.938 335.606 152.644 335.631 151.302C335.733 147.108 335.74 142.914 335.631 138.726C335.604 137.378 335.122 136.078 334.264 135.039C333.406 134 332.221 133.281 330.904 133.001C330.01 132.788 329.097 132.67 328.179 132.649C326.547 132.598 324.91 132.649 323.278 132.649C322.888 132.649 322.498 132.713 322.089 132.752L322.082 157.424Z" fill="#E8E8E8"/>
<path class="d2" d="M594.071 163.174V126.841H595.613C598.984 126.841 602.362 126.841 605.733 126.841C607.885 126.805 610.026 127.148 612.06 127.853C616.467 129.479 618.905 132.694 619.544 137.285C619.716 138.706 619.789 140.138 619.762 141.569C619.762 144.995 619.89 148.44 619.608 151.847C619.065 158.372 614.83 162.502 608.26 162.963C604.646 163.219 601.006 163.11 597.385 163.161C596.342 163.181 595.274 163.174 594.071 163.174ZM600.091 132.624C599.765 135.082 599.88 156.316 600.219 157.418C602.445 157.418 604.697 157.533 606.929 157.418C611.132 157.149 613.544 154.671 613.64 150.534C613.723 146.858 613.723 143.17 613.64 139.494C613.544 135.46 611.222 132.976 607.243 132.681C604.876 132.483 602.522 132.624 600.091 132.624Z" fill="#E8E8E8"/>
<path class="o" d="M247.653 144.867C247.531 147.524 247.589 150.15 247.256 152.724C246.456 158.903 241.678 163.136 235.434 163.277C233.8 163.356 232.163 163.2 230.573 162.816C225.647 161.484 222.832 158.096 221.815 153.159C221.619 152.155 221.518 151.135 221.514 150.111C221.482 146.583 221.412 143.068 221.514 139.52C221.553 137.779 221.846 136.053 222.384 134.397C223.984 129.755 227.412 127.174 232.204 126.451C234.337 126.089 236.524 126.216 238.601 126.822C243.546 128.327 246.45 131.733 247.205 136.779C247.614 139.494 247.531 142.229 247.653 144.867ZM241.39 144.867C241.39 142.946 241.448 140.98 241.39 139.04C241.243 135.114 238.703 132.431 235.076 132.265C231.027 132.079 228.11 134.237 227.847 138.303C227.558 142.836 227.593 147.383 227.95 151.911C228.218 155.349 230.969 157.386 234.404 157.437C237.84 157.488 240.494 155.471 241.192 152.052C241.321 151.4 241.389 150.737 241.396 150.073C241.409 148.344 241.39 146.609 241.39 144.867Z" fill="#E8E8E8"/>
<path class="e" d="M387.127 132.624H369.356V142.229H384.313V147.902H369.363V157.398H387.07V162.88C385.95 163.213 365.179 163.283 363.401 162.95V126.937H387.07C387.223 128.788 387.07 130.6 387.127 132.624Z" fill="#E8E8E8"/>
<path class="a" d="M512.061 126.841L525.674 163.117C524.497 163.117 523.499 163.161 522.476 163.168C521.452 163.174 520.435 163.168 519.277 163.168C518.465 160.875 517.665 158.628 516.853 156.323H502.92L500.553 163.072H494.31C494.36 162.712 494.437 162.357 494.54 162.009C498.783 150.671 503.027 139.332 507.27 127.994C507.583 127.161 507.974 126.713 508.92 126.816C509.867 126.918 510.955 126.841 512.061 126.841ZM510.053 136.574H509.733C508.159 141.14 506.579 145.706 504.916 150.528C508.332 150.528 511.498 150.566 514.883 150.489L510.053 136.574Z" fill="#E8E8E8"/>
<path class="l" d="M478.298 163.072H454.878C454.571 161.926 454.494 128.781 454.795 126.944H460.552V157.418H478.266L478.298 163.072Z" fill="#E8E8E8"/>
<path class="br2_jap" d="M765.576 250.786C767.412 250.786 769.254 250.786 771.097 250.786C773.911 250.837 775.869 252.643 775.933 255.454C776.022 259.181 776.022 262.921 775.933 266.647C775.869 269.439 773.905 271.303 771.09 271.341C767.361 271.392 763.631 271.399 759.902 271.341C759.283 271.364 758.667 271.262 758.089 271.041C757.511 270.819 756.984 270.483 756.539 270.052C756.095 269.622 755.742 269.105 755.502 268.534C755.262 267.964 755.139 267.35 755.142 266.731C755.044 262.944 755.044 259.16 755.142 255.377C755.213 252.65 757.17 250.85 759.902 250.799C761.789 250.754 763.682 250.786 765.576 250.786ZM771.193 255.518H759.908V266.571H771.193V255.518Z" fill="#E8E8E8"/>
</g>
</svg>
