<svg width="298" height="92" viewBox="0 0 298 92" fill="none" xmlns="http://www.w3.org/2000/svg">
<rect width="297.198" height="92" fill="#72AFB4" fill-opacity="0.69"/>
<path d="M55.3637 22.046V56.552H61.7357V27.878H73.2377V22.046H55.3637ZM98.7188 60.6436C98.7188 62.2432 98.3584 63.5439 97.6377 64.5459C96.917 65.5479 95.9854 66.3564 94.8428 66.9717C93.7178 67.5869 92.4521 68.0088 91.0459 68.2373C89.6572 68.4834 88.2949 68.6064 86.959 68.6064C84.7266 68.6064 82.5029 68.2812 80.2881 67.6309C78.0732 66.9805 76.1572 66.1279 74.54 65.0732L76.8076 60.5908C78.7412 61.7158 80.5078 62.5156 82.1074 62.9902C83.7246 63.4473 85.3418 63.6758 86.959 63.6758C89.1562 63.6758 90.7559 63.4473 91.7578 62.9902C92.7598 62.5156 93.2607 61.8652 93.2607 61.0391C93.2607 60.6348 93.1201 60.3008 92.8389 60.0371C92.5576 59.7734 92.0918 59.5361 91.4414 59.3252C90.791 59.0967 89.9297 58.877 88.8574 58.666C87.8027 58.4375 86.4844 58.2002 84.9023 57.9541C83.6367 57.7432 82.4326 57.4883 81.29 57.1895C80.165 56.873 79.1719 56.4336 78.3105 55.8711C77.4492 55.3086 76.7549 54.5967 76.2275 53.7354C75.7178 52.874 75.4629 51.793 75.4629 50.4922C75.4629 49.1738 75.7969 48.0312 76.4648 47.0645C77.1504 46.0801 78.0381 45.2715 79.1279 44.6387C80.2354 44.0059 81.4746 43.5488 82.8457 43.2676C84.2168 42.9863 85.5879 42.8457 86.959 42.8457C88.8926 42.8457 90.7646 43.1006 92.5752 43.6104C94.4033 44.1025 96.0029 44.8145 97.374 45.7461L95.2119 49.9648C93.8408 49.1035 92.5049 48.5234 91.2041 48.2246C89.9209 47.9082 88.5059 47.75 86.959 47.75C86.3086 47.75 85.6318 47.7852 84.9287 47.8555C84.2256 47.9258 83.5752 48.0664 82.9775 48.2773C82.3799 48.4707 81.8789 48.7432 81.4746 49.0947C81.0879 49.4287 80.8945 49.8418 80.8945 50.334C80.8945 50.9844 81.4658 51.5205 82.6084 51.9424C83.7686 52.3467 85.7373 52.751 88.5146 53.1553C90.0264 53.3662 91.4062 53.6387 92.6543 53.9727C93.9023 54.2891 94.9746 54.7285 95.8711 55.291C96.7676 55.8359 97.4619 56.5479 97.9541 57.4268C98.4639 58.2881 98.7188 59.3604 98.7188 60.6436ZM129.12 60.1689C128.839 62.7529 127.819 64.8096 126.062 66.3389C124.321 67.8506 122.142 68.6064 119.522 68.6064C118.081 68.6064 116.763 68.3691 115.567 67.8945C114.372 67.4199 113.353 66.7607 112.509 65.917C111.665 65.0732 111.006 64.0625 110.531 62.8848C110.074 61.6895 109.846 60.3887 109.846 58.9824V48.3564H104.282V43.4258H109.846V33.5908H115.304V43.4258H125.613V48.3564H115.304V58.9824C115.304 60.5645 115.69 61.7422 116.464 62.5156C117.237 63.2891 118.257 63.6758 119.522 63.6758C121.069 63.6758 122.221 63.2275 122.977 62.3311C123.732 61.4346 124.181 60.3535 124.321 59.0879L129.12 60.1689ZM133.655 60.9336C133.655 59.4922 134.042 58.2354 134.815 57.1631C135.589 56.0732 136.6 55.168 137.848 54.4473C139.113 53.7266 140.555 53.1904 142.172 52.8389C143.807 52.4697 145.468 52.2852 147.155 52.2852C148.087 52.2852 148.887 52.3027 149.555 52.3379C150.223 52.373 150.899 52.4258 151.585 52.4961V51.5205C151.585 50.2373 151.084 49.2793 150.082 48.6465C149.098 48.0137 147.797 47.6973 146.18 47.6973C144.703 47.6973 143.2 47.9082 141.671 48.3301C140.142 48.7344 138.691 49.332 137.32 50.123L135.105 45.8516C136.723 44.9199 138.454 44.1904 140.3 43.6631C142.163 43.1182 144.123 42.8457 146.18 42.8457C147.516 42.8457 148.825 42.9951 150.108 43.2939C151.409 43.5928 152.569 44.085 153.589 44.7705C154.626 45.4561 155.452 46.3525 156.067 47.46C156.683 48.5498 156.99 49.9033 156.99 51.5205V68H151.585V64.3877C150.724 65.7236 149.449 66.7607 147.762 67.499C146.092 68.2373 144.29 68.6064 142.356 68.6064C141.161 68.6064 140.027 68.4395 138.955 68.1055C137.9 67.7891 136.986 67.3057 136.213 66.6553C135.439 66.0049 134.815 65.2051 134.341 64.2559C133.884 63.2891 133.655 62.1816 133.655 60.9336ZM143.754 63.7285C144.826 63.7285 145.828 63.5967 146.76 63.333C147.709 63.0518 148.544 62.6738 149.265 62.1992C149.985 61.707 150.548 61.1182 150.952 60.4326C151.374 59.7471 151.585 58.9912 151.585 58.165V57.2422C150.724 57.1016 149.915 57.0225 149.159 57.0049C148.403 56.9873 147.735 56.9785 147.155 56.9785C144.483 56.9785 142.462 57.3301 141.091 58.0332C139.737 58.7363 139.061 59.6064 139.061 60.6436C139.061 62.7002 140.625 63.7285 143.754 63.7285ZM187.207 49.2529C186.557 48.9365 185.889 48.6992 185.203 48.541C184.535 48.3652 183.762 48.2773 182.883 48.2773C181.67 48.2773 180.527 48.4619 179.455 48.8311C178.4 49.1826 177.486 49.7188 176.713 50.4395C175.939 51.1602 175.333 52.0654 174.894 53.1553C174.472 54.2275 174.261 55.502 174.261 56.9785V63.0957H179.771V68H163.239V63.0957H168.803V48.3564H163.239V43.4258H174.261V49.5957C175.157 47.1348 176.476 45.3945 178.216 44.375C179.974 43.3555 182.057 42.8457 184.465 42.8457C185.221 42.8457 186.012 42.9248 186.838 43.083C187.664 43.2412 188.473 43.5225 189.264 43.9268L187.207 49.2529ZM217.556 60.1689C217.274 62.7529 216.255 64.8096 214.497 66.3389C212.757 67.8506 210.577 68.6064 207.958 68.6064C206.517 68.6064 205.198 68.3691 204.003 67.8945C202.808 67.4199 201.788 66.7607 200.944 65.917C200.101 65.0732 199.441 64.0625 198.967 62.8848C198.51 61.6895 198.281 60.3887 198.281 58.9824V48.3564H192.718V43.4258H198.281V33.5908H203.739V43.4258H214.049V48.3564H203.739V58.9824C203.739 60.5645 204.126 61.7422 204.899 62.5156C205.673 63.2891 206.692 63.6758 207.958 63.6758C209.505 63.6758 210.656 63.2275 211.412 62.3311C212.168 61.4346 212.616 60.3535 212.757 59.0879L217.556 60.1689ZM241.582 72.968V38.462H235.21V67.136H223.708V72.968H241.582Z" fill="#E8E8E8"/>
</svg>
