<svg width="340" height="230" viewBox="0 0 340 230" fill="none" xmlns="http://www.w3.org/2000/svg">
<rect x="0.5" y="229.5" width="229" height="339" rx="11.5" transform="rotate(-90 0.5 229.5)" fill="#FFF3E1" stroke="#FF1647"/>
<path d="M176.707 76.9495C176.97 77.2317 177.218 77.5005 177.47 77.7673C178.546 78.9101 179.574 80.0959 180.572 81.3072C182.127 83.1942 183.594 85.1476 184.995 87.1512C186.36 89.1015 187.663 91.0908 188.904 93.1188C189.284 93.7383 189.332 94.3751 188.968 95.0222C188.821 95.269 188.622 95.4813 188.386 95.6447C186.92 96.7282 185.452 97.8104 183.984 98.8912C183.74 99.0711 183.503 99.2582 183.25 99.4238C182.636 99.8265 181.992 99.8459 181.344 99.5045C181.063 99.3482 180.832 99.1171 180.675 98.837C180.114 97.9058 179.566 96.9684 178.988 96.0474C177.214 93.1936 175.24 90.4693 173.079 87.8953C172.25 86.9171 171.386 85.9674 170.519 85.025C169.438 83.8652 168.296 82.7621 167.1 81.7202C167.058 81.6733 167.001 81.6407 166.94 81.627C166.878 81.6132 166.813 81.619 166.754 81.6435C166.633 81.6841 166.503 81.6908 166.378 81.6629C166.253 81.635 166.137 81.5735 166.045 81.4851C165.816 81.2878 165.593 81.0823 165.362 80.8881C165.023 80.6049 164.682 80.3238 164.338 80.0519C164.204 79.9526 164.096 79.8217 164.025 79.6708C163.954 79.52 163.921 79.3538 163.929 79.1871C163.936 75.9018 163.936 72.6157 163.929 69.329C163.929 68.9763 164.01 68.6799 164.338 68.5C164.667 68.3201 164.953 68.4121 165.238 68.6022C165.78 68.9528 166.325 69.2973 166.867 69.6489C166.895 69.6729 166.928 69.6887 166.965 69.6946C167.001 69.7006 167.038 69.6964 167.072 69.6827C167.364 69.559 167.63 69.6285 167.881 69.8013C168.291 70.0793 168.692 70.3532 169.098 70.6282C169.124 70.6466 169.154 70.6609 169.2 70.6895C169.327 70.5444 169.455 70.3992 169.581 70.2541C170.785 68.8748 171.988 67.4962 173.192 66.1182C173.285 66.0159 173.334 65.8811 173.328 65.7431C173.324 64.2302 173.324 62.718 173.328 61.2065C173.328 61.1329 173.328 61.0593 173.328 60.9857C173.346 60.5217 173.635 60.2201 174.101 60.2038C174.395 60.1935 174.69 60.2038 174.985 60.2038C175.352 60.2038 175.719 60.2038 176.116 60.2038C176.116 60.1322 176.125 60.0463 176.126 59.9605C176.126 59.2163 176.126 58.4732 176.126 57.729C176.124 57.623 176.133 57.5171 176.154 57.4131C176.184 57.2597 176.263 57.1202 176.38 57.0152C176.496 56.9103 176.643 56.8455 176.799 56.8305C176.855 56.8235 176.912 56.8201 176.97 56.8203C177.51 56.8203 178.05 56.8284 178.59 56.8203C178.701 56.8134 178.811 56.83 178.915 56.8691C179.018 56.9082 179.112 56.9687 179.191 57.0468C179.269 57.1249 179.33 57.2188 179.369 57.3221C179.408 57.4254 179.425 57.5359 179.418 57.6462C179.4 58.1358 179.418 58.6275 179.418 59.1171V59.4238C179.521 59.3298 179.584 59.2746 179.643 59.2194C180.387 58.4711 181.125 57.7177 181.872 56.9705C182.12 56.7182 182.439 56.548 182.787 56.4831C183.135 56.4182 183.495 56.4617 183.817 56.6076C184.017 56.6997 184.2 56.8248 184.359 56.9777C185.267 57.8506 186.161 58.7359 187.062 59.616C187.688 60.2293 188.303 60.8508 188.945 61.4437C189.739 62.1776 189.64 63.4002 188.945 64.0626C187.828 65.1185 186.739 66.2092 185.658 67.2968C184.503 68.4656 183.36 69.6465 182.23 70.8398C180.388 72.7868 178.591 74.7756 176.842 76.8064C176.789 76.8381 176.758 76.881 176.707 76.9495ZM167.355 70.3696C167.349 70.4994 167.342 70.574 167.342 70.6538C167.342 73.9978 167.342 77.341 167.342 80.6837C167.338 80.7634 167.354 80.8429 167.388 80.9153C167.421 80.9877 167.472 81.051 167.535 81.0997C169.758 83.0577 171.825 85.1848 173.717 87.4619C176.449 90.7238 178.842 94.2218 181.003 97.8813C181.124 98.0857 181.235 98.2901 181.364 98.4946C181.468 98.6729 181.625 98.8145 181.813 98.8997C182.002 98.9848 182.212 99.0094 182.415 98.9699C182.616 98.9282 182.803 98.8361 182.959 98.7021C184.235 97.7596 185.511 96.8178 186.789 95.8767C187.198 95.5701 187.608 95.2777 188.011 94.9721C188.363 94.7063 188.516 94.3516 188.42 93.9171C188.379 93.7596 188.312 93.6101 188.222 93.4745C186.591 90.8168 184.87 88.2255 183.025 85.7139C180.805 82.6923 178.428 79.8015 175.806 77.1182C175.762 77.0732 175.723 77.0221 175.68 76.971C175.734 76.9046 175.782 76.8463 175.827 76.7921C177.007 75.4561 178.175 74.1088 179.37 72.7871C181.725 70.1835 184.165 67.6659 186.659 65.1972C187.228 64.634 187.804 64.0728 188.379 63.5167C188.576 63.3417 188.702 63.1 188.733 62.838C188.75 62.6789 188.73 62.5179 188.674 62.3681C188.617 62.2183 188.526 62.084 188.407 61.9763C187.725 61.3084 187.04 60.6406 186.353 59.9727C185.521 59.1611 184.691 58.3495 183.861 57.5378C183.709 57.3752 183.51 57.2653 183.291 57.224C183.117 57.1918 182.938 57.2047 182.77 57.2614C182.603 57.3182 182.453 57.4169 182.335 57.5481C181.19 58.7168 180.044 59.8835 178.897 61.0481C178.832 61.1135 178.764 61.1769 178.699 61.2413C178.682 61.2331 178.667 61.2249 178.652 61.2178V57.5797H176.869V65.4098C176.869 65.4998 176.869 65.5898 176.862 65.6797C176.863 65.7061 176.858 65.7323 176.848 65.7566C176.837 65.7809 176.822 65.8027 176.803 65.8206C176.783 65.8386 176.76 65.8521 176.735 65.8604C176.71 65.8687 176.684 65.8716 176.657 65.8688C176.535 65.8688 176.412 65.8688 176.289 65.8688C175.872 65.8688 175.864 65.8617 175.864 65.4446V60.9612H174.072V61.2679C174.072 62.8451 174.072 64.4224 174.072 66.0007C174.078 66.1623 174.02 66.3199 173.911 66.4392C172.427 68.1388 170.946 69.8425 169.469 71.5502C169.418 71.6085 169.367 71.6658 169.315 71.7199L167.355 70.3696ZM164.672 69.1552C164.667 69.2574 164.663 69.3126 164.662 69.3678C164.662 72.6287 164.662 75.8895 164.662 79.1503C164.659 79.2096 164.671 79.2687 164.696 79.3223C164.722 79.3758 164.76 79.4221 164.808 79.457C165.351 79.9027 165.886 80.3586 166.425 80.8104C166.467 80.8385 166.512 80.8631 166.558 80.884V70.6824C166.558 70.6252 166.558 70.5679 166.558 70.5107C166.564 70.4662 166.556 70.421 166.536 70.3809C166.516 70.3409 166.484 70.3081 166.444 70.2868C166.1 70.065 165.762 69.836 165.42 69.6152C165.188 69.468 164.951 69.3249 164.676 69.1552H164.672Z" fill="#FF1647"/>
<path d="M166.987 142.431C167.02 142.422 167.051 142.415 167.082 142.403C167.224 142.347 167.38 142.335 167.528 142.371C167.677 142.406 167.811 142.487 167.911 142.602C168.218 142.921 168.525 143.238 168.821 143.563C169.64 144.455 170.418 145.38 171.156 146.338C171.658 146.991 171.708 147.842 171.25 148.485C171.079 148.704 170.887 148.905 170.677 149.087C170.184 149.552 169.682 150.007 169.185 150.469C169.137 150.512 169.099 150.563 169.03 150.639C169.216 150.666 169.373 150.691 169.53 150.71C171.545 150.962 173.537 151.323 175.458 152.006C177.466 152.718 179.362 153.713 181.088 154.96C182.046 155.659 182.954 156.422 183.808 157.245C185.21 158.583 186.486 160.048 187.618 161.621C188.491 162.835 189.293 164.097 190.02 165.403C190.148 165.613 190.234 165.846 190.272 166.089C190.309 166.331 190.299 166.579 190.241 166.818C190.138 167.241 189.876 167.557 189.545 167.829C188.139 168.987 186.733 170.148 185.329 171.312C185.059 171.535 184.789 171.761 184.516 171.983C184.235 172.219 183.887 172.363 183.521 172.396C183.155 172.429 182.788 172.348 182.469 172.166C182.168 171.995 181.926 171.739 181.771 171.43C181.361 170.65 180.957 169.865 180.519 169.099C179.707 167.651 178.731 166.3 177.612 165.073C175.939 163.268 173.973 161.899 171.608 161.143C170.715 160.874 169.8 160.684 168.874 160.574C168.381 160.507 167.883 160.462 167.389 160.396C167.246 160.378 167.109 160.294 166.966 160.294C166.824 160.294 166.699 160.378 166.566 160.374C166.167 160.363 165.767 160.325 165.367 160.298C165.139 160.283 164.911 160.271 164.682 160.254C164.222 160.221 163.935 159.918 163.924 159.456C163.924 159.382 163.924 159.309 163.924 159.235V141.506C163.92 141.4 163.922 141.294 163.93 141.188C163.939 141.052 163.985 140.922 164.063 140.81C164.141 140.699 164.248 140.611 164.372 140.555C164.493 140.492 164.63 140.467 164.766 140.483C164.902 140.498 165.029 140.554 165.133 140.643C165.384 140.848 165.62 141.079 165.855 141.307C166.229 141.677 166.606 142.055 166.987 142.431ZM167.355 159.627C167.432 159.635 167.487 159.641 167.543 159.648C168.281 159.744 169.021 159.826 169.756 159.937C171.607 160.213 173.38 160.872 174.96 161.872C176.7 162.967 178.142 164.375 179.378 166.004C180.519 167.532 181.513 169.164 182.347 170.878C182.394 170.973 182.438 171.07 182.494 171.16C182.565 171.276 182.658 171.376 182.768 171.455C182.878 171.534 183.002 171.59 183.135 171.619C183.267 171.649 183.403 171.652 183.537 171.628C183.67 171.604 183.797 171.553 183.91 171.479C183.998 171.42 184.083 171.355 184.163 171.285L186.907 169.02C187.638 168.416 188.367 167.808 189.102 167.208C189.429 166.943 189.581 166.609 189.512 166.195C189.48 166.035 189.42 165.882 189.333 165.744C188.76 164.801 188.207 163.844 187.592 162.928C185.998 160.517 184.058 158.352 181.834 156.503C179.265 154.383 176.376 152.89 173.133 152.107C171.419 151.698 169.677 151.463 167.925 151.299C167.742 151.281 167.559 151.269 167.363 151.254L167.355 159.627ZM166.559 159.627V143.408C166.564 143.343 166.564 143.278 166.559 143.213C166.55 143.15 166.526 143.09 166.49 143.037C166.411 142.934 166.324 142.836 166.23 142.745C165.765 142.286 165.297 141.829 164.827 141.374C164.781 141.337 164.734 141.303 164.684 141.272V159.486C165.308 159.535 165.915 159.576 166.56 159.623L166.559 159.627ZM167.357 151.129L168.158 150.39C168.914 149.688 169.67 148.988 170.426 148.29C170.576 148.163 170.69 147.997 170.754 147.811C170.808 147.639 170.818 147.456 170.782 147.279C170.746 147.102 170.666 146.937 170.549 146.799C169.602 145.569 168.588 144.391 167.511 143.272C167.475 143.236 167.43 143.206 167.363 143.152L167.357 151.129Z" fill="#FF1647"/>
<path d="M154.398 155.004C154.398 161.675 154.398 168.345 154.398 175.015C154.401 175.152 154.389 175.289 154.361 175.424C154.325 175.576 154.242 175.714 154.123 175.816C154.004 175.918 153.856 175.98 153.699 175.992C153.642 175.998 153.585 176 153.527 175.999C152.088 175.999 150.648 175.999 149.207 175.999C148.953 176.006 148.7 175.957 148.467 175.855C148.234 175.753 148.027 175.601 147.859 175.41C147.608 175.137 147.455 174.787 147.427 174.417C147.418 174.286 147.417 174.155 147.417 174.024C147.417 161.354 147.417 148.684 147.417 136.014C147.41 135.802 147.426 135.589 147.467 135.381C147.651 134.589 148.343 134.052 149.19 134.052C149.828 134.044 150.467 134.052 151.104 134.052C151.899 134.052 152.692 134.052 153.485 134.052C154.107 134.052 154.399 134.345 154.399 134.972L154.398 155.004ZM153.638 175.231V134.797H153.382C152.024 134.797 150.666 134.797 149.308 134.797C149.226 134.796 149.144 134.799 149.063 134.806C148.866 134.822 148.678 134.899 148.526 135.025C148.374 135.152 148.264 135.323 148.213 135.514C148.176 135.681 148.16 135.853 148.166 136.025C148.166 148.693 148.166 161.361 148.166 174.028C148.166 174.117 148.166 174.207 148.166 174.297C148.177 174.494 148.246 174.684 148.365 174.842C148.484 174.999 148.648 175.117 148.835 175.182C148.959 175.22 149.089 175.24 149.22 175.24C150.627 175.24 152.034 175.24 153.441 175.24C153.499 175.244 153.555 175.236 153.638 175.231Z" fill="#FF1647"/>
<path d="M165.581 102.399C165.842 102.399 166.104 102.399 166.365 102.399C166.57 102.399 166.749 102.483 166.938 102.508C167.126 102.532 167.319 102.422 167.509 102.429C168.064 102.447 168.618 102.488 169.172 102.531C170.315 102.62 171.451 102.751 172.581 102.94C174.449 103.247 176.279 103.695 178.013 104.48C179.791 105.279 181.436 106.345 182.894 107.638C184.532 109.091 185.929 110.747 187.193 112.527C188.482 114.378 189.663 116.301 190.731 118.288C190.861 118.51 190.947 118.756 190.982 119.011C191.017 119.266 191.001 119.526 190.936 119.775C190.825 120.173 190.578 120.519 190.237 120.754C188.535 122.013 186.834 123.274 185.119 124.522C184.497 124.977 183.823 125.033 183.137 124.657C182.789 124.465 182.563 124.158 182.383 123.81C181.973 123.011 181.564 122.211 181.126 121.426C180.204 119.767 179.181 118.171 177.922 116.74C176.662 115.309 175.174 114.159 173.396 113.419C172.461 113.029 171.481 112.816 170.486 112.657C169.435 112.49 168.38 112.374 167.318 112.31C167.036 112.177 166.751 112.286 166.466 112.288C166.05 112.288 165.633 112.25 165.217 112.231C165.045 112.223 164.874 112.219 164.705 112.214C164.253 112.199 163.926 111.889 163.925 111.438C163.921 108.668 163.921 105.897 163.925 103.126C163.925 102.659 164.251 102.353 164.723 102.349C165.009 102.349 165.296 102.349 165.581 102.349V102.399ZM167.36 111.536C167.463 111.547 167.555 111.561 167.644 111.568C168.852 111.648 170.054 111.796 171.245 112.013C172.472 112.226 173.657 112.632 174.756 113.216C176.406 114.112 177.78 115.328 178.959 116.778C180.001 118.081 180.928 119.472 181.729 120.935C182.202 121.785 182.642 122.651 183.091 123.514C183.154 123.652 183.246 123.775 183.36 123.874C183.474 123.974 183.608 124.048 183.754 124.092C184.115 124.194 184.428 124.092 184.72 123.875C186.397 122.635 188.075 121.397 189.755 120.163C189.989 120.007 190.152 119.768 190.213 119.494C190.274 119.22 190.226 118.934 190.081 118.694C189.249 117.184 188.389 115.69 187.439 114.249C186.272 112.478 185.003 110.787 183.514 109.268C180.773 106.475 177.506 104.656 173.65 103.906C171.688 103.539 169.705 103.3 167.712 103.191C167.601 103.183 167.488 103.191 167.361 103.191L167.36 111.536ZM164.679 103.091V111.444C165.3 111.474 165.917 111.504 166.529 111.533C166.582 111.226 166.569 103.364 166.513 103.162C165.912 103.138 165.308 103.116 164.679 103.091Z" fill="#FF1647"/>
<path d="M154.398 94.3281C154.4 94.4584 154.389 94.5887 154.363 94.7165C154.33 94.8789 154.242 95.025 154.114 95.1299C153.986 95.2349 153.825 95.2921 153.659 95.292C152.702 95.2981 151.745 95.3104 150.793 95.2849C149.956 95.2634 149.234 94.51 149.197 93.6759C149.192 93.5614 149.197 93.4469 149.197 93.3324C149.197 84.4985 149.197 75.6646 149.197 66.8307C149.19 66.6349 149.203 66.4389 149.238 66.246C149.324 65.8635 149.538 65.5214 149.844 65.2759C150.15 65.0304 150.531 64.896 150.923 64.8946C151.822 64.8783 152.723 64.8844 153.623 64.8946C154.077 64.8946 154.384 65.2156 154.405 65.6705C154.405 65.7594 154.405 65.8504 154.405 65.9393L154.398 94.3281ZM153.638 94.5489V65.6633C153.586 65.6528 153.534 65.6453 153.481 65.6409C152.647 65.6409 151.812 65.6409 150.977 65.6409C150.317 65.6409 149.937 66.1796 149.938 66.7336C149.945 75.6343 149.945 84.535 149.938 93.4357C149.938 94.1369 150.45 94.5683 151.058 94.554C151.835 94.5346 152.612 94.554 153.389 94.554L153.638 94.5489Z" fill="#FF1647"/>
<path d="M163.922 121.66C163.922 121.578 163.922 121.496 163.922 121.415C163.941 120.997 164.229 120.678 164.65 120.667C165.287 120.65 165.927 120.638 166.563 120.673C166.826 120.689 167.081 120.751 167.341 120.663C167.381 120.657 167.422 120.657 167.463 120.663C169.467 120.663 171.471 120.663 173.475 120.663C173.709 120.657 173.941 120.699 174.158 120.785C174.376 120.871 174.573 121.001 174.739 121.165C174.906 121.323 175.038 121.513 175.129 121.724C175.22 121.935 175.267 122.162 175.267 122.392C175.272 122.833 175.267 123.274 175.267 123.715C175.267 125.334 175.273 126.951 175.267 128.569C175.267 129.33 174.885 129.867 174.2 130.188C173.957 130.289 173.695 130.335 173.433 130.323C171.504 130.323 169.574 130.323 167.643 130.323C167.529 130.336 167.414 130.333 167.301 130.315C167.061 130.247 166.832 130.297 166.595 130.31C165.942 130.341 165.286 130.33 164.632 130.317C164.445 130.311 164.267 130.233 164.135 130.1C164.004 129.967 163.928 129.788 163.925 129.601C163.917 129.455 163.925 129.308 163.925 129.161L163.922 121.66ZM167.361 129.56C167.447 129.566 167.519 129.574 167.591 129.574C169.546 129.574 171.501 129.574 173.455 129.574C174.106 129.574 174.525 129.152 174.526 128.495C174.526 126.501 174.526 124.509 174.526 122.514C174.533 122.368 174.51 122.221 174.457 122.084C174.404 121.946 174.324 121.822 174.22 121.717C174.116 121.613 173.992 121.532 173.855 121.478C173.717 121.424 173.571 121.4 173.424 121.406C171.485 121.422 169.547 121.411 167.608 121.412C167.529 121.412 167.45 121.421 167.361 121.426V129.56ZM166.542 129.567V121.443C166.255 121.393 164.847 121.406 164.68 121.458C164.633 121.976 164.655 129.381 164.705 129.567H166.542Z" fill="#FF1647"/>
<path d="M154.398 107.238C154.398 108.569 154.398 109.901 154.398 111.234C154.398 111.355 154.384 111.476 154.355 111.593C154.315 111.754 154.223 111.897 154.094 111.999C153.964 112.102 153.803 112.158 153.638 112.159C153.597 112.159 153.556 112.159 153.515 112.159H145.788C145.01 112.159 144.463 111.79 144.15 111.093C144.058 110.884 144.01 110.658 144.008 110.43C143.997 108.305 143.997 106.18 144.008 104.054C144.007 103.825 144.052 103.597 144.14 103.385C144.228 103.173 144.358 102.98 144.521 102.819C144.684 102.657 144.878 102.529 145.091 102.443C145.305 102.357 145.533 102.314 145.763 102.317C146.72 102.307 147.677 102.317 148.634 102.317H153.421C153.495 102.317 153.568 102.317 153.642 102.317C153.837 102.321 154.023 102.398 154.163 102.532C154.304 102.667 154.388 102.849 154.401 103.043C154.408 103.124 154.401 103.207 154.401 103.289L154.398 107.238ZM153.632 111.413V103.072H148.812C147.807 103.072 146.801 103.072 145.796 103.072C145.181 103.072 144.767 103.481 144.743 104.094C144.743 104.151 144.743 104.209 144.743 104.266V110.226C144.743 110.3 144.743 110.374 144.743 110.446C144.787 110.874 144.993 111.19 145.401 111.34C145.565 111.391 145.736 111.415 145.907 111.41C148.384 111.414 150.862 111.414 153.341 111.41L153.632 111.413Z" fill="#FF1647"/>
<path d="M154.398 125.514C154.398 126.813 154.398 128.112 154.398 129.41C154.4 129.524 154.388 129.638 154.364 129.75C154.327 129.906 154.24 130.046 154.116 130.149C153.992 130.251 153.838 130.31 153.677 130.317C153.629 130.317 153.58 130.317 153.53 130.317C151.559 130.317 149.588 130.317 147.618 130.317C147.359 130.326 147.102 130.278 146.864 130.177C146.626 130.075 146.414 129.923 146.242 129.73C145.977 129.446 145.822 129.078 145.804 128.691C145.804 128.609 145.799 128.527 145.799 128.445V122.538C145.782 122.268 145.826 121.997 145.926 121.746C146.228 121.088 146.734 120.716 147.461 120.661C147.551 120.654 147.641 120.661 147.731 120.661H153.448C153.505 120.661 153.562 120.661 153.62 120.661C153.823 120.661 154.018 120.741 154.163 120.882C154.308 121.024 154.392 121.217 154.398 121.42C154.398 121.493 154.398 121.567 154.398 121.64V125.514ZM153.632 129.574V121.416H147.709C147.619 121.413 147.529 121.417 147.44 121.426C147.25 121.441 147.07 121.513 146.922 121.632C146.773 121.751 146.664 121.911 146.608 122.092C146.564 122.24 146.544 122.395 146.549 122.549C146.549 124.174 146.549 125.8 146.549 127.425C146.549 127.809 146.544 128.194 146.549 128.577C146.548 128.804 146.626 129.024 146.769 129.2C146.912 129.376 147.112 129.498 147.334 129.543C147.454 129.566 147.577 129.576 147.7 129.573C149.588 129.573 151.476 129.573 153.365 129.573L153.632 129.574Z" fill="#FF1647"/>
<path d="M162.064 147.924H156.299C156.293 147.844 156.284 147.773 156.284 147.702C156.284 147.008 156.273 146.313 156.284 145.619C156.289 145.351 156.331 145.084 156.41 144.827C156.593 144.254 157.024 143.961 157.611 143.896C157.733 143.883 157.855 143.881 157.977 143.89C158.187 143.895 158.392 143.96 158.567 144.075C158.743 144.191 158.882 144.353 158.97 144.544C159.017 144.637 159.052 144.736 159.109 144.873C159.125 144.846 159.138 144.818 159.148 144.788C159.345 144.033 160.033 143.72 160.745 143.818C161.487 143.92 161.961 144.411 162.057 145.16C162.07 145.249 162.078 145.339 162.08 145.428C162.08 146.229 162.08 147.029 162.08 147.829C162.078 147.862 162.073 147.893 162.064 147.924ZM161.182 146.974V146.702C161.182 146.327 161.188 145.952 161.173 145.577C161.162 145.44 161.129 145.305 161.077 145.177C161.022 145.031 160.912 144.912 160.77 144.846C160.217 144.57 159.604 144.902 159.572 145.515C159.548 145.986 159.572 146.46 159.572 146.933C159.572 146.945 159.59 146.958 159.603 146.975L161.182 146.974ZM158.657 146.974C158.657 146.463 158.657 145.975 158.657 145.487C158.653 145.422 158.64 145.358 158.616 145.297C158.591 145.211 158.547 145.131 158.487 145.064C158.428 144.996 158.354 144.943 158.271 144.907C157.737 144.675 157.241 144.971 157.2 145.549C157.2 145.621 157.2 145.695 157.2 145.769V146.973L158.657 146.974Z" fill="#FF1647"/>
<path d="M156.29 132.995C156.285 132.903 156.278 132.832 156.278 132.76C156.278 132.058 156.278 131.355 156.278 130.652C156.277 130.473 156.296 130.294 156.336 130.119C156.392 129.865 156.515 129.632 156.692 129.442C156.869 129.252 157.094 129.113 157.343 129.039C157.749 128.903 158.188 128.9 158.597 129.03C158.81 129.09 159.007 129.198 159.174 129.345C159.34 129.492 159.471 129.674 159.557 129.878L159.635 130.05L162.064 128.712C162.076 128.776 162.084 128.84 162.088 128.904C162.088 129.15 162.081 129.395 162.094 129.64C162.101 129.704 162.086 129.768 162.052 129.823C162.018 129.877 161.967 129.919 161.906 129.941C161.247 130.284 160.592 130.636 159.936 130.985C159.863 131.024 159.792 131.063 159.697 131.115V132.052H162.083C162.098 132.378 162.096 132.68 162.083 132.995H156.29ZM158.776 132.037C158.776 131.526 158.781 131.036 158.776 130.547C158.774 130.448 158.746 130.352 158.695 130.268C158.643 130.183 158.571 130.114 158.484 130.066C158.316 129.964 158.119 129.917 157.922 129.935C157.435 129.972 157.169 130.258 157.198 130.706C157.211 130.892 157.198 131.08 157.198 131.269V132.037H158.776Z" fill="#FF1647"/>
<path d="M160.468 85.5432H156.299V84.6672C156.486 84.611 161.784 84.5997 162.086 84.658C162.086 84.9647 162.086 85.2713 162.086 85.578C162.076 85.6315 162.047 85.6797 162.004 85.7139C161.952 85.7538 161.895 85.788 161.836 85.8162C160.626 86.4976 159.416 87.1822 158.207 87.8698C158.129 87.9127 158.053 87.9597 157.959 88.0149C158.048 88.0926 158.138 88.064 158.218 88.064C159.404 88.064 160.59 88.064 161.777 88.064H162.078V88.9421C161.9 88.9932 156.596 89.0065 156.292 88.9523C156.292 88.6456 156.284 88.339 156.298 88.0323C156.298 87.973 156.385 87.9015 156.448 87.8647C156.867 87.6244 157.288 87.3914 157.71 87.1563L160.28 85.7252L160.484 85.6046L160.468 85.5432Z" fill="#FF1647"/>
<path d="M159.638 107.905C160.447 107.459 161.246 107.019 162.082 106.558C162.082 106.738 162.09 106.881 162.091 107.024C162.092 107.167 162.083 107.336 162.091 107.49C162.101 107.554 162.088 107.62 162.055 107.675C162.022 107.731 161.971 107.774 161.91 107.797C161.286 108.12 160.665 108.449 160.047 108.784C159.617 109.017 159.707 108.871 159.697 109.372C159.697 109.542 159.697 109.71 159.697 109.901H162.078C162.099 110.225 162.091 110.529 162.078 110.843H156.278V110.589C156.278 109.903 156.273 109.217 156.278 108.531C156.276 108.335 156.299 108.139 156.345 107.949C156.513 107.316 156.951 106.957 157.581 106.835C157.896 106.772 158.221 106.783 158.53 106.866C158.757 106.922 158.968 107.03 159.146 107.181C159.323 107.333 159.463 107.523 159.554 107.738C159.582 107.787 159.607 107.839 159.638 107.905ZM158.776 109.894C158.776 109.377 158.782 108.888 158.776 108.401C158.772 108.29 158.737 108.184 158.674 108.093C158.611 108.002 158.523 107.932 158.421 107.89C158.205 107.786 157.96 107.763 157.729 107.825C157.384 107.909 157.206 108.132 157.202 108.494C157.202 108.909 157.202 109.325 157.202 109.74C157.207 109.794 157.215 109.847 157.227 109.899L158.776 109.894Z" fill="#FF1647"/>
<path d="M156.315 125.483C156.304 125.463 156.296 125.442 156.29 125.42C156.298 124.669 156.271 123.916 156.324 123.171C156.403 122.084 157.162 121.402 158.254 121.384C158.875 121.373 159.496 121.373 160.117 121.384C161.214 121.402 161.969 122.099 162.062 123.193C162.1 123.648 162.088 124.107 162.095 124.564C162.095 124.864 162.095 125.165 162.095 125.459C161.891 125.508 156.709 125.527 156.315 125.483ZM161.173 124.533C161.173 124.15 161.178 123.799 161.173 123.449C161.168 123.334 161.149 123.221 161.116 123.111C161.067 122.903 160.95 122.717 160.783 122.582C160.616 122.448 160.409 122.372 160.195 122.368C159.524 122.352 158.854 122.351 158.184 122.368C157.969 122.373 157.761 122.45 157.595 122.587C157.429 122.724 157.314 122.913 157.269 123.124C157.235 123.266 157.216 123.412 157.213 123.559C157.204 123.82 157.213 124.081 157.213 124.342C157.213 124.404 157.223 124.467 157.229 124.532L161.173 124.533Z" fill="#FF1647"/>
<path d="M162.092 81.0711H156.284V80.8247C156.284 80.286 156.284 79.7463 156.284 79.2076C156.278 78.8637 156.333 78.5216 156.446 78.1966C156.706 77.4923 157.22 77.1029 157.954 77.0006C158.181 76.9732 158.41 76.9616 158.639 76.9659C159.186 76.9659 159.737 76.9454 160.282 76.9904C161.325 77.0773 161.985 77.754 162.059 78.8038C162.1 79.3814 162.082 79.963 162.09 80.5416C162.094 80.7082 162.092 80.8789 162.092 81.0711ZM157.209 80.1092C157.602 80.1613 160.996 80.1429 161.172 80.0887C161.172 79.733 161.191 79.3732 161.172 79.0164C161.129 78.3449 160.733 77.9595 160.072 77.9441C159.484 77.9308 158.895 77.9308 158.307 77.9441C157.662 77.9595 157.265 78.3305 157.218 78.9663C157.186 79.3446 157.209 79.7207 157.209 80.1092Z" fill="#FF1647"/>
<path d="M159.166 136.427C159.591 136.446 160.01 136.437 160.422 136.49C161.41 136.618 162.086 137.381 162.109 138.379C162.121 138.64 162.097 138.902 162.035 139.156C161.822 139.943 161.281 140.393 160.491 140.555C160.331 140.587 160.168 140.603 160.004 140.603C159.44 140.608 158.878 140.62 158.311 140.603C158.033 140.597 157.757 140.55 157.492 140.464C156.75 140.209 156.337 139.661 156.222 138.895C156.164 138.554 156.184 138.205 156.281 137.873C156.522 137.083 157.066 136.619 157.873 136.498C158.307 136.433 158.744 136.446 159.166 136.427ZM159.166 137.427C158.859 137.427 158.544 137.418 158.234 137.427C157.607 137.451 157.178 137.857 157.151 138.436C157.122 139.083 157.466 139.549 158.117 139.591C158.841 139.638 159.568 139.632 160.292 139.575C160.842 139.532 161.167 139.093 161.175 138.544C161.183 137.995 160.861 137.57 160.314 137.459C160.21 137.438 160.104 137.428 159.998 137.426C159.722 137.424 159.444 137.427 159.166 137.427Z" fill="#FF1647"/>
<path d="M157.209 114.139V116.979H158.744V114.589H159.651V116.978H161.169V114.149H162.045C162.099 114.328 162.11 117.647 162.057 117.931H156.299V114.149C156.595 114.124 156.885 114.149 157.209 114.139Z" fill="#FF1647"/>
<path d="M156.284 94.1758L162.083 92.0005C162.083 92.1886 162.09 92.3481 162.091 92.5116C162.092 92.6752 162.091 92.8377 162.091 93.0227C161.725 93.1525 161.366 93.2803 160.997 93.4101V95.6365L162.076 96.0147V97.0124C162.019 97.0043 161.962 96.992 161.906 96.9756C160.094 96.2975 158.281 95.6195 156.468 94.9414C156.335 94.8913 156.264 94.829 156.28 94.6777C156.296 94.5264 156.284 94.3526 156.284 94.1758ZM157.84 94.4967V94.5478C158.57 94.7993 159.3 95.0518 160.071 95.3176C160.071 94.7717 160.077 94.2657 160.065 93.725L157.84 94.4967Z" fill="#FF1647"/>
<path d="M162.076 99.571V103.313C161.893 103.362 156.594 103.375 156.301 103.327V102.407H161.172V99.5761L162.076 99.571Z" fill="#FF1647"/>
<path d="M176.098 53.6657C176.098 53.3723 176.098 53.0779 176.098 52.7835C176.107 52.3338 176.395 52.021 176.845 52.0107C177.44 51.9964 178.038 51.9964 178.634 52.0107C179.08 52.021 179.378 52.3348 179.384 52.7846C179.393 53.3805 179.394 53.9765 179.384 54.5724C179.388 54.6712 179.372 54.7697 179.336 54.8621C179.301 54.9544 179.247 55.0386 179.178 55.1097C179.11 55.1807 179.027 55.2372 178.936 55.2755C178.845 55.3139 178.746 55.3334 178.647 55.3329C178.042 55.3486 177.437 55.3486 176.832 55.3329C176.396 55.3217 176.109 55.0089 176.101 54.5724C176.093 54.2709 176.098 53.9683 176.098 53.6657ZM176.855 52.7682V54.5714H178.622V52.7682H176.855Z" fill="#FF1647"/>
<path d="M167.355 70.3696L169.312 71.7128C169.363 71.6586 169.415 71.6013 169.467 71.5431C170.947 69.8394 172.427 68.1357 173.909 66.432C174.018 66.3127 174.076 66.1551 174.07 65.9935C174.07 64.4152 174.07 62.838 174.07 61.2607V60.954H175.858V65.4374C175.858 65.8545 175.866 65.8616 176.283 65.8616C176.406 65.8616 176.528 65.8616 176.651 65.8616C176.678 65.8644 176.704 65.8616 176.729 65.8533C176.754 65.845 176.777 65.8314 176.797 65.8135C176.816 65.7956 176.831 65.7737 176.842 65.7494C176.852 65.7251 176.857 65.6989 176.856 65.6725C176.863 65.5826 176.863 65.4926 176.863 65.4027V57.5716H178.645V61.2096C178.661 61.2167 178.676 61.2249 178.692 61.2331C178.758 61.1687 178.826 61.1053 178.891 61.0399C180.037 59.8732 181.183 58.7065 182.329 57.5399C182.447 57.4087 182.597 57.31 182.764 57.2532C182.932 57.1965 183.111 57.1836 183.285 57.2158C183.503 57.2571 183.703 57.367 183.855 57.5296C184.684 58.342 185.515 59.1536 186.347 59.9645C187.029 60.6324 187.714 61.3002 188.401 61.9681C188.52 62.0759 188.611 62.2101 188.667 62.3599C188.724 62.5097 188.744 62.6707 188.727 62.8298C188.696 63.0918 188.57 63.3335 188.372 63.5085C187.798 64.0677 187.222 64.6258 186.653 65.189C184.159 67.6577 181.716 70.1754 179.364 72.7789C178.169 74.1006 177.001 75.4479 175.821 76.7839C175.773 76.8381 175.728 76.8964 175.674 76.9628C175.717 77.0139 175.756 77.065 175.8 77.11C178.422 79.7933 180.799 82.6841 183.019 85.7058C184.861 88.2173 186.585 90.8107 188.216 93.4664C188.306 93.6019 188.373 93.7515 188.414 93.909C188.509 94.3434 188.356 94.6981 188.005 94.9639C187.6 95.2705 187.186 95.567 186.783 95.8685C185.506 96.8103 184.229 97.7521 182.953 98.6939C182.797 98.8279 182.61 98.92 182.408 98.9617C182.206 99.0012 181.995 98.9767 181.807 98.8915C181.619 98.8063 181.462 98.6647 181.358 98.4864C181.229 98.2871 181.118 98.0775 180.997 97.8731C178.836 94.2136 176.442 90.7176 173.711 87.4537C171.818 85.1766 169.752 83.0495 167.529 81.0915C167.466 81.0428 167.415 80.9795 167.382 80.9071C167.348 80.8347 167.332 80.7552 167.336 80.6755C167.342 77.3322 167.342 73.9889 167.336 70.6456C167.346 70.5771 167.355 70.5004 167.355 70.3696Z" fill="white"/>
<path d="M164.676 69.1552C164.951 69.3249 165.188 69.468 165.421 69.6183C165.764 69.8391 166.102 70.068 166.445 70.2898C166.485 70.3111 166.517 70.344 166.537 70.384C166.557 70.424 166.565 70.4693 166.559 70.5137C166.559 70.571 166.559 70.6282 166.559 70.6855V80.8871C166.513 80.8661 166.468 80.8415 166.426 80.8135C165.887 80.3617 165.352 79.9058 164.809 79.4601C164.761 79.4252 164.723 79.3789 164.697 79.3253C164.672 79.2718 164.66 79.2127 164.663 79.1534C164.663 75.8926 164.663 72.6317 164.663 69.3709C164.667 69.3126 164.671 69.2564 164.676 69.1552Z" fill="white"/>
<path d="M167.355 159.627L167.355 151.255C167.551 151.27 167.734 151.282 167.917 151.3C169.669 151.464 171.411 151.698 173.125 152.108C176.371 152.887 179.26 154.38 181.826 156.504C184.049 158.353 185.989 160.518 187.584 162.929C188.198 163.849 188.749 164.802 189.324 165.745C189.411 165.883 189.472 166.036 189.504 166.196C189.575 166.605 189.423 166.944 189.094 167.209C188.359 167.809 187.63 168.417 186.899 169.021L184.157 171.286C184.077 171.356 183.992 171.421 183.904 171.48C183.791 171.554 183.664 171.605 183.53 171.629C183.397 171.653 183.26 171.65 183.128 171.621C182.996 171.591 182.872 171.535 182.762 171.456C182.652 171.377 182.559 171.277 182.488 171.161C182.432 171.071 182.386 170.974 182.341 170.879C181.507 169.165 180.513 167.533 179.372 166.005C178.136 164.376 176.692 162.968 174.954 161.873C173.373 160.873 171.601 160.214 169.75 159.938C169.015 159.827 168.274 159.745 167.536 159.649C167.488 159.637 167.433 159.637 167.355 159.627Z" fill="white"/>
<path d="M166.56 159.623C165.915 159.576 165.306 159.531 164.682 159.486V141.268C164.732 141.299 164.779 141.333 164.825 141.37C165.294 141.827 165.762 142.285 166.229 142.745C166.323 142.836 166.41 142.934 166.489 143.037C166.525 143.09 166.549 143.15 166.558 143.213C166.563 143.278 166.563 143.343 166.558 143.408V159.623H166.56Z" fill="white"/>
<path d="M167.355 151.125V143.152C167.422 143.206 167.467 143.236 167.503 143.272C168.58 144.391 169.594 145.569 170.541 146.799C170.658 146.937 170.738 147.102 170.774 147.279C170.81 147.456 170.8 147.639 170.746 147.811C170.684 147.996 170.573 148.162 170.426 148.29C169.671 148.988 168.916 149.688 168.161 150.389L167.355 151.125Z" fill="white"/>
<path d="M153.638 175.231C153.559 175.236 153.503 175.244 153.447 175.244C152.039 175.244 150.632 175.244 149.225 175.244C149.094 175.244 148.965 175.224 148.84 175.186C148.653 175.122 148.489 175.003 148.37 174.846C148.251 174.688 148.182 174.499 148.171 174.301C148.166 174.212 148.171 174.122 148.171 174.032C148.171 161.364 148.171 148.697 148.171 136.029C148.165 135.857 148.181 135.686 148.219 135.518C148.27 135.327 148.379 135.156 148.531 135.029C148.683 134.903 148.871 134.826 149.068 134.811C149.15 134.803 149.231 134.8 149.313 134.801C150.672 134.801 152.03 134.801 153.387 134.801H153.638L153.638 175.231Z" fill="white"/>
<path d="M167.36 111.536L167.36 103.188C167.487 103.188 167.6 103.181 167.711 103.188C169.704 103.297 171.687 103.536 173.649 103.903C177.505 104.653 180.772 106.472 183.513 109.265C185.002 110.784 186.271 112.475 187.438 114.246C188.388 115.687 189.248 117.181 190.08 118.691C190.225 118.931 190.273 119.217 190.212 119.491C190.151 119.765 189.987 120.004 189.754 120.16C188.07 121.387 186.392 122.624 184.719 123.872C184.427 124.087 184.114 124.192 183.752 124.089C183.607 124.045 183.473 123.971 183.359 123.871C183.245 123.771 183.153 123.649 183.09 123.511C182.641 122.648 182.201 121.781 181.728 120.932C180.927 119.469 180 118.078 178.958 116.775C177.779 115.325 176.405 114.109 174.755 113.213C173.657 112.63 172.472 112.225 171.245 112.013C170.054 111.796 168.852 111.648 167.644 111.568C167.56 111.561 167.467 111.547 167.36 111.536Z" fill="white"/>
<path d="M164.679 103.091C165.303 103.116 165.908 103.138 166.513 103.162C166.569 103.366 166.582 111.223 166.529 111.533C165.915 111.504 165.298 111.474 164.679 111.444V103.091Z" fill="white"/>
<path d="M153.638 94.5489L153.389 94.5489C152.612 94.5489 151.835 94.5346 151.058 94.5489C150.453 94.5632 149.938 94.1318 149.938 93.4306C149.945 84.5292 149.945 75.6285 149.938 66.7285C149.938 66.1744 150.317 65.6378 150.977 65.6357C151.812 65.6357 152.647 65.6357 153.481 65.6357C153.534 65.6402 153.586 65.6477 153.638 65.6582V94.5489Z" fill="white"/>
<path d="M167.361 129.56L167.361 121.43C167.45 121.425 167.529 121.417 167.608 121.417C169.547 121.417 171.485 121.426 173.424 121.41C173.571 121.404 173.717 121.427 173.855 121.48C173.992 121.533 174.116 121.614 174.221 121.718C174.325 121.822 174.406 121.946 174.459 122.083C174.513 122.22 174.537 122.367 174.53 122.513C174.521 124.507 174.53 126.5 174.53 128.494C174.53 129.151 174.11 129.573 173.459 129.573C171.504 129.573 169.549 129.573 167.595 129.573C167.519 129.574 167.447 129.566 167.361 129.56Z" fill="white"/>
<path d="M166.543 129.567H164.701C164.651 129.381 164.629 121.976 164.676 121.458C164.843 121.406 166.251 121.393 166.538 121.443L166.543 129.567Z" fill="white"/>
<path d="M153.632 111.413H153.344C150.866 111.413 148.388 111.413 145.91 111.413C145.739 111.418 145.568 111.394 145.404 111.343C144.995 111.193 144.79 110.877 144.746 110.449C144.739 110.377 144.746 110.303 144.746 110.23V104.273C144.746 104.216 144.746 104.159 144.746 104.101C144.77 103.488 145.182 103.079 145.799 103.079C146.804 103.074 147.81 103.079 148.815 103.079H153.635L153.632 111.413Z" fill="white"/>
<path d="M153.632 129.574H153.364C151.475 129.574 149.586 129.574 147.699 129.574C147.576 129.577 147.453 129.567 147.333 129.544C147.111 129.499 146.911 129.377 146.768 129.201C146.624 129.025 146.547 128.805 146.548 128.578C146.542 128.195 146.548 127.81 146.548 127.426C146.548 125.801 146.548 124.175 146.548 122.55C146.543 122.396 146.563 122.241 146.607 122.093C146.663 121.912 146.772 121.752 146.921 121.633C147.069 121.514 147.249 121.442 147.439 121.427C147.528 121.418 147.618 121.414 147.708 121.417H153.631L153.632 129.574Z" fill="white"/>
<path d="M176.855 52.7682H178.622V54.5714H176.855V52.7682Z" fill="white"/>
<rect x="11" y="116" width="1" height="125" transform="rotate(-90 11 116)" fill="#FF1647" fill-opacity="0.65"/>
<rect x="219" y="115" width="1" height="102" transform="rotate(-90 219 115)" fill="#FF1647" fill-opacity="0.65"/>
<rect x="170" y="223" width="1" height="37" transform="rotate(-180 170 223)" fill="#FF1647" fill-opacity="0.65"/>
<rect x="170" y="43" width="1" height="37" transform="rotate(-180 170 43)" fill="#FF1647" fill-opacity="0.65"/>
<path d="M327.5 145.203H332V145.528H327.5V145.203ZM332.062 142.355C332.062 142.531 332.033 142.692 331.977 142.838C331.918 142.985 331.83 143.112 331.713 143.219C331.594 143.325 331.444 143.407 331.265 143.465C331.083 143.524 330.869 143.553 330.623 143.553H330.257C329.995 143.553 329.771 143.523 329.583 143.462C329.394 143.4 329.239 143.315 329.12 143.207C329.001 143.1 328.913 142.978 328.856 142.841C328.8 142.704 328.771 142.561 328.771 142.411C328.771 142.237 328.8 142.083 328.856 141.951C328.913 141.818 328.999 141.707 329.114 141.62C329.228 141.53 329.372 141.462 329.548 141.417C329.724 141.371 329.931 141.347 330.169 141.347H330.441V143.357H330.137V141.672H330.055C329.848 141.676 329.672 141.705 329.527 141.76C329.381 141.813 329.27 141.893 329.193 142C329.115 142.108 329.076 142.244 329.076 142.408C329.076 142.529 329.099 142.64 329.144 142.742C329.187 142.841 329.255 142.928 329.349 143.002C329.442 143.075 329.564 143.13 329.715 143.169C329.865 143.208 330.046 143.228 330.257 143.228H330.623C330.818 143.228 330.987 143.207 331.13 143.166C331.271 143.123 331.388 143.063 331.481 142.985C331.573 142.905 331.643 142.81 331.689 142.701C331.734 142.591 331.757 142.47 331.757 142.337C331.757 142.175 331.729 142.033 331.672 141.91C331.615 141.787 331.53 141.677 331.417 141.581L331.634 141.409C331.712 141.465 331.783 141.537 331.848 141.622C331.912 141.708 331.964 141.811 332.003 141.93C332.042 142.049 332.062 142.191 332.062 142.355ZM328.83 138.721H329.123V140.075H328.83V138.721ZM328.019 139.589V139.261H331.227C331.373 139.261 331.483 139.245 331.558 139.214C331.632 139.182 331.682 139.141 331.707 139.091C331.73 139.04 331.742 138.986 331.742 138.929C331.742 138.885 331.739 138.843 331.733 138.804C331.728 138.762 331.721 138.725 331.713 138.692L332.012 138.683C332.025 138.719 332.036 138.765 332.044 138.824C332.054 138.883 332.059 138.942 332.059 139.003C332.059 139.114 332.033 139.214 331.982 139.302C331.932 139.389 331.846 139.46 331.725 139.512C331.602 139.563 331.435 139.589 331.224 139.589H328.019ZM328.83 133.834H329.123V135.187H328.83V133.834ZM328.019 134.701V134.373H331.227C331.373 134.373 331.483 134.357 331.558 134.326C331.632 134.295 331.682 134.254 331.707 134.203C331.73 134.152 331.742 134.098 331.742 134.042C331.742 133.997 331.739 133.955 331.733 133.916C331.728 133.875 331.721 133.837 331.713 133.804L332.012 133.796C332.025 133.831 332.036 133.878 332.044 133.936C332.054 133.995 332.059 134.054 332.059 134.115C332.059 134.226 332.033 134.326 331.982 134.414C331.932 134.502 331.846 134.572 331.725 134.625C331.602 134.675 331.435 134.701 331.224 134.701H328.019ZM327.5 131.896H332V132.222H327.5V131.896ZM330.219 131.97L330.134 132.113C329.946 132.107 329.771 132.077 329.606 132.022C329.44 131.968 329.295 131.895 329.17 131.803C329.045 131.709 328.947 131.599 328.877 131.472C328.807 131.345 328.771 131.203 328.771 131.047C328.771 130.916 328.793 130.798 328.836 130.692C328.879 130.587 328.947 130.498 329.041 130.426C329.133 130.354 329.253 130.298 329.401 130.259C329.548 130.22 329.726 130.2 329.935 130.2H332V130.522H329.932C329.715 130.522 329.545 130.547 329.422 130.596C329.297 130.645 329.209 130.715 329.158 130.807C329.107 130.896 329.082 131.005 329.082 131.132C329.082 131.267 329.118 131.386 329.19 131.489C329.263 131.593 329.356 131.68 329.472 131.75C329.587 131.82 329.711 131.874 329.844 131.911C329.975 131.948 330.1 131.968 330.219 131.97ZM332.062 127.39C332.062 127.566 332.033 127.727 331.977 127.873C331.918 128.02 331.83 128.147 331.713 128.254C331.594 128.36 331.444 128.442 331.265 128.5C331.083 128.559 330.869 128.588 330.623 128.588H330.257C329.995 128.588 329.771 128.558 329.583 128.497C329.394 128.435 329.239 128.35 329.12 128.243C329.001 128.135 328.913 128.013 328.856 127.876C328.8 127.74 328.771 127.596 328.771 127.446C328.771 127.272 328.8 127.119 328.856 126.986C328.913 126.853 328.999 126.743 329.114 126.655C329.228 126.565 329.372 126.497 329.548 126.453C329.724 126.406 329.931 126.382 330.169 126.382H330.441V128.392H330.137V126.707H330.055C329.848 126.711 329.672 126.741 329.527 126.795C329.381 126.848 329.27 126.928 329.193 127.036C329.115 127.143 329.076 127.279 329.076 127.443C329.076 127.564 329.099 127.675 329.144 127.777C329.187 127.876 329.255 127.963 329.349 128.038C329.442 128.11 329.564 128.165 329.715 128.204C329.865 128.244 330.046 128.263 330.257 128.263H330.623C330.818 128.263 330.987 128.243 331.13 128.202C331.271 128.159 331.388 128.098 331.481 128.02C331.573 127.94 331.643 127.845 331.689 127.736C331.734 127.626 331.757 127.505 331.757 127.372C331.757 127.21 331.729 127.068 331.672 126.945C331.615 126.822 331.53 126.712 331.417 126.617L331.634 126.444C331.712 126.5 331.783 126.572 331.848 126.658C331.912 126.744 331.964 126.846 332.003 126.965C332.042 127.084 332.062 127.226 332.062 127.39ZM328.83 120.791V120.492H332.079C332.354 120.492 332.579 120.535 332.753 120.621C332.927 120.707 333.055 120.829 333.137 120.987C333.221 121.146 333.263 121.333 333.263 121.55C333.263 121.654 333.245 121.765 333.21 121.884C333.177 122.001 333.127 122.112 333.061 122.218C332.996 122.321 332.918 122.409 332.826 122.482L332.592 122.329C332.715 122.22 332.807 122.102 332.867 121.975C332.93 121.848 332.961 121.714 332.961 121.573C332.961 121.411 332.932 121.274 332.873 121.16C332.816 121.047 332.725 120.961 332.598 120.903C332.471 120.844 332.302 120.815 332.091 120.815H329.527L328.83 120.791ZM330.564 122.654H330.269C330.003 122.654 329.775 122.631 329.586 122.584C329.395 122.537 329.239 122.469 329.12 122.379C328.999 122.287 328.911 122.178 328.856 122.051C328.8 121.924 328.771 121.78 328.771 121.62C328.771 121.466 328.8 121.331 328.856 121.216C328.913 121.099 328.994 120.999 329.1 120.917C329.205 120.835 329.331 120.769 329.478 120.718C329.624 120.667 329.787 120.63 329.967 120.607H330.916C331.082 120.626 331.235 120.661 331.376 120.712C331.517 120.761 331.638 120.827 331.739 120.911C331.841 120.993 331.92 121.094 331.977 121.213C332.033 121.33 332.062 121.468 332.062 121.626C332.062 121.784 332.031 121.927 331.971 122.054C331.91 122.181 331.818 122.289 331.695 122.379C331.572 122.469 331.417 122.537 331.229 122.584C331.042 122.631 330.82 122.654 330.564 122.654ZM330.269 122.326H330.564C330.77 122.326 330.946 122.312 331.095 122.282C331.243 122.251 331.366 122.204 331.464 122.142C331.56 122.079 331.631 122 331.678 121.904C331.725 121.807 331.748 121.692 331.748 121.559C331.748 121.395 331.714 121.257 331.646 121.146C331.575 121.034 331.483 120.946 331.37 120.882C331.255 120.816 331.13 120.766 330.995 120.733H329.908C329.814 120.752 329.72 120.78 329.624 120.818C329.528 120.855 329.439 120.905 329.357 120.97C329.273 121.032 329.207 121.112 329.158 121.207C329.107 121.303 329.082 121.419 329.082 121.556C329.082 121.689 329.106 121.804 329.155 121.902C329.202 121.999 329.274 122.079 329.372 122.142C329.468 122.204 329.59 122.251 329.738 122.282C329.887 122.312 330.063 122.326 330.269 122.326ZM331.432 117.108H329.706C329.558 117.108 329.438 117.133 329.346 117.184C329.252 117.235 329.184 117.309 329.141 117.407C329.098 117.504 329.076 117.626 329.076 117.77C329.076 117.905 329.104 118.024 329.158 118.128C329.211 118.231 329.285 118.312 329.381 118.371C329.475 118.429 329.583 118.459 329.706 118.459L329.703 118.784C329.582 118.784 329.465 118.759 329.352 118.711C329.238 118.66 329.139 118.589 329.053 118.5C328.965 118.41 328.896 118.302 328.848 118.177C328.797 118.05 328.771 117.91 328.771 117.755C328.771 117.568 328.802 117.401 328.862 117.254C328.923 117.108 329.022 116.994 329.161 116.912C329.3 116.828 329.483 116.786 329.712 116.786H331.335C331.444 116.786 331.558 116.779 331.675 116.765C331.792 116.75 331.889 116.728 331.965 116.701H332V117.044C331.93 117.065 331.842 117.082 331.736 117.093C331.631 117.103 331.529 117.108 331.432 117.108ZM330.151 117.038L330.427 117.032V117.594C330.427 117.749 330.443 117.883 330.477 117.999C330.51 118.114 330.558 118.211 330.62 118.289C330.683 118.365 330.758 118.422 330.846 118.462C330.932 118.501 331.028 118.52 331.136 118.52C331.276 118.52 331.392 118.498 331.481 118.453C331.571 118.406 331.638 118.339 331.681 118.254C331.722 118.168 331.742 118.063 331.742 117.94C331.742 117.782 331.71 117.641 331.646 117.518C331.581 117.395 331.496 117.295 331.391 117.216C331.285 117.138 331.173 117.087 331.054 117.064L331.25 116.976C331.34 116.996 331.432 117.032 331.525 117.085C331.619 117.137 331.707 117.206 331.789 117.29C331.869 117.374 331.935 117.473 331.985 117.588C332.036 117.704 332.062 117.835 332.062 117.981C332.062 118.153 332.028 118.304 331.962 118.435C331.896 118.566 331.796 118.668 331.663 118.74C331.528 118.81 331.362 118.845 331.165 118.845C331.019 118.845 330.884 118.82 330.761 118.769C330.638 118.718 330.53 118.643 330.438 118.544C330.347 118.444 330.276 118.319 330.228 118.169C330.177 118.018 330.151 117.843 330.151 117.644V117.038ZM329.483 114.682H332V115.01H328.83V114.696L329.483 114.682ZM330.219 114.743L330.134 114.898C329.946 114.891 329.771 114.862 329.606 114.813C329.44 114.763 329.295 114.692 329.17 114.603C329.045 114.513 328.947 114.404 328.877 114.277C328.807 114.148 328.771 114.002 328.771 113.838C328.771 113.711 328.793 113.595 328.836 113.489C328.877 113.384 328.942 113.293 329.032 113.217C329.12 113.141 329.235 113.083 329.378 113.044C329.521 113.003 329.691 112.982 329.891 112.982H332V113.305H329.902C329.691 113.305 329.527 113.332 329.41 113.387C329.291 113.439 329.207 113.514 329.158 113.609C329.107 113.703 329.082 113.813 329.082 113.94C329.082 114.087 329.118 114.211 329.19 114.312C329.263 114.414 329.356 114.496 329.472 114.559C329.587 114.621 329.711 114.667 329.844 114.696C329.975 114.726 330.1 114.741 330.219 114.743ZM329.943 112.985L329.955 113.202C329.801 113.194 329.653 113.165 329.513 113.114C329.37 113.063 329.243 112.993 329.132 112.903C329.021 112.813 328.933 112.706 328.868 112.581C328.804 112.454 328.771 112.311 328.771 112.15C328.771 112.01 328.794 111.886 328.839 111.778C328.882 111.669 328.95 111.577 329.044 111.503C329.138 111.427 329.258 111.369 329.404 111.33C329.551 111.291 329.727 111.271 329.932 111.271H332V111.6H329.929C329.706 111.6 329.534 111.626 329.413 111.679C329.29 111.731 329.204 111.806 329.155 111.901C329.104 111.995 329.08 112.105 329.082 112.232C329.082 112.355 329.109 112.464 329.164 112.558C329.217 112.649 329.286 112.727 329.372 112.789C329.458 112.85 329.552 112.896 329.653 112.93C329.753 112.961 329.85 112.979 329.943 112.985ZM332.062 108.476C332.062 108.652 332.033 108.813 331.977 108.959C331.918 109.106 331.83 109.233 331.713 109.34C331.594 109.446 331.444 109.528 331.265 109.586C331.083 109.645 330.869 109.674 330.623 109.674H330.257C329.995 109.674 329.771 109.644 329.583 109.583C329.394 109.521 329.239 109.436 329.12 109.329C329.001 109.221 328.913 109.099 328.856 108.962C328.8 108.826 328.771 108.682 328.771 108.532C328.771 108.358 328.8 108.204 328.856 108.072C328.913 107.939 328.999 107.829 329.114 107.741C329.228 107.651 329.372 107.583 329.548 107.538C329.724 107.492 329.931 107.468 330.169 107.468H330.441V109.478H330.137V107.793H330.055C329.848 107.797 329.672 107.827 329.527 107.881C329.381 107.934 329.27 108.014 329.193 108.121C329.115 108.229 329.076 108.365 329.076 108.529C329.076 108.65 329.099 108.761 329.144 108.863C329.187 108.962 329.255 109.049 329.349 109.123C329.442 109.196 329.564 109.251 329.715 109.29C329.865 109.329 330.046 109.349 330.257 109.349H330.623C330.818 109.349 330.987 109.329 331.13 109.287C331.271 109.245 331.388 109.184 331.481 109.106C331.573 109.026 331.643 108.931 331.689 108.822C331.734 108.712 331.757 108.591 331.757 108.458C331.757 108.296 331.729 108.154 331.672 108.031C331.615 107.908 331.53 107.798 331.417 107.703L331.634 107.53C331.712 107.586 331.783 107.658 331.848 107.744C331.912 107.829 331.964 107.932 332.003 108.051C332.042 108.17 332.062 108.312 332.062 108.476ZM331.221 104.283C331.133 104.283 331.053 104.306 330.98 104.353C330.908 104.398 330.837 104.473 330.767 104.579C330.696 104.682 330.62 104.824 330.538 105.004C330.474 105.146 330.411 105.274 330.351 105.388C330.29 105.501 330.226 105.596 330.157 105.675C330.089 105.753 330.012 105.812 329.926 105.853C329.838 105.894 329.734 105.915 329.615 105.915C329.496 105.915 329.386 105.893 329.284 105.85C329.183 105.805 329.094 105.742 329.018 105.66C328.939 105.576 328.879 105.476 328.836 105.361C328.793 105.244 328.771 105.113 328.771 104.969C328.771 104.762 328.812 104.585 328.892 104.438C328.97 104.29 329.078 104.177 329.217 104.098C329.355 104.018 329.516 103.978 329.697 103.978V104.304C329.588 104.304 329.486 104.33 329.393 104.383C329.299 104.433 329.223 104.509 329.164 104.608C329.105 104.706 329.076 104.826 329.076 104.969C329.076 105.115 329.103 105.234 329.155 105.326C329.206 105.418 329.271 105.485 329.352 105.528C329.432 105.569 329.516 105.59 329.604 105.59C329.668 105.59 329.726 105.58 329.776 105.56C329.825 105.539 329.873 105.504 329.92 105.455C329.965 105.404 330.013 105.334 330.063 105.244C330.114 105.154 330.173 105.042 330.239 104.907C330.323 104.71 330.407 104.542 330.491 104.403C330.575 104.263 330.673 104.154 330.784 104.078C330.894 104 331.032 103.961 331.2 103.961C331.331 103.961 331.449 103.984 331.555 104.031C331.66 104.078 331.751 104.145 331.827 104.233C331.901 104.319 331.959 104.423 332 104.544C332.039 104.665 332.059 104.801 332.059 104.951C332.059 105.178 332.017 105.37 331.933 105.528C331.847 105.684 331.733 105.803 331.593 105.883C331.452 105.963 331.3 106.003 331.136 106.003V105.678C331.3 105.67 331.427 105.629 331.517 105.554C331.606 105.478 331.669 105.386 331.704 105.276C331.737 105.167 331.754 105.058 331.754 104.951C331.754 104.806 331.73 104.684 331.684 104.585C331.635 104.485 331.57 104.41 331.49 104.359C331.408 104.308 331.318 104.283 331.221 104.283ZM327.5 100.048V99.7203H331.385L332 99.7467V100.048H327.5ZM330.269 97.8805H330.564C330.82 97.8805 331.042 97.9039 331.229 97.9508C331.417 97.9957 331.572 98.0621 331.695 98.15C331.818 98.2359 331.91 98.3424 331.971 98.4693C332.031 98.5943 332.062 98.7379 332.062 98.9C332.062 99.0582 332.033 99.1969 331.977 99.316C331.92 99.4352 331.841 99.5367 331.739 99.6207C331.638 99.7027 331.518 99.7691 331.379 99.8199C331.238 99.8688 331.084 99.9029 330.916 99.9225H329.967C329.787 99.899 329.624 99.8619 329.478 99.8111C329.331 99.7604 329.205 99.6939 329.1 99.6119C328.994 99.5279 328.913 99.4283 328.856 99.3131C328.8 99.1959 328.771 99.0611 328.771 98.9088C328.771 98.7447 328.8 98.5992 328.856 98.4723C328.911 98.3434 328.999 98.235 329.12 98.1471C329.239 98.0592 329.395 97.9928 329.586 97.9479C329.775 97.9029 330.003 97.8805 330.269 97.8805ZM330.564 98.2086H330.269C330.065 98.2086 329.89 98.2232 329.741 98.2525C329.593 98.2799 329.47 98.3248 329.372 98.3873C329.274 98.4479 329.202 98.527 329.155 98.6246C329.106 98.7203 329.082 98.8365 329.082 98.9732C329.082 99.108 329.107 99.2242 329.158 99.3219C329.207 99.4176 329.272 99.4977 329.354 99.5621C329.437 99.6246 329.525 99.6754 329.621 99.7145C329.717 99.7516 329.812 99.7789 329.905 99.7965H330.992C331.123 99.7691 331.246 99.7223 331.361 99.6559C331.477 99.5875 331.57 99.4967 331.643 99.3834C331.713 99.2701 331.748 99.1314 331.748 98.9674C331.748 98.8346 331.725 98.7213 331.678 98.6275C331.631 98.5318 331.559 98.4527 331.461 98.3902C331.363 98.3277 331.241 98.2818 331.095 98.2525C330.946 98.2232 330.77 98.2086 330.564 98.2086ZM332.062 95.1846C332.062 95.3604 332.033 95.5215 331.977 95.668C331.918 95.8145 331.83 95.9414 331.713 96.0488C331.594 96.1543 331.444 96.2363 331.265 96.2949C331.083 96.3535 330.869 96.3828 330.623 96.3828H330.257C329.995 96.3828 329.771 96.3525 329.583 96.292C329.394 96.2295 329.239 96.1445 329.12 96.0371C329.001 95.9297 328.913 95.8076 328.856 95.6709C328.8 95.5342 328.771 95.3906 328.771 95.2402C328.771 95.0664 328.8 94.9131 328.856 94.7803C328.913 94.6475 328.999 94.5371 329.114 94.4492C329.228 94.3594 329.372 94.292 329.548 94.2471C329.724 94.2002 329.931 94.1768 330.169 94.1768H330.441V96.1865H330.137V94.502H330.055C329.848 94.5059 329.672 94.5352 329.527 94.5898C329.381 94.6426 329.27 94.7227 329.193 94.8301C329.115 94.9375 329.076 95.0732 329.076 95.2373C329.076 95.3584 329.099 95.4697 329.144 95.5713C329.187 95.6709 329.255 95.7578 329.349 95.832C329.442 95.9043 329.564 95.96 329.715 95.999C329.865 96.0381 330.046 96.0576 330.257 96.0576H330.623C330.818 96.0576 330.987 96.0371 331.13 95.9961C331.271 95.9531 331.388 95.8926 331.481 95.8145C331.573 95.7344 331.643 95.6396 331.689 95.5303C331.734 95.4209 331.757 95.2998 331.757 95.167C331.757 95.0049 331.729 94.8623 331.672 94.7393C331.615 94.6162 331.53 94.5068 331.417 94.4111L331.634 94.2383C331.712 94.2949 331.783 94.3662 331.848 94.4521C331.912 94.5381 331.964 94.6406 332.003 94.7598C332.042 94.8789 332.062 95.0205 332.062 95.1846ZM328.83 90.8334V90.5346H332.079C332.354 90.5346 332.579 90.5775 332.753 90.6635C332.927 90.7494 333.055 90.8715 333.137 91.0297C333.221 91.1879 333.263 91.3754 333.263 91.5922C333.263 91.6957 333.245 91.807 333.21 91.9262C333.177 92.0434 333.127 92.1547 333.061 92.2602C332.996 92.3637 332.918 92.4516 332.826 92.5238L332.592 92.3715C332.715 92.2621 332.807 92.1439 332.867 92.017C332.93 91.89 332.961 91.7562 332.961 91.6156C332.961 91.4535 332.932 91.3158 332.873 91.2025C332.816 91.0893 332.725 91.0033 332.598 90.9447C332.471 90.8861 332.302 90.8568 332.091 90.8568H329.527L328.83 90.8334ZM330.564 92.6967H330.269C330.003 92.6967 329.775 92.6732 329.586 92.6264C329.395 92.5795 329.239 92.5111 329.12 92.4213C328.999 92.3295 328.911 92.2201 328.856 92.0932C328.8 91.9662 328.771 91.8227 328.771 91.6625C328.771 91.5082 328.8 91.3734 328.856 91.2582C328.913 91.141 328.994 91.0414 329.1 90.9594C329.205 90.8773 329.331 90.8109 329.478 90.7602C329.624 90.7094 329.787 90.6723 329.967 90.6488H330.916C331.082 90.6684 331.235 90.7035 331.376 90.7543C331.517 90.8031 331.638 90.8695 331.739 90.9535C331.841 91.0355 331.92 91.1361 331.977 91.2553C332.033 91.3725 332.062 91.5102 332.062 91.6684C332.062 91.8266 332.031 91.9691 331.971 92.0961C331.91 92.223 331.818 92.3314 331.695 92.4213C331.572 92.5111 331.417 92.5795 331.229 92.6264C331.042 92.6732 330.82 92.6967 330.564 92.6967ZM330.269 92.3686H330.564C330.77 92.3686 330.946 92.3539 331.095 92.3246C331.243 92.2934 331.366 92.2465 331.464 92.184C331.56 92.1215 331.631 92.0424 331.678 91.9467C331.725 91.849 331.748 91.7338 331.748 91.601C331.748 91.4369 331.714 91.2992 331.646 91.1879C331.575 91.0766 331.483 90.9887 331.37 90.9242C331.255 90.8578 331.13 90.808 330.995 90.7748H329.908C329.814 90.7943 329.72 90.8227 329.624 90.8598C329.528 90.8969 329.439 90.9477 329.357 91.0121C329.273 91.0746 329.207 91.1537 329.158 91.2494C329.107 91.3451 329.082 91.4613 329.082 91.598C329.082 91.7309 329.106 91.8461 329.155 91.9437C329.202 92.0414 329.274 92.1215 329.372 92.184C329.468 92.2465 329.59 92.2934 329.738 92.3246C329.887 92.3539 330.063 92.3686 330.269 92.3686ZM328.83 88.4012H332V88.7264H328.83V88.4012ZM327.916 88.7762C327.848 88.7762 327.791 88.7576 327.746 88.7205C327.699 88.6814 327.676 88.6287 327.676 88.5623C327.676 88.4939 327.699 88.4412 327.746 88.4041C327.791 88.365 327.848 88.3455 327.916 88.3455C327.982 88.3455 328.038 88.365 328.083 88.4041C328.128 88.4412 328.15 88.4939 328.15 88.5623C328.15 88.6287 328.128 88.6814 328.083 88.7205C328.038 88.7576 327.982 88.7762 327.916 88.7762ZM329.507 86.2707H332V86.5959H328.83V86.2883L329.507 86.2707ZM330.219 86.3439L330.134 86.4875C329.946 86.4816 329.771 86.4514 329.606 86.3967C329.44 86.342 329.295 86.2687 329.17 86.177C329.045 86.0832 328.947 85.9729 328.877 85.8459C328.807 85.7189 328.771 85.5773 328.771 85.4211C328.771 85.2902 328.793 85.1721 328.836 85.0666C328.879 84.9611 328.947 84.8723 329.041 84.8C329.133 84.7277 329.253 84.6721 329.401 84.633C329.548 84.5939 329.726 84.5744 329.935 84.5744H332V84.8967H329.932C329.715 84.8967 329.545 84.9211 329.422 84.9699C329.297 85.0187 329.209 85.0891 329.158 85.1809C329.107 85.2707 329.082 85.3791 329.082 85.5061C329.082 85.6408 329.118 85.76 329.19 85.8635C329.263 85.967 329.356 86.0539 329.472 86.1242C329.587 86.1945 329.711 86.2482 329.844 86.2854C329.975 86.3225 330.1 86.342 330.219 86.3439Z" fill="black"/>
<rect x="129.728" y="144.293" width="17" height="17" transform="rotate(-135 129.728 144.293)" stroke="#FF1647" stroke-opacity="0.65"/>
<rect x="115.728" y="158.293" width="17" height="17" transform="rotate(-135 115.728 158.293)" stroke="#FF1647" stroke-opacity="0.65"/>
<rect x="129.728" y="172.293" width="17" height="17" transform="rotate(-135 129.728 172.293)" stroke="#FF1647" stroke-opacity="0.65"/>
<rect x="100.728" y="144.293" width="17" height="17" transform="rotate(-135 100.728 144.293)" stroke="#FF1647" stroke-opacity="0.2"/>
<rect x="86.728" y="158.293" width="17" height="17" transform="rotate(-135 86.728 158.293)" stroke="#FF1647" stroke-opacity="0.2"/>
<rect x="100.728" y="172.293" width="17" height="17" transform="rotate(-135 100.728 172.293)" stroke="#FF1647" stroke-opacity="0.2"/>
<rect x="115.728" y="187.293" width="17" height="17" transform="rotate(-135 115.728 187.293)" stroke="#FF1647" stroke-opacity="0.2"/>
<rect x="101.728" y="201.293" width="17" height="17" transform="rotate(-135 101.728 201.293)" stroke="#FF1647" stroke-opacity="0.2"/>
<rect x="115.728" y="215.293" width="17" height="17" transform="rotate(-135 115.728 215.293)" stroke="#FF1647" stroke-opacity="0.2"/>
<rect x="71.728" y="144.293" width="17" height="17" transform="rotate(-135 71.728 144.293)" stroke="#FF1647" stroke-opacity="0.2"/>
<rect x="57.728" y="158.293" width="17" height="17" transform="rotate(-135 57.728 158.293)" stroke="#FF1647" stroke-opacity="0.2"/>
<rect x="71.728" y="172.293" width="17" height="17" transform="rotate(-135 71.728 172.293)" stroke="#FF1647" stroke-opacity="0.2"/>
<rect x="86.728" y="186.293" width="17" height="17" transform="rotate(-135 86.728 186.293)" stroke="#FF1647" stroke-opacity="0.2"/>
<rect x="72.728" y="200.293" width="17" height="17" transform="rotate(-135 72.728 200.293)" stroke="#FF1647" stroke-opacity="0.2"/>
<rect x="86.728" y="214.293" width="17" height="17" transform="rotate(-135 86.728 214.293)" stroke="#FF1647" stroke-opacity="0.2"/>
<rect x="129.728" y="82.2929" width="17" height="17" transform="rotate(-135 129.728 82.2929)" stroke="#FF1647" stroke-opacity="0.65"/>
<rect x="115.728" y="96.2929" width="17" height="17" transform="rotate(-135 115.728 96.2929)" stroke="#FF1647" stroke-opacity="0.65"/>
<rect x="129.728" y="110.293" width="17" height="17" transform="rotate(-135 129.728 110.293)" stroke="#FF1647" stroke-opacity="0.65"/>
<rect x="101.728" y="82.2929" width="17" height="17" transform="rotate(-135 101.728 82.2929)" stroke="#FF1647" stroke-opacity="0.2"/>
<rect x="87.728" y="96.2929" width="17" height="17" transform="rotate(-135 87.728 96.2929)" stroke="#FF1647" stroke-opacity="0.2"/>
<rect x="101.728" y="110.293" width="17" height="17" transform="rotate(-135 101.728 110.293)" stroke="#FF1647" stroke-opacity="0.2"/>
<rect x="115.728" y="39.2929" width="17" height="17" transform="rotate(-135 115.728 39.2929)" stroke="#FF1647" stroke-opacity="0.2"/>
<rect x="101.728" y="53.2929" width="17" height="17" transform="rotate(-135 101.728 53.2929)" stroke="#FF1647" stroke-opacity="0.2"/>
<rect x="115.728" y="67.2929" width="17" height="17" transform="rotate(-135 115.728 67.2929)" stroke="#FF1647" stroke-opacity="0.2"/>
<rect x="73.728" y="82.2929" width="17" height="17" transform="rotate(-135 73.728 82.2929)" stroke="#FF1647" stroke-opacity="0.2"/>
<rect x="59.728" y="96.2929" width="17" height="17" transform="rotate(-135 59.728 96.2929)" stroke="#FF1647" stroke-opacity="0.2"/>
<rect x="73.728" y="110.293" width="17" height="17" transform="rotate(-135 73.728 110.293)" stroke="#FF1647" stroke-opacity="0.2"/>
<rect x="86.728" y="39.2929" width="17" height="17" transform="rotate(-135 86.728 39.2929)" stroke="#FF1647" stroke-opacity="0.2"/>
<rect x="72.728" y="53.2929" width="17" height="17" transform="rotate(-135 72.728 53.2929)" stroke="#FF1647" stroke-opacity="0.2"/>
<rect x="86.728" y="67.2929" width="17" height="17" transform="rotate(-135 86.728 67.2929)" stroke="#FF1647" stroke-opacity="0.2"/>
<rect x="235.728" y="142.293" width="17" height="17" transform="rotate(-135 235.728 142.293)" stroke="#FF1647" stroke-opacity="0.65"/>
<rect x="221.728" y="156.293" width="17" height="17" transform="rotate(-135 221.728 156.293)" stroke="#FF1647" stroke-opacity="0.65"/>
<rect x="249.728" y="97.2929" width="17" height="17" transform="rotate(-135 249.728 97.2929)" stroke="#FF1647" stroke-opacity="0.2"/>
<rect x="235.728" y="83.2929" width="17" height="17" transform="rotate(-135 235.728 83.2929)" stroke="#FF1647" stroke-opacity="0.2"/>
<rect x="263.728" y="111.293" width="17" height="17" transform="rotate(-135 263.728 111.293)" stroke="#FF1647" stroke-opacity="0.2"/>
<rect x="221.728" y="69.2929" width="17" height="17" transform="rotate(-135 221.728 69.2929)" stroke="#FF1647" stroke-opacity="0.2"/>
<rect x="277.728" y="97.2929" width="17" height="17" transform="rotate(-135 277.728 97.2929)" stroke="#FF1647" stroke-opacity="0.2"/>
<rect x="263.728" y="83.2929" width="17" height="17" transform="rotate(-135 263.728 83.2929)" stroke="#FF1647" stroke-opacity="0.2"/>
<rect x="291.728" y="111.293" width="17" height="17" transform="rotate(-135 291.728 111.293)" stroke="#FF1647" stroke-opacity="0.2"/>
<rect x="249.728" y="69.2929" width="17" height="17" transform="rotate(-135 249.728 69.2929)" stroke="#FF1647" stroke-opacity="0.2"/>
<rect x="249.728" y="156.293" width="17" height="17" transform="rotate(-135 249.728 156.293)" stroke="#FF1647" stroke-opacity="0.2"/>
<rect x="263.728" y="142.293" width="17" height="17" transform="rotate(-135 263.728 142.293)" stroke="#FF1647" stroke-opacity="0.2"/>
<rect x="221.728" y="185.293" width="17" height="17" transform="rotate(-135 221.728 185.293)" stroke="#FF1647" stroke-opacity="0.2"/>
<rect x="235.728" y="171.293" width="17" height="17" transform="rotate(-135 235.728 171.293)" stroke="#FF1647" stroke-opacity="0.2"/>
<rect x="277.728" y="156.293" width="17" height="17" transform="rotate(-135 277.728 156.293)" stroke="#FF1647" stroke-opacity="0.2"/>
<rect x="291.728" y="142.293" width="17" height="17" transform="rotate(-135 291.728 142.293)" stroke="#FF1647" stroke-opacity="0.2"/>
<rect x="249.728" y="185.293" width="17" height="17" transform="rotate(-135 249.728 185.293)" stroke="#FF1647" stroke-opacity="0.2"/>
<rect x="263.728" y="171.293" width="17" height="17" transform="rotate(-135 263.728 171.293)" stroke="#FF1647" stroke-opacity="0.2"/>
<rect x="221.728" y="97.2929" width="17" height="17" transform="rotate(-135 221.728 97.2929)" stroke="#FF1647" stroke-opacity="0.65"/>
<rect x="235.728" y="111.293" width="17" height="17" transform="rotate(-135 235.728 111.293)" stroke="#FF1647" stroke-opacity="0.65"/>
<path d="M329.901 13.6484H331V18.5117H330.062L327.597 16.2119C327.34 15.9808 327.113 15.7985 326.918 15.665C326.719 15.5316 326.542 15.4355 326.386 15.377C326.226 15.3151 326.075 15.2842 325.932 15.2842C325.717 15.2842 325.533 15.32 325.38 15.3916C325.224 15.4632 325.103 15.569 325.019 15.709C324.934 15.8457 324.892 16.015 324.892 16.2168C324.892 16.4316 324.944 16.6172 325.048 16.7734C325.152 16.9264 325.297 17.0436 325.482 17.125C325.668 17.2031 325.878 17.2422 326.112 17.2422V18.6533C325.689 18.6533 325.302 18.5524 324.95 18.3506C324.595 18.1488 324.314 17.8639 324.105 17.4961C323.894 17.1283 323.788 16.6921 323.788 16.1875C323.788 15.6895 323.869 15.2695 324.032 14.9277C324.192 14.5827 324.423 14.3223 324.726 14.1465C325.025 13.9674 325.383 13.8779 325.8 13.8779C326.034 13.8779 326.264 13.9154 326.488 13.9902C326.71 14.0651 326.931 14.1725 327.152 14.3125C327.37 14.4492 327.592 14.6152 327.816 14.8105C328.041 15.0059 328.274 15.2223 328.515 15.46L329.901 16.6953V13.6484ZM329.901 6.40625H331V11.2695H330.062L327.597 8.96973C327.34 8.73861 327.113 8.55632 326.918 8.42285C326.719 8.28939 326.542 8.19336 326.386 8.13477C326.226 8.07292 326.075 8.04199 325.932 8.04199C325.717 8.04199 325.533 8.0778 325.38 8.14941C325.224 8.22103 325.103 8.32682 325.019 8.4668C324.934 8.60352 324.892 8.77279 324.892 8.97461C324.892 9.18945 324.944 9.375 325.048 9.53125C325.152 9.68424 325.297 9.80143 325.482 9.88281C325.668 9.96094 325.878 10 326.112 10V11.4111C325.689 11.4111 325.302 11.3102 324.95 11.1084C324.595 10.9066 324.314 10.6217 324.105 10.2539C323.894 9.88607 323.788 9.44987 323.788 8.94531C323.788 8.44727 323.869 8.02734 324.032 7.68555C324.192 7.34049 324.423 7.08008 324.726 6.9043C325.025 6.72526 325.383 6.63574 325.8 6.63574C326.034 6.63574 326.264 6.67318 326.488 6.74805C326.71 6.82292 326.931 6.93034 327.152 7.07031C327.37 7.20703 327.592 7.37305 327.816 7.56836C328.041 7.76367 328.274 7.98014 328.515 8.21777L329.901 9.45312V6.40625Z" fill="#FF1647"/>
<path d="M17.9014 217.648H19V222.512H18.0625L15.5967 220.212C15.3395 219.981 15.1133 219.799 14.918 219.665C14.7194 219.532 14.542 219.436 14.3857 219.377C14.2262 219.315 14.0749 219.284 13.9316 219.284C13.7168 219.284 13.5329 219.32 13.3799 219.392C13.2236 219.463 13.1032 219.569 13.0186 219.709C12.9339 219.846 12.8916 220.015 12.8916 220.217C12.8916 220.432 12.9437 220.617 13.0479 220.773C13.152 220.926 13.2969 221.044 13.4824 221.125C13.668 221.203 13.8779 221.242 14.1123 221.242V222.653C13.6891 222.653 13.3018 222.552 12.9502 222.351C12.5954 222.149 12.3138 221.864 12.1055 221.496C11.8939 221.128 11.7881 220.692 11.7881 220.188C11.7881 219.689 11.8695 219.27 12.0322 218.928C12.1917 218.583 12.4229 218.322 12.7256 218.146C13.0251 217.967 13.3831 217.878 13.7998 217.878C14.0342 217.878 14.2637 217.915 14.4883 217.99C14.7096 218.065 14.931 218.173 15.1523 218.312C15.3704 218.449 15.5918 218.615 15.8164 218.811C16.041 219.006 16.2738 219.222 16.5146 219.46L17.9014 220.695V217.648ZM17.9014 210.406H19V215.27H18.0625L15.5967 212.97C15.3395 212.739 15.1133 212.556 14.918 212.423C14.7194 212.289 14.542 212.193 14.3857 212.135C14.2262 212.073 14.0749 212.042 13.9316 212.042C13.7168 212.042 13.5329 212.078 13.3799 212.149C13.2236 212.221 13.1032 212.327 13.0186 212.467C12.9339 212.604 12.8916 212.773 12.8916 212.975C12.8916 213.189 12.9437 213.375 13.0479 213.531C13.152 213.684 13.2969 213.801 13.4824 213.883C13.668 213.961 13.8779 214 14.1123 214V215.411C13.6891 215.411 13.3018 215.31 12.9502 215.108C12.5954 214.907 12.3138 214.622 12.1055 214.254C11.8939 213.886 11.7881 213.45 11.7881 212.945C11.7881 212.447 11.8695 212.027 12.0322 211.686C12.1917 211.34 12.4229 211.08 12.7256 210.904C13.0251 210.725 13.3831 210.636 13.7998 210.636C14.0342 210.636 14.2637 210.673 14.4883 210.748C14.7096 210.823 14.931 210.93 15.1523 211.07C15.3704 211.207 15.5918 211.373 15.8164 211.568C16.041 211.764 16.2738 211.98 16.5146 212.218L17.9014 213.453V210.406Z" fill="#FF1647"/>
<path d="M203.768 128.797C203.615 128.797 203.479 128.82 203.357 128.867C203.232 128.91 203.119 128.992 203.018 129.113C202.912 129.234 202.809 129.404 202.707 129.623C202.605 129.842 202.5 130.125 202.391 130.473C202.266 130.859 202.125 131.227 201.969 131.574C201.812 131.918 201.631 132.223 201.424 132.488C201.213 132.75 200.969 132.957 200.691 133.109C200.414 133.258 200.092 133.332 199.725 133.332C199.369 133.332 199.047 133.254 198.758 133.098C198.465 132.941 198.215 132.723 198.008 132.441C197.797 132.16 197.635 131.828 197.521 131.445C197.408 131.059 197.352 130.635 197.352 130.174C197.352 129.545 197.465 128.996 197.691 128.527C197.918 128.059 198.229 127.695 198.623 127.438C199.018 127.176 199.469 127.045 199.977 127.045V128.791C199.727 128.791 199.508 128.844 199.32 128.949C199.129 129.051 198.979 129.207 198.869 129.418C198.76 129.625 198.705 129.887 198.705 130.203C198.705 130.508 198.752 130.762 198.846 130.965C198.936 131.168 199.059 131.32 199.215 131.422C199.367 131.523 199.539 131.574 199.73 131.574C199.875 131.574 200.006 131.539 200.123 131.469C200.24 131.395 200.35 131.285 200.451 131.141C200.553 130.996 200.648 130.818 200.738 130.607C200.828 130.396 200.916 130.152 201.002 129.875C201.143 129.41 201.301 129.002 201.477 128.65C201.652 128.295 201.85 127.998 202.068 127.76C202.287 127.521 202.535 127.342 202.812 127.221C203.09 127.1 203.404 127.039 203.756 127.039C204.127 127.039 204.459 127.111 204.752 127.256C205.045 127.4 205.293 127.609 205.496 127.883C205.699 128.156 205.854 128.482 205.959 128.861C206.064 129.24 206.117 129.664 206.117 130.133C206.117 130.555 206.062 130.971 205.953 131.381C205.84 131.791 205.67 132.164 205.443 132.5C205.217 132.832 204.928 133.098 204.576 133.297C204.225 133.496 203.809 133.596 203.328 133.596V131.832C203.594 131.832 203.818 131.791 204.002 131.709C204.186 131.627 204.334 131.512 204.447 131.363C204.561 131.211 204.643 131.031 204.693 130.824C204.744 130.613 204.77 130.383 204.77 130.133C204.77 129.828 204.727 129.578 204.641 129.383C204.555 129.184 204.436 129.037 204.283 128.943C204.131 128.846 203.959 128.797 203.768 128.797ZM203.17 119.098V117.346C203.744 117.382 204.254 117.54 204.699 117.821C205.145 118.098 205.492 118.487 205.742 118.987C205.992 119.483 206.117 120.081 206.117 120.78C206.117 121.327 206.023 121.817 205.836 122.251C205.645 122.684 205.371 123.055 205.016 123.364C204.66 123.669 204.23 123.901 203.727 124.061C203.223 124.221 202.658 124.302 202.033 124.302H201.441C200.816 124.302 200.252 124.22 199.748 124.055C199.24 123.887 198.809 123.649 198.453 123.341C198.098 123.028 197.824 122.655 197.633 122.221C197.441 121.788 197.346 121.304 197.346 120.768C197.346 120.057 197.475 119.458 197.732 118.97C197.99 118.477 198.346 118.096 198.799 117.827C199.252 117.554 199.768 117.389 200.346 117.335V119.093C200.002 119.112 199.711 119.18 199.473 119.298C199.23 119.415 199.049 119.593 198.928 119.831C198.803 120.065 198.74 120.378 198.74 120.768C198.74 121.061 198.795 121.317 198.904 121.536C199.014 121.755 199.18 121.938 199.402 122.087C199.625 122.235 199.906 122.346 200.246 122.421C200.582 122.491 200.977 122.526 201.43 122.526H202.033C202.475 122.526 202.863 122.493 203.199 122.427C203.531 122.36 203.812 122.259 204.043 122.122C204.27 121.981 204.441 121.802 204.559 121.583C204.672 121.36 204.729 121.093 204.729 120.78C204.729 120.413 204.67 120.11 204.553 119.872C204.436 119.634 204.262 119.452 204.031 119.327C203.801 119.198 203.514 119.122 203.17 119.098ZM203.768 109.951C203.615 109.951 203.479 109.974 203.357 110.021C203.232 110.064 203.119 110.146 203.018 110.267C202.912 110.388 202.809 110.558 202.707 110.777C202.605 110.996 202.5 111.279 202.391 111.627C202.266 112.013 202.125 112.38 201.969 112.728C201.812 113.072 201.631 113.377 201.424 113.642C201.213 113.904 200.969 114.111 200.691 114.263C200.414 114.412 200.092 114.486 199.725 114.486C199.369 114.486 199.047 114.408 198.758 114.252C198.465 114.095 198.215 113.877 198.008 113.595C197.797 113.314 197.635 112.982 197.521 112.599C197.408 112.212 197.352 111.789 197.352 111.328C197.352 110.699 197.465 110.15 197.691 109.681C197.918 109.212 198.229 108.849 198.623 108.591C199.018 108.33 199.469 108.199 199.977 108.199V109.945C199.727 109.945 199.508 109.998 199.32 110.103C199.129 110.205 198.979 110.361 198.869 110.572C198.76 110.779 198.705 111.041 198.705 111.357C198.705 111.662 198.752 111.916 198.846 112.119C198.936 112.322 199.059 112.474 199.215 112.576C199.367 112.677 199.539 112.728 199.73 112.728C199.875 112.728 200.006 112.693 200.123 112.623C200.24 112.548 200.35 112.439 200.451 112.295C200.553 112.15 200.648 111.972 200.738 111.761C200.828 111.55 200.916 111.306 201.002 111.029C201.143 110.564 201.301 110.156 201.477 109.804C201.652 109.449 201.85 109.152 202.068 108.914C202.287 108.675 202.535 108.496 202.812 108.375C203.09 108.254 203.404 108.193 203.756 108.193C204.127 108.193 204.459 108.265 204.752 108.41C205.045 108.554 205.293 108.763 205.496 109.037C205.699 109.31 205.854 109.636 205.959 110.015C206.064 110.394 206.117 110.818 206.117 111.287C206.117 111.709 206.062 112.125 205.953 112.535C205.84 112.945 205.67 113.318 205.443 113.654C205.217 113.986 204.928 114.252 204.576 114.451C204.225 114.65 203.809 114.75 203.328 114.75V112.986C203.594 112.986 203.818 112.945 204.002 112.863C204.186 112.781 204.334 112.666 204.447 112.517C204.561 112.365 204.643 112.185 204.693 111.978C204.744 111.767 204.77 111.537 204.77 111.287C204.77 110.982 204.727 110.732 204.641 110.537C204.555 110.337 204.436 110.191 204.283 110.097C204.131 110 203.959 109.951 203.768 109.951ZM204.629 99.473H206V104.014H204.629V99.473ZM197.469 103.44H206V105.198H197.469V103.44ZM200.943 100.065H202.279V104.014H200.943V100.065ZM197.469 99.4789H198.846V104.014H197.469V99.4789Z" fill="white"/>
<path d="M203.357 128.867L203.683 129.813L203.701 129.807L203.718 129.8L203.357 128.867ZM203.018 129.113L203.772 129.77L203.778 129.763L203.784 129.756L203.018 129.113ZM202.391 130.473L203.342 130.78L203.345 130.773L202.391 130.473ZM201.969 131.574L202.879 131.988L202.881 131.984L201.969 131.574ZM201.424 132.488L202.202 133.116L202.208 133.109L202.213 133.103L201.424 132.488ZM200.691 133.109L201.163 133.991L201.173 133.986L200.691 133.109ZM198.758 133.098L199.233 132.218L199.228 132.215L198.758 133.098ZM198.008 132.441L198.813 131.849L198.808 131.841L198.008 132.441ZM197.521 131.445L196.562 131.726L196.563 131.729L197.521 131.445ZM198.623 127.438L199.17 128.275L199.176 128.271L198.623 127.438ZM199.977 127.045H200.977V126.045H199.977V127.045ZM199.977 128.791V129.791H200.977V128.791H199.977ZM199.32 128.949L199.789 129.833L199.8 129.827L199.811 129.821L199.32 128.949ZM198.869 129.418L199.753 129.885L199.757 129.878L198.869 129.418ZM198.846 130.965L199.76 130.56L199.757 130.553L199.754 130.546L198.846 130.965ZM199.215 131.422L199.77 130.59L199.76 130.583L199.215 131.422ZM200.123 131.469L200.638 132.326L200.648 132.32L200.658 132.314L200.123 131.469ZM201.002 129.875L201.957 130.171L201.959 130.165L201.002 129.875ZM201.477 128.65L202.371 129.098L202.373 129.094L201.477 128.65ZM205.953 131.381L206.917 131.647L206.919 131.639L205.953 131.381ZM205.443 132.5L206.269 133.064L206.272 133.059L205.443 132.5ZM203.328 133.596H202.328V134.596H203.328V133.596ZM203.328 131.832V130.832H202.328V131.832H203.328ZM204.447 131.363L205.242 131.97L205.25 131.96L204.447 131.363ZM204.693 130.824L205.665 131.062L205.666 131.058L204.693 130.824ZM204.641 129.383L203.722 129.779L203.725 129.786L204.641 129.383ZM204.283 128.943L203.744 129.785L203.751 129.79L203.759 129.795L204.283 128.943ZM203.768 127.797C203.513 127.797 203.251 127.836 202.996 127.935L203.718 129.8C203.706 129.804 203.718 129.797 203.768 129.797V127.797ZM203.032 127.922C202.705 128.034 202.447 128.238 202.251 128.471L203.784 129.756C203.788 129.75 203.783 129.758 203.765 129.771C203.747 129.784 203.719 129.8 203.683 129.813L203.032 127.922ZM202.263 128.457C202.074 128.675 201.923 128.936 201.8 129.202L203.614 130.044C203.694 129.873 203.751 129.794 203.772 129.77L202.263 128.457ZM201.8 129.202C201.674 129.474 201.553 129.802 201.437 130.173L203.345 130.773C203.447 130.448 203.537 130.209 203.614 130.044L201.8 129.202ZM201.439 130.165C201.325 130.519 201.197 130.852 201.057 131.164L202.881 131.984C203.053 131.601 203.207 131.199 203.342 130.78L201.439 130.165ZM201.058 131.16C200.931 131.441 200.788 131.677 200.635 131.874L202.213 133.103C202.473 132.768 202.694 132.395 202.879 131.988L201.058 131.16ZM200.645 131.861C200.511 132.027 200.366 132.147 200.21 132.233L201.173 133.986C201.572 133.767 201.915 133.473 202.202 133.116L200.645 131.861ZM200.22 132.228C200.11 132.286 199.955 132.332 199.725 132.332V134.332C200.229 134.332 200.718 134.229 201.163 133.991L200.22 132.228ZM199.725 132.332C199.521 132.332 199.365 132.289 199.233 132.218L198.282 133.977C198.729 134.219 199.217 134.332 199.725 134.332V132.332ZM199.228 132.215C199.074 132.133 198.936 132.016 198.813 131.849L197.202 133.034C197.493 133.429 197.856 133.75 198.287 133.98L199.228 132.215ZM198.808 131.841C198.677 131.667 198.564 131.446 198.48 131.162L196.563 131.729C196.705 132.211 196.917 132.653 197.208 133.041L198.808 131.841ZM198.481 131.164C198.398 130.881 198.352 130.553 198.352 130.174H196.352C196.352 130.717 196.418 131.236 196.562 131.726L198.481 131.164ZM198.352 130.174C198.352 129.665 198.443 129.27 198.592 128.963L196.791 128.092C196.487 128.722 196.352 129.425 196.352 130.174H198.352ZM198.592 128.963C198.748 128.64 198.943 128.423 199.17 128.275L198.076 126.6C197.514 126.968 197.088 127.477 196.791 128.092L198.592 128.963ZM199.176 128.271C199.394 128.126 199.65 128.045 199.977 128.045V126.045C199.287 126.045 198.641 126.226 198.07 126.604L199.176 128.271ZM198.977 127.045V128.791H200.977V127.045H198.977ZM199.977 127.791C199.583 127.791 199.19 127.875 198.83 128.078L199.811 129.821C199.826 129.812 199.87 129.791 199.977 129.791V127.791ZM198.852 128.066C198.463 128.272 198.175 128.585 197.981 128.958L199.757 129.878C199.772 129.85 199.782 129.839 199.784 129.836C199.786 129.834 199.787 129.834 199.789 129.833L198.852 128.066ZM197.985 128.951C197.778 129.343 197.705 129.779 197.705 130.203H199.705C199.705 129.995 199.742 129.907 199.753 129.885L197.985 128.951ZM197.705 130.203C197.705 130.603 197.766 131.011 197.938 131.384L199.754 130.546C199.738 130.513 199.705 130.413 199.705 130.203H197.705ZM197.931 131.369C198.084 131.715 198.322 132.034 198.67 132.26L199.76 130.583C199.766 130.588 199.772 130.592 199.777 130.596C199.781 130.6 199.783 130.603 199.783 130.603C199.784 130.604 199.774 130.592 199.76 130.56L197.931 131.369ZM198.66 132.254C198.984 132.47 199.351 132.574 199.73 132.574V130.574C199.724 130.574 199.729 130.574 199.741 130.577C199.747 130.579 199.753 130.581 199.758 130.583C199.763 130.586 199.767 130.588 199.77 130.59L198.66 132.254ZM199.73 132.574C200.045 132.574 200.356 132.495 200.638 132.326L199.609 130.611C199.629 130.599 199.653 130.589 199.678 130.582C199.702 130.575 199.721 130.574 199.73 130.574V132.574ZM200.658 132.314C200.912 132.153 201.112 131.94 201.269 131.716L199.633 130.566C199.587 130.631 199.568 130.637 199.588 130.624L200.658 132.314ZM201.269 131.716C201.421 131.5 201.549 131.257 201.658 130.999L199.818 130.216C199.748 130.38 199.684 130.492 199.633 130.566L201.269 131.716ZM201.658 130.999C201.764 130.75 201.864 130.473 201.957 130.171L200.047 129.579C199.968 129.832 199.892 130.043 199.818 130.216L201.658 130.999ZM201.959 130.165C202.087 129.742 202.226 129.388 202.371 129.098L200.582 128.203C200.376 128.616 200.198 129.078 200.045 129.585L201.959 130.165ZM202.373 129.094C202.516 128.805 202.663 128.591 202.805 128.436L201.332 127.083C201.036 127.405 200.789 127.785 200.58 128.207L202.373 129.094ZM202.805 128.436C202.936 128.293 203.072 128.199 203.213 128.137L202.412 126.304C201.999 126.485 201.638 126.75 201.332 127.083L202.805 128.436ZM203.213 128.137C203.345 128.079 203.52 128.039 203.756 128.039V126.039C203.289 126.039 202.835 126.12 202.412 126.304L203.213 128.137ZM203.756 128.039C203.994 128.039 204.172 128.085 204.31 128.153L205.194 126.359C204.746 126.138 204.259 126.039 203.756 126.039V128.039ZM204.31 128.153C204.454 128.224 204.581 128.327 204.693 128.479L206.299 127.286C206.005 126.891 205.636 126.577 205.194 126.359L204.31 128.153ZM204.693 128.479C204.813 128.64 204.918 128.851 204.996 129.129L206.922 128.593C206.789 128.114 206.586 127.673 206.299 127.286L204.693 128.479ZM204.996 129.129C205.073 129.406 205.117 129.738 205.117 130.133H207.117C207.117 129.59 207.056 129.074 206.922 128.593L204.996 129.129ZM205.117 130.133C205.117 130.467 205.074 130.797 204.987 131.123L206.919 131.639C207.051 131.145 207.117 130.642 207.117 130.133H205.117ZM204.989 131.115C204.903 131.426 204.777 131.699 204.614 131.941L206.272 133.059C206.562 132.629 206.776 132.156 206.917 131.647L204.989 131.115ZM204.617 131.936C204.477 132.141 204.302 132.303 204.083 132.427L205.069 134.167C205.553 133.893 205.956 133.523 206.269 133.064L204.617 131.936ZM204.083 132.427C203.908 132.526 203.669 132.596 203.328 132.596V134.596C203.949 134.596 204.541 134.466 205.069 134.167L204.083 132.427ZM204.328 133.596V131.832H202.328V133.596H204.328ZM203.328 132.832C203.691 132.832 204.064 132.777 204.41 132.622L203.594 130.796C203.573 130.805 203.496 130.832 203.328 130.832V132.832ZM204.41 132.622C204.734 132.477 205.02 132.261 205.242 131.97L203.652 130.757C203.648 130.762 203.637 130.777 203.594 130.796L204.41 132.622ZM205.25 131.96C205.452 131.688 205.586 131.383 205.665 131.062L203.722 130.586C203.699 130.679 203.669 130.734 203.645 130.767L205.25 131.96ZM205.666 131.058C205.737 130.76 205.77 130.45 205.77 130.133H203.77C203.77 130.316 203.751 130.466 203.721 130.59L205.666 131.058ZM205.77 130.133C205.77 129.744 205.716 129.344 205.556 128.98L203.725 129.786C203.737 129.812 203.77 129.912 203.77 130.133H205.77ZM205.559 128.987C205.409 128.64 205.169 128.314 204.807 128.092L203.759 129.795C203.747 129.788 203.737 129.78 203.729 129.772C203.72 129.765 203.714 129.758 203.711 129.755C203.705 129.747 203.711 129.751 203.722 129.779L205.559 128.987ZM204.823 128.101C204.5 127.895 204.139 127.797 203.768 127.797V129.797C203.777 129.797 203.776 129.798 203.767 129.795C203.763 129.794 203.758 129.793 203.754 129.791C203.749 129.789 203.746 129.787 203.744 129.785L204.823 128.101ZM203.17 119.098H202.17V120.033L203.102 120.096L203.17 119.098ZM203.17 117.346L203.231 116.348L202.17 116.283V117.346H203.17ZM204.699 117.821L204.165 118.667L204.171 118.67L204.699 117.821ZM205.742 118.987L204.848 119.434L204.849 119.437L205.742 118.987ZM205.836 122.251L206.751 122.655L206.754 122.648L205.836 122.251ZM205.016 123.364L205.666 124.123L205.671 124.119L205.016 123.364ZM199.748 124.055L199.434 125.005L199.438 125.006L199.748 124.055ZM198.453 123.341L197.793 124.092L197.798 124.096L198.453 123.341ZM197.732 118.97L198.617 119.436L198.618 119.434L197.732 118.97ZM198.799 117.827L199.31 118.686L199.315 118.683L198.799 117.827ZM200.346 117.335H201.346V116.236L200.252 116.339L200.346 117.335ZM200.346 119.093L200.402 120.091L201.346 120.037V119.093H200.346ZM199.473 119.298L199.908 120.198L199.914 120.195L199.473 119.298ZM198.928 119.831L199.81 120.301L199.815 120.293L199.819 120.284L198.928 119.831ZM200.246 122.421L200.033 123.398L200.041 123.399L200.246 122.421ZM203.199 122.427L203.393 123.408L203.395 123.407L203.199 122.427ZM204.043 122.122L204.553 122.982L204.562 122.977L204.57 122.972L204.043 122.122ZM204.559 121.583L205.44 122.055L205.445 122.046L205.45 122.036L204.559 121.583ZM204.031 119.327L203.543 120.2L203.554 120.206L204.031 119.327ZM204.17 119.098V117.346H202.17V119.098H204.17ZM203.109 118.345C203.531 118.37 203.875 118.483 204.165 118.667L205.233 116.976C204.633 116.596 203.957 116.393 203.231 116.348L203.109 118.345ZM204.171 118.67C204.449 118.843 204.675 119.088 204.848 119.434L206.637 118.54C206.31 117.886 205.84 117.354 205.228 116.972L204.171 118.67ZM204.849 119.437C205.013 119.762 205.117 120.198 205.117 120.78H207.117C207.117 119.964 206.971 119.204 206.635 118.537L204.849 119.437ZM205.117 120.78C205.117 121.212 205.044 121.564 204.918 121.854L206.754 122.648C207.003 122.071 207.117 121.442 207.117 120.78H205.117ZM204.921 121.847C204.789 122.147 204.604 122.398 204.36 122.609L205.671 124.119C206.139 123.713 206.5 123.222 206.751 122.655L204.921 121.847ZM204.365 122.605C204.124 122.812 203.816 122.984 203.424 123.108L204.029 125.014C204.645 124.819 205.197 124.526 205.666 124.123L204.365 122.605ZM203.424 123.108C203.034 123.232 202.574 123.302 202.033 123.302V125.302C202.743 125.302 203.412 125.211 204.029 125.014L203.424 123.108ZM202.033 123.302H201.441V125.302H202.033V123.302ZM201.441 123.302C200.903 123.302 200.445 123.231 200.058 123.105L199.438 125.006C200.058 125.208 200.73 125.302 201.441 125.302V123.302ZM200.062 123.106C199.663 122.974 199.352 122.796 199.109 122.585L197.798 124.096C198.266 124.502 198.818 124.801 199.434 125.005L200.062 123.106ZM199.113 122.59C198.867 122.373 198.68 122.119 198.548 121.818L196.718 122.625C196.968 123.192 197.328 123.683 197.793 124.092L199.113 122.59ZM198.548 121.818C198.419 121.527 198.346 121.182 198.346 120.768H196.346C196.346 121.425 196.464 122.049 196.718 122.625L198.548 121.818ZM198.346 120.768C198.346 120.175 198.454 119.745 198.617 119.436L196.848 118.503C196.496 119.17 196.346 119.94 196.346 120.768H198.346ZM198.618 119.434C198.795 119.096 199.025 118.856 199.31 118.686L198.288 116.968C197.667 117.337 197.185 117.859 196.847 118.506L198.618 119.434ZM199.315 118.683C199.628 118.495 199.997 118.372 200.44 118.33L200.252 116.339C199.539 116.407 198.876 116.612 198.282 116.971L199.315 118.683ZM199.346 117.335V119.093H201.346V117.335H199.346ZM200.289 118.094C199.849 118.119 199.42 118.209 199.031 118.4L199.914 120.195C200.002 120.152 200.154 120.105 200.402 120.091L200.289 118.094ZM199.037 118.397C198.6 118.609 198.257 118.943 198.036 119.378L199.819 120.284C199.841 120.242 199.861 120.22 199.908 120.198L199.037 118.397ZM198.045 119.36C197.815 119.792 197.74 120.285 197.74 120.768H199.74C199.74 120.47 199.79 120.339 199.81 120.301L198.045 119.36ZM197.74 120.768C197.74 121.186 197.819 121.601 198.01 121.983L199.799 121.089C199.771 121.034 199.74 120.937 199.74 120.768H197.74ZM198.01 121.983C198.204 122.372 198.494 122.683 198.848 122.919L199.957 121.255C199.865 121.193 199.823 121.137 199.799 121.089L198.01 121.983ZM198.848 122.919C199.2 123.154 199.606 123.304 200.033 123.398L200.459 121.444C200.207 121.389 200.05 121.317 199.957 121.255L198.848 122.919ZM200.041 123.399C200.462 123.488 200.928 123.526 201.43 123.526V121.526C201.025 121.526 200.702 121.494 200.451 121.442L200.041 123.399ZM201.43 123.526H202.033V121.526H201.43V123.526ZM202.033 123.526C202.522 123.526 202.978 123.49 203.393 123.408L203.005 121.446C202.748 121.496 202.427 121.526 202.033 121.526V123.526ZM203.395 123.407C203.81 123.324 204.204 123.189 204.553 122.982L203.533 121.262C203.421 121.328 203.252 121.396 203.003 121.446L203.395 123.407ZM204.57 122.972C204.935 122.745 205.234 122.44 205.44 122.055L203.677 121.111C203.649 121.163 203.605 121.217 203.516 121.272L204.57 122.972ZM205.45 122.036C205.65 121.642 205.729 121.212 205.729 120.78H203.729C203.729 120.974 203.693 121.078 203.667 121.129L205.45 122.036ZM205.729 120.78C205.729 120.315 205.656 119.848 205.45 119.431L203.655 120.313C203.684 120.372 203.729 120.511 203.729 120.78H205.729ZM205.45 119.431C205.243 119.009 204.923 118.673 204.508 118.448L203.554 120.206C203.6 120.231 203.628 120.258 203.655 120.313L205.45 119.431ZM204.519 118.454C204.127 118.235 203.686 118.131 203.238 118.101L203.102 120.096C203.341 120.112 203.475 120.161 203.543 120.2L204.519 118.454ZM203.357 110.021L203.683 110.967L203.701 110.961L203.718 110.954L203.357 110.021ZM203.018 110.267L203.772 110.924L203.778 110.917L203.784 110.91L203.018 110.267ZM202.391 111.627L203.342 111.934L203.345 111.927L202.391 111.627ZM201.969 112.728L202.879 113.142L202.881 113.138L201.969 112.728ZM201.424 113.642L202.202 114.27L202.208 114.263L202.213 114.257L201.424 113.642ZM200.691 114.263L201.163 115.145L201.173 115.14L200.691 114.263ZM198.758 114.252L199.233 113.372L199.228 113.369L198.758 114.252ZM198.008 113.595L198.813 113.002L198.808 112.995L198.008 113.595ZM197.521 112.599L196.562 112.88L196.563 112.883L197.521 112.599ZM198.623 108.591L199.17 109.429L199.176 109.425L198.623 108.591ZM199.977 108.199H200.977V107.199H199.977V108.199ZM199.977 109.945V110.945H200.977V109.945H199.977ZM199.32 110.103L199.789 110.986L199.8 110.981L199.811 110.975L199.32 110.103ZM198.869 110.572L199.753 111.039L199.757 111.032L198.869 110.572ZM198.846 112.119L199.76 111.714L199.757 111.707L199.754 111.7L198.846 112.119ZM199.215 112.576L199.77 111.744L199.76 111.737L199.215 112.576ZM200.123 112.623L200.638 113.48L200.648 113.474L200.658 113.467L200.123 112.623ZM201.002 111.029L201.957 111.325L201.959 111.318L201.002 111.029ZM201.477 109.804L202.371 110.252L202.373 110.248L201.477 109.804ZM205.953 112.535L206.917 112.801L206.919 112.792L205.953 112.535ZM205.443 113.654L206.269 114.218L206.272 114.213L205.443 113.654ZM203.328 114.75H202.328V115.75H203.328V114.75ZM203.328 112.986V111.986H202.328V112.986H203.328ZM204.447 112.517L205.242 113.124L205.25 113.114L204.447 112.517ZM204.693 111.978L205.665 112.216L205.666 112.212L204.693 111.978ZM204.641 110.537L203.722 110.933L203.725 110.939L204.641 110.537ZM204.283 110.097L203.744 110.939L203.751 110.944L203.759 110.949L204.283 110.097ZM203.768 108.951C203.513 108.951 203.251 108.99 202.996 109.089L203.718 110.954C203.706 110.958 203.718 110.951 203.768 110.951V108.951ZM203.032 109.075C202.705 109.188 202.447 109.392 202.251 109.625L203.784 110.91C203.788 110.904 203.783 110.912 203.765 110.925C203.747 110.938 203.719 110.954 203.683 110.967L203.032 109.075ZM202.263 109.61C202.074 109.828 201.923 110.09 201.8 110.356L203.614 111.198C203.694 111.026 203.751 110.948 203.772 110.924L202.263 109.61ZM201.8 110.356C201.674 110.628 201.553 110.956 201.437 111.326L203.345 111.927C203.447 111.602 203.537 111.363 203.614 111.198L201.8 110.356ZM201.439 111.319C201.325 111.673 201.197 112.006 201.057 112.318L202.881 113.138C203.053 112.755 203.207 112.353 203.342 111.934L201.439 111.319ZM201.058 112.314C200.931 112.595 200.788 112.831 200.635 113.027L202.213 114.257C202.473 113.922 202.694 113.549 202.879 113.142L201.058 112.314ZM200.645 113.015C200.511 113.181 200.366 113.301 200.21 113.387L201.173 115.14C201.572 114.921 201.915 114.627 202.202 114.27L200.645 113.015ZM200.22 113.382C200.11 113.44 199.955 113.486 199.725 113.486V115.486C200.229 115.486 200.718 115.383 201.163 115.145L200.22 113.382ZM199.725 113.486C199.521 113.486 199.365 113.443 199.233 113.372L198.282 115.131C198.729 115.373 199.217 115.486 199.725 115.486V113.486ZM199.228 113.369C199.074 113.287 198.936 113.17 198.813 113.002L197.202 114.188C197.493 114.583 197.856 114.904 198.287 115.134L199.228 113.369ZM198.808 112.995C198.677 112.821 198.564 112.6 198.48 112.315L196.563 112.883C196.705 113.365 196.917 113.807 197.208 114.195L198.808 112.995ZM198.481 112.318C198.398 112.035 198.352 111.707 198.352 111.328H196.352C196.352 111.87 196.418 112.39 196.562 112.88L198.481 112.318ZM198.352 111.328C198.352 110.819 198.443 110.424 198.592 110.116L196.791 109.246C196.487 109.876 196.352 110.579 196.352 111.328H198.352ZM198.592 110.116C198.748 109.794 198.943 109.577 199.17 109.429L198.076 107.754C197.514 108.122 197.088 108.631 196.791 109.246L198.592 110.116ZM199.176 109.425C199.394 109.28 199.65 109.199 199.977 109.199V107.199C199.287 107.199 198.641 107.38 198.07 107.758L199.176 109.425ZM198.977 108.199V109.945H200.977V108.199H198.977ZM199.977 108.945C199.583 108.945 199.19 109.029 198.83 109.232L199.811 110.975C199.826 110.966 199.87 110.945 199.977 110.945V108.945ZM198.852 109.22C198.463 109.426 198.175 109.739 197.981 110.112L199.757 111.032C199.772 111.004 199.782 110.993 199.784 110.99C199.786 110.988 199.787 110.988 199.789 110.986L198.852 109.22ZM197.985 110.105C197.778 110.497 197.705 110.932 197.705 111.357H199.705C199.705 111.149 199.742 111.06 199.753 111.039L197.985 110.105ZM197.705 111.357C197.705 111.757 197.766 112.165 197.938 112.538L199.754 111.7C199.738 111.666 199.705 111.566 199.705 111.357H197.705ZM197.931 112.523C198.084 112.869 198.322 113.188 198.67 113.414L199.76 111.737C199.766 111.742 199.772 111.746 199.777 111.75C199.781 111.754 199.783 111.757 199.783 111.757C199.784 111.758 199.774 111.746 199.76 111.714L197.931 112.523ZM198.66 113.408C198.984 113.624 199.351 113.728 199.73 113.728V111.728C199.724 111.728 199.729 111.727 199.741 111.731C199.747 111.733 199.753 111.735 199.758 111.737C199.763 111.74 199.767 111.742 199.77 111.744L198.66 113.408ZM199.73 113.728C200.045 113.728 200.356 113.649 200.638 113.48L199.609 111.765C199.629 111.753 199.653 111.743 199.678 111.736C199.702 111.729 199.721 111.728 199.73 111.728V113.728ZM200.658 113.467C200.912 113.306 201.112 113.093 201.269 112.869L199.633 111.72C199.587 111.785 199.568 111.79 199.588 111.778L200.658 113.467ZM201.269 112.869C201.421 112.654 201.549 112.411 201.658 112.153L199.818 111.369C199.748 111.534 199.684 111.646 199.633 111.72L201.269 112.869ZM201.658 112.153C201.764 111.904 201.864 111.627 201.957 111.325L200.047 110.733C199.968 110.986 199.892 111.197 199.818 111.369L201.658 112.153ZM201.959 111.318C202.087 110.896 202.226 110.542 202.371 110.252L200.582 109.357C200.376 109.769 200.198 110.232 200.045 110.739L201.959 111.318ZM202.373 110.248C202.516 109.959 202.663 109.745 202.805 109.59L201.332 108.237C201.036 108.559 200.789 108.939 200.58 109.361L202.373 110.248ZM202.805 109.59C202.936 109.447 203.072 109.353 203.213 109.291L202.412 107.458C201.999 107.639 201.638 107.904 201.332 108.237L202.805 109.59ZM203.213 109.291C203.345 109.233 203.52 109.193 203.756 109.193V107.193C203.289 107.193 202.835 107.274 202.412 107.458L203.213 109.291ZM203.756 109.193C203.994 109.193 204.172 109.239 204.31 109.307L205.194 107.513C204.746 107.292 204.259 107.193 203.756 107.193V109.193ZM204.31 109.307C204.454 109.378 204.581 109.481 204.693 109.633L206.299 108.44C206.005 108.045 205.636 107.731 205.194 107.513L204.31 109.307ZM204.693 109.633C204.813 109.794 204.918 110.005 204.996 110.283L206.922 109.747C206.789 109.268 206.586 108.826 206.299 108.44L204.693 109.633ZM204.996 110.283C205.073 110.56 205.117 110.892 205.117 111.287H207.117C207.117 110.744 207.056 110.228 206.922 109.747L204.996 110.283ZM205.117 111.287C205.117 111.621 205.074 111.95 204.987 112.277L206.919 112.792C207.051 112.299 207.117 111.796 207.117 111.287H205.117ZM204.989 112.269C204.903 112.58 204.777 112.853 204.614 113.095L206.272 114.213C206.562 113.783 206.776 113.31 206.917 112.801L204.989 112.269ZM204.617 113.09C204.477 113.295 204.302 113.456 204.083 113.581L205.069 115.321C205.553 115.047 205.956 114.676 206.269 114.218L204.617 113.09ZM204.083 113.581C203.908 113.68 203.669 113.75 203.328 113.75V115.75C203.949 115.75 204.541 115.62 205.069 115.321L204.083 113.581ZM204.328 114.75V112.986H202.328V114.75H204.328ZM203.328 113.986C203.691 113.986 204.064 113.931 204.41 113.776L203.594 111.95C203.573 111.959 203.496 111.986 203.328 111.986V113.986ZM204.41 113.776C204.734 113.631 205.02 113.415 205.242 113.124L203.652 111.911C203.648 111.916 203.637 111.931 203.594 111.95L204.41 113.776ZM205.25 113.114C205.452 112.842 205.586 112.537 205.665 112.216L203.722 111.74C203.699 111.833 203.669 111.888 203.645 111.92L205.25 113.114ZM205.666 112.212C205.737 111.914 205.77 111.604 205.77 111.287H203.77C203.77 111.47 203.751 111.62 203.721 111.744L205.666 112.212ZM205.77 111.287C205.77 110.898 205.716 110.498 205.556 110.134L203.725 110.939C203.737 110.966 203.77 111.066 203.77 111.287H205.77ZM205.559 110.141C205.409 109.794 205.169 109.468 204.807 109.246L203.759 110.949C203.747 110.942 203.737 110.934 203.729 110.926C203.72 110.919 203.714 110.912 203.711 110.908C203.705 110.901 203.711 110.905 203.722 110.933L205.559 110.141ZM204.823 109.255C204.5 109.048 204.139 108.951 203.768 108.951V110.951C203.777 110.951 203.776 110.952 203.767 110.949C203.763 110.948 203.758 110.947 203.754 110.944C203.749 110.942 203.746 110.94 203.744 110.939L204.823 109.255ZM204.629 99.473V98.473H203.629V99.473H204.629ZM206 99.473H207V98.473H206V99.473ZM206 104.014V105.014H207V104.014H206ZM204.629 104.014H203.629V105.014H204.629V104.014ZM197.469 103.44V102.44H196.469V103.44H197.469ZM206 103.44H207V102.44H206V103.44ZM206 105.198V106.198H207V105.198H206ZM197.469 105.198H196.469V106.198H197.469V105.198ZM200.943 100.065V99.0648H199.943V100.065H200.943ZM202.279 100.065H203.279V99.0648H202.279V100.065ZM202.279 104.014V105.014H203.279V104.014H202.279ZM200.943 104.014H199.943V105.014H200.943V104.014ZM197.469 99.4789V98.4789H196.469V99.4789H197.469ZM198.846 99.4789H199.846V98.4789H198.846V99.4789ZM198.846 104.014V105.014H199.846V104.014H198.846ZM197.469 104.014H196.469V105.014H197.469V104.014ZM204.629 100.473H206V98.473H204.629V100.473ZM205 99.473V104.014H207V99.473H205ZM206 103.014H204.629V105.014H206V103.014ZM205.629 104.014V99.473H203.629V104.014H205.629ZM197.469 104.44H206V102.44H197.469V104.44ZM205 103.44V105.198H207V103.44H205ZM206 104.198H197.469V106.198H206V104.198ZM198.469 105.198V103.44H196.469V105.198H198.469ZM200.943 101.065H202.279V99.0648H200.943V101.065ZM201.279 100.065V104.014H203.279V100.065H201.279ZM202.279 103.014H200.943V105.014H202.279V103.014ZM201.943 104.014V100.065H199.943V104.014H201.943ZM197.469 100.479H198.846V98.4789H197.469V100.479ZM197.846 99.4789V104.014H199.846V99.4789H197.846ZM198.846 103.014H197.469V105.014H198.846V103.014ZM198.469 104.014V99.4789H196.469V104.014H198.469Z" fill="#FF1647"/>
</svg>
