<svg width="230" height="340" viewBox="0 0 230 340" fill="none" xmlns="http://www.w3.org/2000/svg">
<rect x="0.5" y="0.5" width="229" height="339" rx="11.5" fill="#FFF3E1" stroke="#FF1647"/>
<path d="M153.05 176.707C152.768 176.97 152.5 177.218 152.233 177.47C151.09 178.546 149.904 179.574 148.693 180.572C146.806 182.127 144.852 183.594 142.849 184.995C140.898 186.36 138.909 187.663 136.881 188.904C136.262 189.284 135.625 189.332 134.978 188.968C134.731 188.821 134.519 188.622 134.355 188.386C133.272 186.92 132.19 185.452 131.109 183.984C130.929 183.74 130.742 183.503 130.576 183.25C130.173 182.636 130.154 181.992 130.495 181.344C130.652 181.063 130.883 180.832 131.163 180.675C132.094 180.114 133.032 179.566 133.953 178.988C136.806 177.214 139.531 175.24 142.105 173.079C143.083 172.25 144.033 171.386 144.975 170.519C146.135 169.438 147.238 168.296 148.28 167.1C148.327 167.058 148.359 167.001 148.373 166.94C148.387 166.878 148.381 166.813 148.356 166.754C148.316 166.633 148.309 166.503 148.337 166.378C148.365 166.253 148.427 166.137 148.515 166.045C148.712 165.816 148.918 165.593 149.112 165.362C149.395 165.023 149.676 164.682 149.948 164.338C150.047 164.204 150.178 164.096 150.329 164.025C150.48 163.954 150.646 163.921 150.813 163.929C154.098 163.936 157.384 163.936 160.671 163.929C161.024 163.929 161.32 164.01 161.5 164.338C161.68 164.667 161.588 164.953 161.398 165.238C161.047 165.78 160.703 166.325 160.351 166.867C160.327 166.895 160.311 166.928 160.305 166.965C160.299 167.001 160.304 167.038 160.317 167.072C160.441 167.364 160.371 167.63 160.199 167.881C159.921 168.291 159.647 168.692 159.372 169.098C159.353 169.124 159.339 169.154 159.31 169.2C159.456 169.327 159.601 169.455 159.746 169.581C161.125 170.785 162.504 171.988 163.882 173.192C163.984 173.285 164.119 173.334 164.257 173.328C165.77 173.324 167.282 173.324 168.793 173.328C168.867 173.328 168.941 173.328 169.014 173.328C169.478 173.346 169.78 173.635 169.796 174.101C169.806 174.395 169.796 174.69 169.796 174.985C169.796 175.352 169.796 175.719 169.796 176.116C169.868 176.116 169.954 176.125 170.04 176.126C170.784 176.126 171.527 176.126 172.271 176.126C172.377 176.124 172.483 176.133 172.587 176.154C172.74 176.184 172.88 176.263 172.985 176.38C173.09 176.496 173.155 176.643 173.17 176.799C173.177 176.855 173.18 176.912 173.18 176.97C173.18 177.51 173.172 178.05 173.18 178.59C173.187 178.701 173.17 178.811 173.131 178.915C173.092 179.018 173.031 179.112 172.953 179.191C172.875 179.269 172.781 179.33 172.678 179.369C172.575 179.408 172.464 179.425 172.354 179.418C171.864 179.4 171.372 179.418 170.883 179.418H170.576C170.67 179.521 170.725 179.584 170.781 179.643C171.529 180.387 172.282 181.125 173.029 181.872C173.282 182.12 173.452 182.439 173.517 182.787C173.582 183.135 173.538 183.495 173.392 183.817C173.3 184.017 173.175 184.2 173.022 184.359C172.149 185.267 171.264 186.161 170.384 187.062C169.771 187.688 169.149 188.303 168.556 188.945C167.822 189.739 166.6 189.64 165.937 188.945C164.881 187.828 163.791 186.739 162.703 185.658C161.534 184.503 160.353 183.36 159.16 182.23C157.213 180.388 155.224 178.591 153.194 176.842C153.162 176.789 153.119 176.758 153.05 176.707ZM159.63 167.355C159.501 167.349 159.426 167.342 159.346 167.342C156.002 167.342 152.659 167.342 149.316 167.342C149.237 167.338 149.157 167.354 149.085 167.388C149.012 167.421 148.949 167.472 148.9 167.535C146.942 169.758 144.815 171.825 142.538 173.717C139.276 176.449 135.778 178.842 132.119 181.003C131.914 181.124 131.71 181.235 131.505 181.364C131.327 181.468 131.186 181.625 131.1 181.813C131.015 182.002 130.991 182.212 131.03 182.415C131.072 182.616 131.164 182.803 131.298 182.959C132.24 184.235 133.182 185.511 134.123 186.789C134.43 187.198 134.722 187.608 135.028 188.011C135.294 188.363 135.648 188.516 136.083 188.42C136.24 188.379 136.39 188.312 136.525 188.222C139.183 186.591 141.775 184.87 144.286 183.025C147.308 180.805 150.199 178.428 152.882 175.806C152.927 175.762 152.978 175.723 153.029 175.68C153.095 175.734 153.154 175.782 153.208 175.827C154.544 177.007 155.891 178.175 157.213 179.37C159.816 181.725 162.334 184.165 164.803 186.659C165.366 187.228 165.927 187.804 166.483 188.379C166.658 188.576 166.9 188.702 167.162 188.733C167.321 188.75 167.482 188.73 167.632 188.674C167.782 188.617 167.916 188.526 168.024 188.407C168.692 187.725 169.359 187.04 170.027 186.353C170.839 185.521 171.651 184.691 172.462 183.861C172.625 183.709 172.735 183.51 172.776 183.291C172.808 183.117 172.795 182.938 172.739 182.77C172.682 182.603 172.583 182.453 172.452 182.335C171.283 181.19 170.117 180.044 168.952 178.897C168.886 178.832 168.823 178.764 168.759 178.699C168.767 178.682 168.775 178.667 168.782 178.652H172.42V176.869H164.59C164.5 176.869 164.41 176.869 164.32 176.862C164.294 176.863 164.268 176.858 164.243 176.848C164.219 176.837 164.197 176.822 164.179 176.803C164.161 176.783 164.148 176.76 164.14 176.735C164.131 176.71 164.128 176.684 164.131 176.657C164.131 176.535 164.131 176.412 164.131 176.289C164.131 175.872 164.138 175.864 164.555 175.864H169.039V174.072H168.732C167.155 174.072 165.578 174.072 163.999 174.072C163.838 174.078 163.68 174.02 163.561 173.911C161.861 172.427 160.158 170.946 158.45 169.469C158.391 169.418 158.334 169.367 158.28 169.315L159.63 167.355ZM160.845 164.672C160.743 164.667 160.687 164.663 160.632 164.662C157.371 164.662 154.11 164.662 150.85 164.662C150.79 164.659 150.731 164.671 150.678 164.696C150.624 164.722 150.578 164.76 150.543 164.808C150.097 165.351 149.641 165.886 149.19 166.425C149.162 166.467 149.137 166.512 149.116 166.558H159.318C159.375 166.558 159.432 166.558 159.489 166.558C159.534 166.564 159.579 166.556 159.619 166.536C159.659 166.516 159.692 166.484 159.713 166.444C159.935 166.1 160.164 165.762 160.385 165.42C160.532 165.188 160.675 164.951 160.845 164.676V164.672Z" fill="#FF1647"/>
<path d="M87.5689 166.987C87.5781 167.02 87.5853 167.051 87.5965 167.082C87.6535 167.224 87.665 167.38 87.6295 167.528C87.5939 167.677 87.5131 167.811 87.3982 167.911C87.0793 168.218 86.7624 168.525 86.4373 168.821C85.5446 169.64 84.6195 170.418 83.662 171.156C83.0088 171.658 82.1584 171.708 81.5154 171.25C81.2965 171.079 81.0948 170.887 80.9133 170.677C80.4482 170.184 79.9933 169.682 79.5313 169.185C79.4884 169.137 79.4373 169.099 79.3606 169.03C79.334 169.216 79.3095 169.373 79.2901 169.53C79.0376 171.545 78.6767 173.537 77.9939 175.458C77.2821 177.466 76.2873 179.362 75.0397 181.088C74.341 182.046 73.5776 182.954 72.7551 183.808C71.4169 185.21 69.952 186.486 68.379 187.618C67.1653 188.491 65.9025 189.293 64.5969 190.02C64.387 190.148 64.1541 190.234 63.9114 190.272C63.6686 190.309 63.4208 190.299 63.1821 190.241C62.7589 190.138 62.4431 189.876 62.1712 189.545C61.0127 188.139 59.8518 186.733 58.6885 185.329C58.4646 185.059 58.2387 184.789 58.0169 184.516C57.7809 184.235 57.6369 183.887 57.6041 183.521C57.5714 183.155 57.6516 182.788 57.8339 182.469C58.0051 182.168 58.2611 181.926 58.5699 181.771C59.3499 181.361 60.1349 180.957 60.9006 180.519C62.3487 179.707 63.6996 178.731 64.927 177.612C66.7322 175.939 68.101 173.973 68.8574 171.608C69.1257 170.715 69.3158 169.8 69.4258 168.874C69.4932 168.381 69.5382 167.883 69.6036 167.389C69.622 167.246 69.7058 167.109 69.7058 166.966C69.7058 166.824 69.622 166.699 69.6261 166.566C69.6374 166.167 69.6752 165.767 69.7018 165.367C69.7171 165.139 69.7294 164.911 69.7457 164.682C69.7794 164.222 70.082 163.935 70.5441 163.924C70.6177 163.924 70.6913 163.924 70.7649 163.924H88.494C88.6 163.92 88.7062 163.922 88.8119 163.93C88.9476 163.939 89.0783 163.985 89.1898 164.063C89.3013 164.141 89.3894 164.248 89.4447 164.372C89.5077 164.493 89.5331 164.63 89.5174 164.766C89.5017 164.902 89.4458 165.029 89.3568 165.133C89.1523 165.384 88.9213 165.62 88.6933 165.855C88.3233 166.229 87.9451 166.606 87.5689 166.987ZM70.3733 167.355C70.3652 167.432 70.359 167.487 70.3519 167.543C70.2558 168.281 70.174 169.021 70.0626 169.756C69.7873 171.607 69.1281 173.38 68.1276 174.96C67.0328 176.7 65.6252 178.142 63.9958 179.378C62.4678 180.519 60.836 181.513 59.1219 182.347C59.0268 182.394 58.9297 182.438 58.8398 182.494C58.7243 182.565 58.6241 182.658 58.5452 182.768C58.4663 182.878 58.4103 183.002 58.3805 183.135C58.3508 183.267 58.3478 183.403 58.372 183.537C58.3961 183.67 58.4467 183.797 58.5209 183.91C58.5803 183.998 58.6451 184.083 58.7151 184.163L60.9803 186.907C61.5844 187.638 62.1916 188.367 62.7916 189.102C63.0574 189.429 63.3906 189.581 63.8046 189.512C63.965 189.48 64.1181 189.42 64.2565 189.333C65.1989 188.76 66.1557 188.207 67.0716 187.592C69.4829 185.998 71.6478 184.058 73.4972 181.834C75.6173 179.265 77.1097 176.376 77.8927 173.133C78.3016 171.419 78.5367 169.677 78.7013 167.925C78.7186 167.742 78.7309 167.559 78.7462 167.363L70.3733 167.355ZM70.3733 166.559H86.5917C86.6566 166.564 86.722 166.564 86.7869 166.559C86.85 166.55 86.9101 166.526 86.9627 166.49C87.0663 166.411 87.164 166.324 87.2551 166.23C87.7144 165.765 88.1713 165.297 88.6259 164.827C88.6625 164.781 88.6966 164.734 88.7281 164.684H70.5144C70.4653 165.308 70.4245 165.915 70.3774 166.56L70.3733 166.559ZM78.871 167.357L79.61 168.158C80.3119 168.914 81.0118 169.67 81.7096 170.426C81.8372 170.576 82.0028 170.69 82.189 170.754C82.3612 170.808 82.5444 170.818 82.7214 170.782C82.8984 170.746 83.0634 170.666 83.201 170.549C84.4315 169.602 85.6088 168.588 86.7276 167.511C86.7644 167.475 86.7941 167.43 86.8483 167.363L78.871 167.357Z" fill="#FF1647"/>
<path d="M74.9958 154.398C68.3248 154.398 61.6546 154.398 54.985 154.398C54.8478 154.401 54.7106 154.389 54.5762 154.361C54.4236 154.325 54.2863 154.242 54.1841 154.123C54.082 154.004 54.0202 153.856 54.0078 153.699C54.0023 153.642 54 153.585 54.0007 153.527C54.0007 152.088 54.0007 150.648 54.0007 149.207C53.9936 148.953 54.0429 148.7 54.1449 148.467C54.2468 148.234 54.399 148.027 54.5905 147.859C54.8634 147.608 55.2131 147.455 55.583 147.427C55.7139 147.418 55.8447 147.417 55.9756 147.417C68.6462 147.417 81.3164 147.417 93.9863 147.417C94.1985 147.41 94.4108 147.426 94.6191 147.467C95.4113 147.651 95.9479 148.343 95.9479 149.19C95.9561 149.828 95.9479 150.467 95.9479 151.104C95.9479 151.899 95.9479 152.692 95.9479 153.485C95.9479 154.107 95.6546 154.399 95.028 154.399L74.9958 154.398ZM54.7694 153.638H95.2028V153.382C95.2028 152.024 95.2028 150.666 95.2028 149.308C95.2038 149.226 95.2007 149.144 95.1936 149.063C95.1778 148.866 95.1014 148.678 94.9747 148.526C94.848 148.374 94.6773 148.264 94.4862 148.213C94.3185 148.176 94.1468 148.16 93.9751 148.166C81.3065 148.166 68.639 148.166 55.9725 148.166C55.8825 148.166 55.7926 148.166 55.7026 148.166C55.5055 148.177 55.316 148.246 55.1585 148.365C55.0009 148.484 54.8825 148.648 54.8184 148.835C54.7796 148.959 54.76 149.089 54.7602 149.22C54.7602 150.627 54.7602 152.034 54.7602 153.441C54.7561 153.499 54.7642 153.555 54.7694 153.638Z" fill="#FF1647"/>
<path d="M127.601 165.581C127.601 165.842 127.601 166.104 127.601 166.365C127.601 166.57 127.517 166.749 127.492 166.938C127.468 167.126 127.578 167.319 127.571 167.509C127.553 168.064 127.512 168.618 127.469 169.172C127.38 170.315 127.249 171.451 127.06 172.581C126.753 174.449 126.305 176.279 125.52 178.013C124.721 179.791 123.655 181.436 122.362 182.894C120.909 184.532 119.253 185.929 117.473 187.193C115.622 188.482 113.699 189.663 111.712 190.731C111.49 190.861 111.244 190.947 110.989 190.982C110.734 191.017 110.474 191.001 110.225 190.936C109.827 190.825 109.481 190.578 109.246 190.237C107.987 188.535 106.726 186.834 105.478 185.119C105.023 184.497 104.967 183.823 105.343 183.137C105.535 182.789 105.842 182.563 106.19 182.383C106.989 181.973 107.789 181.564 108.574 181.126C110.233 180.204 111.829 179.181 113.26 177.922C114.691 176.662 115.841 175.174 116.581 173.396C116.971 172.461 117.184 171.481 117.343 170.486C117.51 169.435 117.626 168.38 117.69 167.318C117.823 167.036 117.714 166.751 117.712 166.466C117.712 166.05 117.75 165.633 117.769 165.217C117.777 165.045 117.781 164.874 117.786 164.705C117.801 164.253 118.111 163.926 118.562 163.925C121.332 163.921 124.103 163.921 126.874 163.925C127.341 163.925 127.647 164.251 127.651 164.723C127.651 165.009 127.651 165.296 127.651 165.581H127.601ZM118.464 167.36C118.453 167.463 118.439 167.555 118.432 167.644C118.352 168.852 118.204 170.054 117.987 171.245C117.774 172.472 117.368 173.657 116.784 174.756C115.888 176.406 114.672 177.78 113.222 178.959C111.919 180.001 110.528 180.928 109.065 181.729C108.215 182.202 107.349 182.642 106.486 183.091C106.348 183.154 106.225 183.246 106.126 183.36C106.026 183.474 105.952 183.608 105.908 183.754C105.806 184.115 105.908 184.428 106.125 184.72C107.365 186.397 108.603 188.075 109.837 189.755C109.993 189.989 110.232 190.152 110.506 190.213C110.78 190.274 111.066 190.226 111.306 190.081C112.816 189.249 114.31 188.389 115.751 187.439C117.522 186.272 119.213 185.003 120.732 183.514C123.525 180.773 125.344 177.506 126.094 173.65C126.461 171.688 126.7 169.705 126.809 167.712C126.817 167.601 126.809 167.488 126.809 167.361L118.464 167.36ZM126.909 164.679H118.556C118.526 165.3 118.496 165.917 118.467 166.529C118.774 166.582 126.636 166.569 126.838 166.513C126.862 165.912 126.884 165.308 126.909 164.679Z" fill="#FF1647"/>
<path d="M135.672 154.398C135.542 154.4 135.411 154.389 135.283 154.363C135.121 154.33 134.975 154.242 134.87 154.114C134.765 153.986 134.708 153.825 134.708 153.659C134.702 152.702 134.69 151.745 134.715 150.793C134.737 149.956 135.49 149.234 136.324 149.197C136.439 149.192 136.553 149.197 136.668 149.197C145.501 149.197 154.335 149.197 163.169 149.197C163.365 149.19 163.561 149.203 163.754 149.238C164.137 149.324 164.479 149.538 164.724 149.844C164.97 150.15 165.104 150.531 165.105 150.923C165.122 151.822 165.116 152.723 165.105 153.623C165.105 154.077 164.784 154.384 164.329 154.405C164.241 154.405 164.15 154.405 164.061 154.405L135.672 154.398ZM135.451 153.638H164.337C164.347 153.586 164.355 153.534 164.359 153.481C164.359 152.647 164.359 151.812 164.359 150.977C164.359 150.317 163.82 149.937 163.266 149.938C154.366 149.945 145.465 149.945 136.564 149.938C135.863 149.938 135.432 150.45 135.446 151.058C135.465 151.835 135.446 152.612 135.446 153.389L135.451 153.638Z" fill="#FF1647"/>
<path d="M108.34 163.922C108.422 163.922 108.504 163.922 108.585 163.922C109.003 163.941 109.322 164.229 109.333 164.65C109.35 165.287 109.362 165.927 109.327 166.563C109.311 166.826 109.249 167.081 109.337 167.341C109.343 167.381 109.343 167.422 109.337 167.463C109.337 169.467 109.337 171.471 109.337 173.475C109.343 173.709 109.301 173.941 109.215 174.158C109.129 174.376 108.999 174.573 108.835 174.739C108.677 174.906 108.487 175.038 108.276 175.129C108.065 175.22 107.838 175.267 107.608 175.267C107.167 175.272 106.726 175.267 106.285 175.267C104.666 175.267 103.049 175.273 101.431 175.267C100.67 175.267 100.133 174.885 99.8119 174.2C99.711 173.957 99.6649 173.695 99.677 173.433C99.677 171.504 99.677 169.574 99.677 167.643C99.6642 167.529 99.667 167.414 99.6851 167.301C99.7526 167.061 99.7025 166.832 99.6902 166.595C99.6586 165.942 99.6698 165.286 99.6831 164.632C99.6891 164.445 99.7667 164.267 99.8998 164.135C100.033 164.004 100.212 163.928 100.399 163.925C100.545 163.917 100.692 163.925 100.839 163.925L108.34 163.922ZM100.44 167.361C100.434 167.447 100.426 167.519 100.426 167.591C100.426 169.546 100.426 171.501 100.426 173.455C100.426 174.106 100.848 174.525 101.505 174.526C103.499 174.526 105.491 174.526 107.486 174.526C107.632 174.533 107.779 174.51 107.916 174.457C108.054 174.404 108.178 174.324 108.283 174.22C108.387 174.116 108.468 173.992 108.522 173.855C108.576 173.717 108.6 173.571 108.594 173.424C108.578 171.485 108.589 169.547 108.588 167.608C108.588 167.529 108.579 167.45 108.574 167.361H100.44ZM100.433 166.542H108.557C108.607 166.255 108.594 164.847 108.542 164.68C108.024 164.633 100.619 164.655 100.433 164.705V166.542Z" fill="#FF1647"/>
<path d="M122.762 154.398C121.431 154.398 120.099 154.398 118.766 154.398C118.645 154.398 118.524 154.384 118.407 154.355C118.246 154.315 118.103 154.223 118.001 154.094C117.898 153.964 117.842 153.803 117.841 153.638C117.841 153.597 117.841 153.556 117.841 153.515V145.788C117.841 145.01 118.21 144.463 118.907 144.15C119.116 144.058 119.342 144.01 119.57 144.008C121.695 143.997 123.82 143.997 125.946 144.008C126.175 144.007 126.403 144.052 126.615 144.14C126.827 144.228 127.02 144.358 127.181 144.521C127.343 144.684 127.471 144.878 127.557 145.091C127.643 145.305 127.686 145.533 127.683 145.763C127.693 146.72 127.683 147.677 127.683 148.634V153.421C127.683 153.495 127.683 153.568 127.683 153.642C127.679 153.837 127.602 154.023 127.468 154.163C127.333 154.304 127.151 154.388 126.957 154.401C126.876 154.408 126.793 154.401 126.711 154.401L122.762 154.398ZM118.587 153.632H126.928V148.812C126.928 147.807 126.928 146.801 126.928 145.796C126.928 145.181 126.519 144.767 125.906 144.743C125.849 144.743 125.791 144.743 125.734 144.743H119.774C119.7 144.743 119.626 144.743 119.554 144.743C119.126 144.787 118.81 144.993 118.66 145.401C118.609 145.565 118.585 145.736 118.59 145.907C118.586 148.384 118.586 150.862 118.59 153.341L118.587 153.632Z" fill="#FF1647"/>
<path d="M104.486 154.398C103.187 154.398 101.888 154.398 100.59 154.398C100.476 154.4 100.362 154.388 100.25 154.364C100.094 154.327 99.9538 154.24 99.8513 154.116C99.7489 153.992 99.6898 153.838 99.6831 153.677C99.6831 153.629 99.6831 153.58 99.6831 153.53C99.6831 151.559 99.6831 149.588 99.6831 147.618C99.6739 147.359 99.7217 147.102 99.8231 146.864C99.9245 146.626 100.077 146.414 100.27 146.242C100.554 145.977 100.922 145.822 101.309 145.804C101.391 145.804 101.473 145.799 101.555 145.799H107.462C107.732 145.782 108.003 145.826 108.254 145.926C108.912 146.228 109.284 146.734 109.339 147.461C109.346 147.551 109.339 147.641 109.339 147.731V153.448C109.339 153.505 109.339 153.562 109.339 153.62C109.339 153.823 109.259 154.018 109.118 154.163C108.976 154.308 108.783 154.392 108.58 154.398C108.507 154.398 108.433 154.398 108.36 154.398H104.486ZM100.426 153.632H108.584V147.709C108.587 147.619 108.583 147.529 108.574 147.44C108.559 147.25 108.487 147.07 108.368 146.922C108.249 146.773 108.089 146.664 107.908 146.608C107.76 146.564 107.605 146.544 107.451 146.549C105.826 146.549 104.2 146.549 102.575 146.549C102.191 146.549 101.806 146.544 101.423 146.549C101.196 146.548 100.976 146.626 100.8 146.769C100.624 146.912 100.502 147.112 100.457 147.334C100.434 147.454 100.424 147.577 100.427 147.7C100.427 149.588 100.427 151.476 100.427 153.365L100.426 153.632Z" fill="#FF1647"/>
<path d="M82.0756 162.064V156.299C82.1563 156.293 82.2269 156.284 82.2984 156.284C82.9925 156.284 83.6866 156.273 84.3807 156.284C84.6493 156.289 84.9159 156.331 85.1729 156.41C85.7463 156.593 86.0387 157.024 86.1041 157.611C86.1169 157.733 86.1189 157.855 86.1102 157.977C86.1046 158.187 86.0404 158.392 85.9247 158.567C85.8091 158.743 85.6468 158.882 85.456 158.97C85.363 159.017 85.2638 159.052 85.1269 159.109C85.1541 159.125 85.1824 159.138 85.2117 159.148C85.9671 159.345 86.2799 160.033 86.1818 160.745C86.0796 161.487 85.5889 161.961 84.8396 162.057C84.7509 162.07 84.6615 162.078 84.5718 162.08C83.7711 162.08 82.9707 162.08 82.1706 162.08C82.1385 162.078 82.1066 162.073 82.0756 162.064ZM83.0262 161.182H83.2981C83.6733 161.182 84.0484 161.188 84.4226 161.173C84.5603 161.162 84.6954 161.129 84.8233 161.077C84.9695 161.022 85.0884 160.912 85.1545 160.77C85.4305 160.217 85.0982 159.604 84.4849 159.572C84.0137 159.548 83.5404 159.572 83.0671 159.572C83.0549 159.572 83.0416 159.59 83.0252 159.603L83.0262 161.182ZM83.0262 158.657C83.5373 158.657 84.0249 158.657 84.5125 158.657C84.5776 158.653 84.6418 158.64 84.7026 158.616C84.789 158.591 84.8688 158.547 84.9363 158.487C85.0037 158.428 85.0573 158.354 85.0931 158.271C85.3252 157.737 85.0287 157.241 84.4512 157.2C84.3786 157.2 84.305 157.2 84.2314 157.2H83.0273L83.0262 158.657Z" fill="#FF1647"/>
<path d="M97.0049 156.29C97.0969 156.285 97.1685 156.278 97.24 156.278C97.9423 156.278 98.6445 156.278 99.3478 156.278C99.5273 156.277 99.7064 156.296 99.8814 156.336C100.135 156.392 100.368 156.515 100.558 156.692C100.748 156.869 100.887 157.094 100.961 157.343C101.097 157.749 101.1 158.188 100.97 158.597C100.91 158.81 100.802 159.007 100.655 159.174C100.508 159.34 100.326 159.471 100.122 159.557L99.9499 159.635L101.288 162.064C101.224 162.076 101.16 162.084 101.096 162.088C100.85 162.088 100.605 162.081 100.36 162.094C100.296 162.101 100.232 162.086 100.177 162.052C100.123 162.018 100.081 161.967 100.059 161.906C99.7158 161.247 99.3642 160.592 99.0146 159.936C98.9757 159.863 98.9369 159.792 98.8847 159.697H97.9484V162.083C97.6223 162.098 97.3197 162.096 97.0049 162.083V156.29ZM97.9627 158.776C98.4738 158.776 98.9645 158.781 99.4531 158.776C99.5517 158.774 99.6481 158.746 99.7325 158.695C99.8168 158.643 99.8862 158.571 99.9335 158.484C100.036 158.316 100.083 158.119 100.065 157.922C100.028 157.435 99.7424 157.169 99.2936 157.198C99.1076 157.211 98.9195 157.198 98.7314 157.198H97.9627V158.776Z" fill="#FF1647"/>
<path d="M144.457 160.468V156.299H145.333C145.389 156.486 145.4 161.784 145.342 162.086C145.035 162.086 144.729 162.086 144.422 162.086C144.368 162.076 144.32 162.047 144.286 162.004C144.246 161.952 144.212 161.895 144.184 161.836C143.502 160.626 142.818 159.416 142.13 158.207C142.087 158.129 142.04 158.053 141.985 157.959C141.907 158.048 141.936 158.138 141.936 158.218C141.936 159.404 141.936 160.59 141.936 161.777V162.078H141.058C141.007 161.9 140.994 156.596 141.048 156.292C141.354 156.292 141.661 156.284 141.968 156.298C142.027 156.298 142.099 156.385 142.135 156.448C142.376 156.867 142.609 157.288 142.844 157.71L144.275 160.28L144.395 160.484L144.457 160.468Z" fill="#FF1647"/>
<path d="M122.095 159.638C122.541 160.447 122.981 161.246 123.442 162.082C123.262 162.082 123.119 162.09 122.976 162.091C122.833 162.092 122.664 162.083 122.51 162.091C122.446 162.101 122.38 162.088 122.325 162.055C122.269 162.022 122.226 161.971 122.203 161.91C121.88 161.286 121.551 160.665 121.216 160.047C120.983 159.617 121.129 159.707 120.628 159.697C120.458 159.697 120.29 159.697 120.099 159.697V162.078C119.775 162.099 119.471 162.091 119.157 162.078V156.278H119.411C120.097 156.278 120.783 156.273 121.469 156.278C121.665 156.276 121.861 156.299 122.051 156.345C122.684 156.513 123.043 156.951 123.165 157.581C123.228 157.896 123.217 158.221 123.134 158.53C123.078 158.757 122.97 158.968 122.819 159.146C122.667 159.323 122.477 159.463 122.262 159.554C122.213 159.582 122.161 159.607 122.095 159.638ZM120.106 158.776C120.623 158.776 121.112 158.782 121.599 158.776C121.71 158.772 121.816 158.737 121.907 158.674C121.998 158.611 122.068 158.523 122.11 158.421C122.214 158.205 122.237 157.96 122.175 157.729C122.091 157.384 121.868 157.206 121.506 157.202C121.091 157.202 120.675 157.202 120.26 157.202C120.206 157.207 120.153 157.215 120.101 157.227L120.106 158.776Z" fill="#FF1647"/>
<path d="M104.517 156.315C104.537 156.304 104.558 156.296 104.58 156.29C105.331 156.298 106.084 156.271 106.829 156.324C107.916 156.403 108.598 157.162 108.616 158.254C108.627 158.875 108.627 159.496 108.616 160.117C108.598 161.214 107.901 161.969 106.807 162.062C106.352 162.1 105.893 162.088 105.436 162.095C105.136 162.095 104.835 162.095 104.541 162.095C104.492 161.891 104.473 156.709 104.517 156.315ZM105.467 161.173C105.85 161.173 106.201 161.178 106.551 161.173C106.666 161.168 106.779 161.149 106.889 161.116C107.097 161.067 107.283 160.95 107.418 160.783C107.552 160.616 107.628 160.409 107.632 160.195C107.648 159.524 107.649 158.854 107.632 158.184C107.627 157.969 107.55 157.761 107.413 157.595C107.276 157.429 107.087 157.314 106.876 157.269C106.734 157.235 106.588 157.216 106.441 157.213C106.18 157.204 105.919 157.213 105.658 157.213C105.596 157.213 105.533 157.223 105.468 157.229L105.467 161.173Z" fill="#FF1647"/>
<path d="M148.929 162.092V156.284H149.175C149.714 156.284 150.254 156.284 150.792 156.284C151.136 156.278 151.478 156.333 151.803 156.446C152.508 156.706 152.897 157.22 152.999 157.954C153.027 158.181 153.038 158.41 153.034 158.639C153.034 159.186 153.055 159.737 153.01 160.282C152.923 161.325 152.246 161.985 151.196 162.059C150.619 162.1 150.037 162.082 149.458 162.09C149.292 162.094 149.121 162.092 148.929 162.092ZM149.891 157.209C149.839 157.602 149.857 160.996 149.911 161.172C150.267 161.172 150.627 161.191 150.984 161.172C151.655 161.129 152.041 160.733 152.056 160.072C152.069 159.484 152.069 158.895 152.056 158.307C152.041 157.662 151.669 157.265 151.034 157.218C150.655 157.186 150.279 157.209 149.891 157.209Z" fill="#FF1647"/>
<path d="M93.5734 159.166C93.5539 159.591 93.5631 160.01 93.51 160.422C93.3822 161.41 92.6186 162.086 91.6209 162.109C91.3598 162.121 91.0982 162.097 90.8441 162.035C90.057 161.822 89.6072 161.281 89.4447 160.491C89.4133 160.331 89.3972 160.168 89.3966 160.004C89.3915 159.44 89.3803 158.878 89.3966 158.311C89.4028 158.033 89.4497 157.757 89.5356 157.492C89.7912 156.75 90.3391 156.337 91.1047 156.222C91.4456 156.164 91.7951 156.184 92.1269 156.281C92.9171 156.522 93.3812 157.066 93.5018 157.873C93.5672 158.307 93.5539 158.744 93.5734 159.166ZM92.5726 159.166C92.5726 158.859 92.5818 158.544 92.5726 158.234C92.5491 157.607 92.1433 157.178 91.5637 157.151C90.9166 157.122 90.4505 157.466 90.4086 158.117C90.3624 158.841 90.3679 159.568 90.425 160.292C90.4679 160.842 90.9074 161.167 91.4564 161.175C92.0053 161.183 92.4295 160.861 92.5409 160.314C92.5615 160.21 92.5725 160.104 92.5736 159.998C92.5757 159.722 92.5726 159.444 92.5726 159.166Z" fill="#FF1647"/>
<path d="M115.861 157.209H113.021V158.744H115.411V159.651H113.022V161.169H115.851V162.045C115.672 162.099 112.353 162.11 112.069 162.057V156.299H115.851C115.876 156.595 115.851 156.885 115.861 157.209Z" fill="#FF1647"/>
<path d="M135.824 156.284L137.999 162.083C137.811 162.083 137.652 162.09 137.488 162.091C137.325 162.092 137.162 162.091 136.977 162.091C136.847 161.725 136.72 161.366 136.59 160.997H134.364L133.985 162.076H132.988C132.996 162.019 133.008 161.962 133.024 161.906C133.702 160.094 134.381 158.281 135.059 156.468C135.109 156.335 135.171 156.264 135.322 156.28C135.474 156.296 135.647 156.284 135.824 156.284ZM135.503 157.84H135.452C135.201 158.57 134.948 159.3 134.682 160.071C135.228 160.071 135.734 160.077 136.275 160.065L135.503 157.84Z" fill="#FF1647"/>
<path d="M130.429 162.076H126.687C126.638 161.893 126.625 156.594 126.673 156.301H127.593V161.172H130.424L130.429 162.076Z" fill="#FF1647"/>
<path d="M176.334 176.098C176.628 176.098 176.922 176.098 177.216 176.098C177.666 176.107 177.979 176.395 177.989 176.845C178.004 177.44 178.004 178.038 177.989 178.634C177.979 179.08 177.665 179.378 177.215 179.384C176.619 179.393 176.024 179.394 175.428 179.384C175.329 179.388 175.23 179.372 175.138 179.336C175.046 179.301 174.961 179.247 174.89 179.178C174.819 179.11 174.763 179.027 174.724 178.936C174.686 178.845 174.667 178.746 174.667 178.647C174.651 178.042 174.651 177.437 174.667 176.832C174.678 176.396 174.991 176.109 175.428 176.101C175.729 176.093 176.032 176.098 176.334 176.098ZM177.232 176.855H175.429V178.622H177.232V176.855Z" fill="#FF1647"/>
<path d="M159.63 167.355L158.287 169.312C158.341 169.363 158.399 169.415 158.457 169.467C160.161 170.947 161.864 172.427 163.568 173.909C163.687 174.018 163.845 174.076 164.006 174.07C165.585 174.07 167.162 174.07 168.739 174.07H169.046V175.858H164.563C164.146 175.858 164.138 175.866 164.138 176.283C164.138 176.406 164.138 176.528 164.138 176.651C164.136 176.678 164.138 176.704 164.147 176.729C164.155 176.754 164.169 176.777 164.187 176.797C164.204 176.816 164.226 176.831 164.251 176.842C164.275 176.852 164.301 176.857 164.327 176.856C164.417 176.863 164.507 176.863 164.597 176.863H172.428V178.645H168.79C168.783 178.661 168.775 178.676 168.767 178.692C168.831 178.758 168.895 178.826 168.96 178.891C170.127 180.037 171.293 181.183 172.46 182.329C172.591 182.447 172.69 182.597 172.747 182.764C172.804 182.932 172.816 183.111 172.784 183.285C172.743 183.503 172.633 183.703 172.47 183.855C171.658 184.684 170.846 185.515 170.035 186.347C169.368 187.029 168.7 187.714 168.032 188.401C167.924 188.52 167.79 188.611 167.64 188.667C167.49 188.724 167.329 188.744 167.17 188.727C166.908 188.696 166.667 188.57 166.491 188.372C165.932 187.798 165.374 187.222 164.811 186.653C162.342 184.159 159.825 181.716 157.221 179.364C155.899 178.169 154.552 177.001 153.216 175.821C153.162 175.773 153.104 175.728 153.037 175.674C152.986 175.717 152.935 175.756 152.89 175.8C150.207 178.422 147.316 180.799 144.294 183.019C141.783 184.861 139.189 186.585 136.534 188.216C136.398 188.306 136.249 188.373 136.091 188.414C135.657 188.509 135.302 188.356 135.036 188.005C134.729 187.6 134.433 187.186 134.131 186.783C133.19 185.506 132.248 184.229 131.306 182.953C131.172 182.797 131.08 182.61 131.038 182.408C130.999 182.206 131.023 181.995 131.109 181.807C131.194 181.619 131.335 181.462 131.514 181.358C131.713 181.229 131.922 181.118 132.127 180.997C135.786 178.836 139.282 176.442 142.546 173.711C144.823 171.818 146.951 169.752 148.908 167.529C148.957 167.466 149.02 167.415 149.093 167.382C149.165 167.348 149.245 167.332 149.325 167.336C152.668 167.342 156.011 167.342 159.354 167.336C159.423 167.346 159.5 167.355 159.63 167.355Z" fill="white"/>
<path d="M160.845 164.676C160.675 164.951 160.532 165.188 160.382 165.421C160.161 165.764 159.932 166.102 159.71 166.445C159.689 166.485 159.656 166.517 159.616 166.537C159.576 166.557 159.531 166.565 159.486 166.559C159.429 166.559 159.372 166.559 159.315 166.559H149.113C149.134 166.513 149.158 166.468 149.187 166.426C149.638 165.887 150.094 165.352 150.54 164.809C150.575 164.761 150.621 164.723 150.675 164.697C150.728 164.672 150.787 164.66 150.847 164.663C154.107 164.663 157.368 164.663 160.629 164.663C160.687 164.667 160.744 164.671 160.845 164.676Z" fill="white"/>
<path d="M70.3733 167.355L78.7452 167.355C78.7299 167.551 78.7176 167.734 78.7002 167.917C78.5357 169.669 78.3016 171.411 77.8917 173.125C77.1128 176.371 75.6203 179.26 73.4962 181.826C71.6468 184.049 69.4819 185.989 67.0706 187.584C66.1506 188.198 65.1979 188.749 64.2554 189.324C64.1171 189.411 63.9639 189.472 63.8036 189.504C63.3947 189.575 63.0564 189.423 62.7906 189.094C62.1906 188.359 61.5834 187.63 60.9793 186.899L58.7141 184.157C58.6441 184.077 58.5793 183.992 58.5198 183.904C58.4457 183.791 58.395 183.664 58.3709 183.53C58.3468 183.397 58.3497 183.26 58.3795 183.128C58.4093 182.996 58.4652 182.872 58.5441 182.762C58.623 182.652 58.7232 182.559 58.8388 182.488C58.9287 182.432 59.0258 182.386 59.1209 182.341C60.835 181.507 62.4668 180.513 63.9948 179.372C65.6242 178.136 67.0317 176.692 68.1265 174.954C69.1271 173.373 69.7862 171.601 70.0616 169.75C70.173 169.015 70.2548 168.274 70.3509 167.536C70.3631 167.488 70.3631 167.433 70.3733 167.355Z" fill="white"/>
<path d="M70.3774 166.56C70.4245 165.915 70.4694 165.306 70.5144 164.682H88.7322C88.7007 164.732 88.6666 164.779 88.63 164.825C88.1734 165.294 87.7151 165.762 87.2551 166.229C87.164 166.323 87.0663 166.41 86.9627 166.489C86.9101 166.525 86.85 166.549 86.7869 166.558C86.722 166.563 86.6566 166.563 86.5917 166.558H70.3774V166.56Z" fill="white"/>
<path d="M78.875 167.355H86.8483C86.7941 167.422 86.7644 167.467 86.7276 167.503C85.6088 168.58 84.4315 169.594 83.201 170.541C83.0634 170.658 82.8984 170.738 82.7214 170.774C82.5444 170.81 82.3612 170.8 82.189 170.746C82.0037 170.684 81.8382 170.573 81.7096 170.426C81.0118 169.671 80.3123 168.916 79.611 168.161L78.875 167.355Z" fill="white"/>
<path d="M54.7694 153.638C54.7642 153.559 54.7561 153.503 54.7561 153.447C54.7561 152.039 54.7561 150.632 54.7561 149.225C54.7559 149.094 54.7755 148.965 54.8143 148.84C54.8784 148.653 54.9968 148.489 55.1544 148.37C55.3119 148.251 55.5014 148.182 55.6985 148.171C55.7885 148.166 55.8785 148.171 55.9684 148.171C68.6356 148.171 81.3031 148.171 93.971 148.171C94.1427 148.165 94.3145 148.181 94.4821 148.219C94.6732 148.27 94.8439 148.379 94.9706 148.531C95.0973 148.683 95.1737 148.871 95.1895 149.068C95.1966 149.15 95.1997 149.231 95.1987 149.313C95.1987 150.672 95.1987 152.03 95.1987 153.387V153.638L54.7694 153.638Z" fill="white"/>
<path d="M118.464 167.36L126.812 167.36C126.812 167.487 126.819 167.6 126.812 167.711C126.703 169.704 126.464 171.687 126.097 173.649C125.347 177.505 123.528 180.772 120.735 183.513C119.216 185.002 117.525 186.271 115.754 187.438C114.313 188.388 112.819 189.248 111.309 190.08C111.069 190.225 110.783 190.273 110.509 190.212C110.235 190.151 109.996 189.987 109.84 189.754C108.613 188.07 107.376 186.392 106.128 184.719C105.913 184.427 105.808 184.114 105.911 183.752C105.955 183.607 106.029 183.473 106.129 183.359C106.229 183.245 106.351 183.153 106.489 183.09C107.352 182.641 108.219 182.201 109.068 181.728C110.531 180.927 111.922 180 113.225 178.958C114.675 177.779 115.891 176.405 116.787 174.755C117.37 173.657 117.775 172.472 117.987 171.245C118.204 170.054 118.352 168.852 118.432 167.644C118.439 167.56 118.453 167.467 118.464 167.36Z" fill="white"/>
<path d="M126.909 164.679C126.884 165.303 126.862 165.908 126.838 166.513C126.634 166.569 118.777 166.582 118.467 166.529C118.496 165.915 118.526 165.298 118.556 164.679H126.909Z" fill="white"/>
<path d="M135.451 153.638L135.451 153.389C135.451 152.612 135.465 151.835 135.451 151.058C135.437 150.453 135.868 149.938 136.569 149.938C145.471 149.945 154.372 149.945 163.272 149.938C163.826 149.938 164.362 150.317 164.364 150.977C164.364 151.812 164.364 152.647 164.364 153.481C164.36 153.534 164.352 153.586 164.342 153.638H135.451Z" fill="white"/>
<path d="M100.44 167.361L108.57 167.361C108.575 167.45 108.583 167.529 108.583 167.608C108.583 169.547 108.574 171.485 108.59 173.424C108.596 173.571 108.573 173.717 108.52 173.855C108.467 173.992 108.386 174.116 108.282 174.221C108.178 174.325 108.054 174.406 107.917 174.459C107.78 174.513 107.633 174.537 107.487 174.53C105.493 174.521 103.5 174.53 101.506 174.53C100.849 174.53 100.427 174.11 100.427 173.459C100.427 171.504 100.427 169.549 100.427 167.595C100.426 167.519 100.434 167.447 100.44 167.361Z" fill="white"/>
<path d="M100.433 166.543V164.701C100.619 164.651 108.024 164.629 108.542 164.676C108.594 164.843 108.607 166.251 108.557 166.538L100.433 166.543Z" fill="white"/>
<path d="M118.587 153.632V153.344C118.587 150.866 118.587 148.388 118.587 145.91C118.582 145.739 118.606 145.568 118.657 145.404C118.807 144.995 119.123 144.79 119.551 144.746C119.623 144.739 119.697 144.746 119.77 144.746H125.727C125.784 144.746 125.841 144.746 125.899 144.746C126.512 144.77 126.921 145.182 126.921 145.799C126.926 146.804 126.921 147.81 126.921 148.815V153.635L118.587 153.632Z" fill="white"/>
<path d="M100.426 153.632V153.364C100.426 151.475 100.426 149.586 100.426 147.699C100.423 147.576 100.433 147.453 100.456 147.333C100.501 147.111 100.623 146.911 100.799 146.768C100.975 146.624 101.195 146.547 101.422 146.548C101.805 146.542 102.19 146.548 102.574 146.548C104.199 146.548 105.825 146.548 107.45 146.548C107.604 146.543 107.759 146.563 107.907 146.607C108.088 146.663 108.248 146.772 108.367 146.921C108.486 147.069 108.558 147.249 108.573 147.439C108.582 147.528 108.586 147.618 108.583 147.708V153.631L100.426 153.632Z" fill="white"/>
<path d="M177.232 176.855V178.622H175.429V176.855H177.232Z" fill="white"/>
<rect x="114" y="11" width="1" height="125" fill="#FF1647" fill-opacity="0.65"/>
<rect x="115" y="219" width="1" height="102" fill="#FF1647" fill-opacity="0.65"/>
<rect x="7" y="170" width="1" height="37" transform="rotate(-90 7 170)" fill="#FF1647" fill-opacity="0.65"/>
<rect x="187" y="170" width="1" height="37" transform="rotate(-90 187 170)" fill="#FF1647" fill-opacity="0.65"/>
<path d="M84.7969 327.5V332H84.4717V327.5H84.7969ZM87.6451 332.062C87.4693 332.062 87.3082 332.033 87.1617 331.977C87.0152 331.918 86.8883 331.83 86.7809 331.713C86.6754 331.594 86.5934 331.444 86.5348 331.265C86.4762 331.083 86.4469 330.869 86.4469 330.623V330.257C86.4469 329.995 86.4771 329.771 86.5377 329.583C86.6002 329.394 86.6852 329.239 86.7926 329.12C86.9 329.001 87.0221 328.913 87.1588 328.856C87.2955 328.8 87.4391 328.771 87.5895 328.771C87.7633 328.771 87.9166 328.8 88.0494 328.856C88.1822 328.913 88.2926 328.999 88.3805 329.114C88.4703 329.228 88.5377 329.372 88.5826 329.548C88.6295 329.724 88.6529 329.931 88.6529 330.169V330.441H86.6432V330.137H88.3277V330.055C88.3238 329.848 88.2945 329.672 88.2398 329.527C88.1871 329.381 88.107 329.27 87.9996 329.193C87.8922 329.115 87.7564 329.076 87.5924 329.076C87.4713 329.076 87.36 329.099 87.2584 329.144C87.1588 329.187 87.0719 329.255 86.9977 329.349C86.9254 329.442 86.8697 329.564 86.8307 329.715C86.7916 329.865 86.7721 330.046 86.7721 330.257V330.623C86.7721 330.818 86.7926 330.987 86.8336 331.13C86.8766 331.271 86.9371 331.388 87.0152 331.481C87.0953 331.573 87.19 331.643 87.2994 331.689C87.4088 331.734 87.5299 331.757 87.6627 331.757C87.8248 331.757 87.9674 331.729 88.0904 331.672C88.2135 331.615 88.3229 331.53 88.4186 331.417L88.5914 331.634C88.5348 331.712 88.4635 331.783 88.3775 331.848C88.2916 331.912 88.1891 331.964 88.0699 332.003C87.9508 332.042 87.8092 332.062 87.6451 332.062ZM91.2785 328.83V329.123H89.925V328.83H91.2785ZM90.4113 328.019H90.7395V331.227C90.7395 331.373 90.7551 331.483 90.7863 331.558C90.8176 331.632 90.8586 331.682 90.9094 331.707C90.9602 331.73 91.0139 331.742 91.0705 331.742C91.1154 331.742 91.1574 331.739 91.1965 331.733C91.2375 331.728 91.2746 331.721 91.3078 331.713L91.3166 332.012C91.2814 332.025 91.2346 332.036 91.176 332.044C91.1174 332.054 91.0578 332.059 90.9973 332.059C90.8859 332.059 90.7863 332.033 90.6984 331.982C90.6105 331.932 90.5402 331.846 90.4875 331.725C90.4367 331.602 90.4113 331.435 90.4113 331.224V328.019ZM96.1664 328.83V329.123H94.8129V328.83H96.1664ZM95.2992 328.019H95.6273V331.227C95.6273 331.373 95.643 331.483 95.6742 331.558C95.7055 331.632 95.7465 331.682 95.7973 331.707C95.848 331.73 95.9018 331.742 95.9584 331.742C96.0033 331.742 96.0453 331.739 96.0844 331.733C96.1254 331.728 96.1625 331.721 96.1957 331.713L96.2045 332.012C96.1693 332.025 96.1225 332.036 96.0639 332.044C96.0053 332.054 95.9457 332.059 95.8852 332.059C95.7738 332.059 95.6742 332.033 95.5863 331.982C95.4984 331.932 95.4281 331.846 95.3754 331.725C95.3246 331.602 95.2992 331.435 95.2992 331.224V328.019ZM98.1035 327.5V332H97.7783V327.5H98.1035ZM98.0303 330.219L97.8867 330.134C97.8926 329.946 97.9229 329.771 97.9775 329.606C98.0322 329.44 98.1055 329.295 98.1973 329.17C98.291 329.045 98.4014 328.947 98.5283 328.877C98.6553 328.807 98.7969 328.771 98.9531 328.771C99.084 328.771 99.2021 328.793 99.3076 328.836C99.4131 328.879 99.502 328.947 99.5742 329.041C99.6465 329.133 99.7021 329.253 99.7412 329.401C99.7803 329.548 99.7998 329.726 99.7998 329.935V332H99.4775V329.932C99.4775 329.715 99.4531 329.545 99.4043 329.422C99.3555 329.297 99.2852 329.209 99.1934 329.158C99.1035 329.107 98.9951 329.082 98.8682 329.082C98.7334 329.082 98.6143 329.118 98.5107 329.19C98.4072 329.263 98.3203 329.356 98.25 329.472C98.1797 329.587 98.126 329.711 98.0889 329.844C98.0518 329.975 98.0322 330.1 98.0303 330.219ZM102.61 332.062C102.434 332.062 102.273 332.033 102.127 331.977C101.98 331.918 101.853 331.83 101.746 331.713C101.64 331.594 101.558 331.444 101.5 331.265C101.441 331.083 101.412 330.869 101.412 330.623V330.257C101.412 329.995 101.442 329.771 101.503 329.583C101.565 329.394 101.65 329.239 101.757 329.12C101.865 329.001 101.987 328.913 102.124 328.856C102.26 328.8 102.404 328.771 102.554 328.771C102.728 328.771 102.881 328.8 103.014 328.856C103.147 328.913 103.257 328.999 103.345 329.114C103.435 329.228 103.503 329.372 103.547 329.548C103.594 329.724 103.618 329.931 103.618 330.169V330.441H101.608V330.137H103.293V330.055C103.289 329.848 103.259 329.672 103.205 329.527C103.152 329.381 103.072 329.27 102.964 329.193C102.857 329.115 102.721 329.076 102.557 329.076C102.436 329.076 102.325 329.099 102.223 329.144C102.124 329.187 102.037 329.255 101.962 329.349C101.89 329.442 101.835 329.564 101.796 329.715C101.756 329.865 101.737 330.046 101.737 330.257V330.623C101.737 330.818 101.757 330.987 101.798 331.13C101.841 331.271 101.902 331.388 101.98 331.481C102.06 331.573 102.155 331.643 102.264 331.689C102.374 331.734 102.495 331.757 102.628 331.757C102.79 331.757 102.932 331.729 103.055 331.672C103.178 331.615 103.288 331.53 103.383 331.417L103.556 331.634C103.5 331.712 103.428 331.783 103.342 331.848C103.256 331.912 103.154 331.964 103.035 332.003C102.916 332.042 102.774 332.062 102.61 332.062ZM109.209 328.83H109.508V332.079C109.508 332.354 109.465 332.579 109.379 332.753C109.293 332.927 109.171 333.055 109.013 333.137C108.854 333.221 108.667 333.263 108.45 333.263C108.346 333.263 108.235 333.245 108.116 333.21C107.999 333.177 107.888 333.127 107.782 333.061C107.679 332.996 107.591 332.918 107.518 332.826L107.671 332.592C107.78 332.715 107.898 332.807 108.025 332.867C108.152 332.93 108.286 332.961 108.427 332.961C108.589 332.961 108.726 332.932 108.84 332.873C108.953 332.816 109.039 332.725 109.097 332.598C109.156 332.471 109.185 332.302 109.185 332.091V329.527L109.209 328.83ZM107.346 330.564V330.269C107.346 330.003 107.369 329.775 107.416 329.586C107.463 329.395 107.531 329.239 107.621 329.12C107.713 328.999 107.822 328.911 107.949 328.856C108.076 328.8 108.22 328.771 108.38 328.771C108.534 328.771 108.669 328.8 108.784 328.856C108.901 328.913 109.001 328.994 109.083 329.1C109.165 329.205 109.231 329.331 109.282 329.478C109.333 329.624 109.37 329.787 109.393 329.967V330.916C109.374 331.082 109.339 331.235 109.288 331.376C109.239 331.517 109.173 331.638 109.089 331.739C109.007 331.841 108.906 331.92 108.787 331.977C108.67 332.033 108.532 332.062 108.374 332.062C108.216 332.062 108.073 332.031 107.946 331.971C107.819 331.91 107.711 331.818 107.621 331.695C107.531 331.572 107.463 331.417 107.416 331.229C107.369 331.042 107.346 330.82 107.346 330.564ZM107.674 330.269V330.564C107.674 330.77 107.688 330.946 107.718 331.095C107.749 331.243 107.796 331.366 107.858 331.464C107.921 331.56 108 331.631 108.096 331.678C108.193 331.725 108.308 331.748 108.441 331.748C108.605 331.748 108.743 331.714 108.854 331.646C108.966 331.575 109.054 331.483 109.118 331.37C109.184 331.255 109.234 331.13 109.267 330.995V329.908C109.248 329.814 109.22 329.72 109.182 329.624C109.145 329.528 109.095 329.439 109.03 329.357C108.968 329.273 108.888 329.207 108.793 329.158C108.697 329.107 108.581 329.082 108.444 329.082C108.311 329.082 108.196 329.106 108.098 329.155C108.001 329.202 107.921 329.274 107.858 329.372C107.796 329.468 107.749 329.59 107.718 329.738C107.688 329.887 107.674 330.063 107.674 330.269ZM112.892 331.432V329.706C112.892 329.558 112.867 329.438 112.816 329.346C112.765 329.252 112.691 329.184 112.593 329.141C112.496 329.098 112.374 329.076 112.23 329.076C112.095 329.076 111.976 329.104 111.872 329.158C111.769 329.211 111.688 329.285 111.629 329.381C111.571 329.475 111.541 329.583 111.541 329.706L111.216 329.703C111.216 329.582 111.241 329.465 111.289 329.352C111.34 329.238 111.411 329.139 111.5 329.053C111.59 328.965 111.698 328.896 111.823 328.848C111.95 328.797 112.09 328.771 112.245 328.771C112.432 328.771 112.599 328.802 112.746 328.862C112.892 328.923 113.006 329.022 113.088 329.161C113.172 329.3 113.214 329.483 113.214 329.712V331.335C113.214 331.444 113.221 331.558 113.235 331.675C113.25 331.792 113.272 331.889 113.299 331.965V332H112.956C112.935 331.93 112.918 331.842 112.907 331.736C112.897 331.631 112.892 331.529 112.892 331.432ZM112.962 330.151L112.968 330.427H112.406C112.251 330.427 112.117 330.443 112.001 330.477C111.886 330.51 111.789 330.558 111.711 330.62C111.635 330.683 111.578 330.758 111.538 330.846C111.499 330.932 111.48 331.028 111.48 331.136C111.48 331.276 111.502 331.392 111.547 331.481C111.594 331.571 111.661 331.638 111.746 331.681C111.832 331.722 111.937 331.742 112.06 331.742C112.218 331.742 112.359 331.71 112.482 331.646C112.605 331.581 112.705 331.496 112.784 331.391C112.862 331.285 112.913 331.173 112.936 331.054L113.024 331.25C113.004 331.34 112.968 331.432 112.915 331.525C112.863 331.619 112.794 331.707 112.71 331.789C112.626 331.869 112.527 331.935 112.412 331.985C112.296 332.036 112.165 332.062 112.019 332.062C111.847 332.062 111.696 332.028 111.565 331.962C111.434 331.896 111.332 331.796 111.26 331.663C111.19 331.528 111.155 331.362 111.155 331.165C111.155 331.019 111.18 330.884 111.231 330.761C111.282 330.638 111.357 330.53 111.456 330.438C111.556 330.347 111.681 330.276 111.831 330.228C111.982 330.177 112.157 330.151 112.356 330.151H112.962ZM115.318 329.483V332H114.99V328.83H115.304L115.318 329.483ZM115.257 330.219L115.102 330.134C115.109 329.946 115.138 329.771 115.187 329.606C115.237 329.44 115.308 329.295 115.397 329.17C115.487 329.045 115.596 328.947 115.723 328.877C115.852 328.807 115.998 328.771 116.162 328.771C116.289 328.771 116.405 328.793 116.511 328.836C116.616 328.877 116.707 328.942 116.783 329.032C116.859 329.12 116.917 329.235 116.956 329.378C116.997 329.521 117.018 329.691 117.018 329.891V332H116.695V329.902C116.695 329.691 116.668 329.527 116.613 329.41C116.561 329.291 116.486 329.207 116.391 329.158C116.297 329.107 116.187 329.082 116.06 329.082C115.913 329.082 115.789 329.118 115.688 329.19C115.586 329.263 115.504 329.356 115.441 329.472C115.379 329.587 115.333 329.711 115.304 329.844C115.274 329.975 115.259 330.1 115.257 330.219ZM117.015 329.943L116.798 329.955C116.806 329.801 116.835 329.653 116.886 329.513C116.937 329.37 117.007 329.243 117.097 329.132C117.187 329.021 117.294 328.933 117.419 328.868C117.546 328.804 117.689 328.771 117.85 328.771C117.99 328.771 118.114 328.794 118.222 328.839C118.331 328.882 118.423 328.95 118.497 329.044C118.573 329.138 118.631 329.258 118.67 329.404C118.709 329.551 118.729 329.727 118.729 329.932V332H118.4V329.929C118.4 329.706 118.374 329.534 118.321 329.413C118.269 329.29 118.194 329.204 118.099 329.155C118.005 329.104 117.895 329.08 117.768 329.082C117.645 329.082 117.536 329.109 117.442 329.164C117.351 329.217 117.273 329.286 117.211 329.372C117.15 329.458 117.104 329.552 117.07 329.653C117.039 329.753 117.021 329.85 117.015 329.943ZM121.524 332.062C121.348 332.062 121.187 332.033 121.041 331.977C120.894 331.918 120.767 331.83 120.66 331.713C120.554 331.594 120.472 331.444 120.414 331.265C120.355 331.083 120.326 330.869 120.326 330.623V330.257C120.326 329.995 120.356 329.771 120.417 329.583C120.479 329.394 120.564 329.239 120.671 329.12C120.779 329.001 120.901 328.913 121.038 328.856C121.174 328.8 121.318 328.771 121.468 328.771C121.642 328.771 121.796 328.8 121.928 328.856C122.061 328.913 122.171 328.999 122.259 329.114C122.349 329.228 122.417 329.372 122.462 329.548C122.508 329.724 122.532 329.931 122.532 330.169V330.441H120.522V330.137H122.207V330.055C122.203 329.848 122.173 329.672 122.119 329.527C122.066 329.381 121.986 329.27 121.879 329.193C121.771 329.115 121.635 329.076 121.471 329.076C121.35 329.076 121.239 329.099 121.137 329.144C121.038 329.187 120.951 329.255 120.877 329.349C120.804 329.442 120.749 329.564 120.71 329.715C120.671 329.865 120.651 330.046 120.651 330.257V330.623C120.651 330.818 120.671 330.987 120.713 331.13C120.755 331.271 120.816 331.388 120.894 331.481C120.974 331.573 121.069 331.643 121.178 331.689C121.288 331.734 121.409 331.757 121.542 331.757C121.704 331.757 121.846 331.729 121.969 331.672C122.092 331.615 122.202 331.53 122.297 331.417L122.47 331.634C122.414 331.712 122.342 331.783 122.256 331.848C122.171 331.912 122.068 331.964 121.949 332.003C121.83 332.042 121.688 332.062 121.524 332.062ZM125.717 331.221C125.717 331.133 125.694 331.053 125.647 330.98C125.602 330.908 125.527 330.837 125.421 330.767C125.318 330.696 125.176 330.62 124.996 330.538C124.854 330.474 124.726 330.411 124.612 330.351C124.499 330.29 124.404 330.226 124.325 330.157C124.247 330.089 124.188 330.012 124.147 329.926C124.106 329.838 124.085 329.734 124.085 329.615C124.085 329.496 124.107 329.386 124.15 329.284C124.195 329.183 124.258 329.094 124.34 329.018C124.424 328.939 124.524 328.879 124.639 328.836C124.756 328.793 124.887 328.771 125.031 328.771C125.238 328.771 125.415 328.812 125.562 328.892C125.71 328.97 125.823 329.078 125.902 329.217C125.982 329.355 126.022 329.516 126.022 329.697H125.696C125.696 329.588 125.67 329.486 125.617 329.393C125.567 329.299 125.491 329.223 125.392 329.164C125.294 329.105 125.174 329.076 125.031 329.076C124.885 329.076 124.766 329.103 124.674 329.155C124.582 329.206 124.515 329.271 124.472 329.352C124.431 329.432 124.41 329.516 124.41 329.604C124.41 329.668 124.42 329.726 124.44 329.776C124.461 329.825 124.496 329.873 124.545 329.92C124.596 329.965 124.666 330.013 124.756 330.063C124.846 330.114 124.958 330.173 125.093 330.239C125.29 330.323 125.458 330.407 125.597 330.491C125.737 330.575 125.846 330.673 125.922 330.784C126 330.894 126.039 331.032 126.039 331.2C126.039 331.331 126.016 331.449 125.969 331.555C125.922 331.66 125.855 331.751 125.767 331.827C125.681 331.901 125.577 331.959 125.456 332C125.335 332.039 125.199 332.059 125.049 332.059C124.822 332.059 124.63 332.017 124.472 331.933C124.316 331.847 124.197 331.733 124.117 331.593C124.037 331.452 123.997 331.3 123.997 331.136H124.322C124.33 331.3 124.371 331.427 124.446 331.517C124.522 331.606 124.614 331.669 124.724 331.704C124.833 331.737 124.942 331.754 125.049 331.754C125.194 331.754 125.316 331.73 125.415 331.684C125.515 331.635 125.59 331.57 125.641 331.49C125.692 331.408 125.717 331.318 125.717 331.221ZM129.952 327.5H130.28V331.385L130.253 332H129.952V327.5ZM132.12 330.269V330.564C132.12 330.82 132.096 331.042 132.049 331.229C132.004 331.417 131.938 331.572 131.85 331.695C131.764 331.818 131.658 331.91 131.531 331.971C131.406 332.031 131.262 332.062 131.1 332.062C130.942 332.062 130.803 332.033 130.684 331.977C130.565 331.92 130.463 331.841 130.379 331.739C130.297 331.638 130.231 331.518 130.18 331.379C130.131 331.238 130.097 331.084 130.078 330.916V329.967C130.101 329.787 130.138 329.624 130.189 329.478C130.24 329.331 130.306 329.205 130.388 329.1C130.472 328.994 130.572 328.913 130.687 328.856C130.804 328.8 130.939 328.771 131.091 328.771C131.255 328.771 131.401 328.8 131.528 328.856C131.657 328.911 131.765 328.999 131.853 329.12C131.941 329.239 132.007 329.395 132.052 329.586C132.097 329.775 132.12 330.003 132.12 330.269ZM131.791 330.564V330.269C131.791 330.065 131.777 329.89 131.747 329.741C131.72 329.593 131.675 329.47 131.613 329.372C131.552 329.274 131.473 329.202 131.375 329.155C131.28 329.106 131.163 329.082 131.027 329.082C130.892 329.082 130.776 329.107 130.678 329.158C130.582 329.207 130.502 329.272 130.438 329.354C130.375 329.437 130.325 329.525 130.286 329.621C130.248 329.717 130.221 329.812 130.204 329.905V330.992C130.231 331.123 130.278 331.246 130.344 331.361C130.412 331.477 130.503 331.57 130.617 331.643C130.73 331.713 130.869 331.748 131.033 331.748C131.165 331.748 131.279 331.725 131.372 331.678C131.468 331.631 131.547 331.559 131.61 331.461C131.672 331.363 131.718 331.241 131.747 331.095C131.777 330.946 131.791 330.77 131.791 330.564ZM134.815 332.062C134.64 332.062 134.479 332.033 134.332 331.977C134.186 331.918 134.059 331.83 133.951 331.713C133.846 331.594 133.764 331.444 133.705 331.265C133.646 331.083 133.617 330.869 133.617 330.623V330.257C133.617 329.995 133.647 329.771 133.708 329.583C133.771 329.394 133.855 329.239 133.963 329.12C134.07 329.001 134.192 328.913 134.329 328.856C134.466 328.8 134.609 328.771 134.76 328.771C134.934 328.771 135.087 328.8 135.22 328.856C135.353 328.913 135.463 328.999 135.551 329.114C135.641 329.228 135.708 329.372 135.753 329.548C135.8 329.724 135.823 329.931 135.823 330.169V330.441H133.813V330.137H135.498V330.055C135.494 329.848 135.465 329.672 135.41 329.527C135.357 329.381 135.277 329.27 135.17 329.193C135.062 329.115 134.927 329.076 134.763 329.076C134.642 329.076 134.53 329.099 134.429 329.144C134.329 329.187 134.242 329.255 134.168 329.349C134.096 329.442 134.04 329.564 134.001 329.715C133.962 329.865 133.942 330.046 133.942 330.257V330.623C133.942 330.818 133.963 330.987 134.004 331.13C134.047 331.271 134.107 331.388 134.186 331.481C134.266 331.573 134.36 331.643 134.47 331.689C134.579 331.734 134.7 331.757 134.833 331.757C134.995 331.757 135.138 331.729 135.261 331.672C135.384 331.615 135.493 331.53 135.589 331.417L135.762 331.634C135.705 331.712 135.634 331.783 135.548 331.848C135.462 331.912 135.359 331.964 135.24 332.003C135.121 332.042 134.979 332.062 134.815 332.062ZM139.167 328.83H139.465V332.079C139.465 332.354 139.422 332.579 139.337 332.753C139.251 332.927 139.129 333.055 138.97 333.137C138.812 333.221 138.625 333.263 138.408 333.263C138.304 333.263 138.193 333.245 138.074 333.21C137.957 333.177 137.845 333.127 137.74 333.061C137.636 332.996 137.548 332.918 137.476 332.826L137.629 332.592C137.738 332.715 137.856 332.807 137.983 332.867C138.11 332.93 138.244 332.961 138.384 332.961C138.546 332.961 138.684 332.932 138.797 332.873C138.911 332.816 138.997 332.725 139.055 332.598C139.114 332.471 139.143 332.302 139.143 332.091V329.527L139.167 328.83ZM137.303 330.564V330.269C137.303 330.003 137.327 329.775 137.374 329.586C137.421 329.395 137.489 329.239 137.579 329.12C137.671 328.999 137.78 328.911 137.907 328.856C138.034 328.8 138.177 328.771 138.338 328.771C138.492 328.771 138.627 328.8 138.742 328.856C138.859 328.913 138.959 328.994 139.041 329.1C139.123 329.205 139.189 329.331 139.24 329.478C139.291 329.624 139.328 329.787 139.351 329.967V330.916C139.332 331.082 139.296 331.235 139.246 331.376C139.197 331.517 139.13 331.638 139.046 331.739C138.964 331.841 138.864 331.92 138.745 331.977C138.628 332.033 138.49 332.062 138.332 332.062C138.173 332.062 138.031 332.031 137.904 331.971C137.777 331.91 137.669 331.818 137.579 331.695C137.489 331.572 137.421 331.417 137.374 331.229C137.327 331.042 137.303 330.82 137.303 330.564ZM137.631 330.269V330.564C137.631 330.77 137.646 330.946 137.675 331.095C137.707 331.243 137.754 331.366 137.816 331.464C137.879 331.56 137.958 331.631 138.053 331.678C138.151 331.725 138.266 331.748 138.399 331.748C138.563 331.748 138.701 331.714 138.812 331.646C138.923 331.575 139.011 331.483 139.076 331.37C139.142 331.255 139.192 331.13 139.225 330.995V329.908C139.206 329.814 139.177 329.72 139.14 329.624C139.103 329.528 139.052 329.439 138.988 329.357C138.925 329.273 138.846 329.207 138.751 329.158C138.655 329.107 138.539 329.082 138.402 329.082C138.269 329.082 138.154 329.106 138.056 329.155C137.959 329.202 137.879 329.274 137.816 329.372C137.754 329.468 137.707 329.59 137.675 329.738C137.646 329.887 137.631 330.063 137.631 330.269ZM141.599 328.83V332H141.274V328.83H141.599ZM141.224 327.916C141.224 327.848 141.242 327.791 141.279 327.746C141.319 327.699 141.371 327.676 141.438 327.676C141.506 327.676 141.559 327.699 141.596 327.746C141.635 327.791 141.654 327.848 141.654 327.916C141.654 327.982 141.635 328.038 141.596 328.083C141.559 328.128 141.506 328.15 141.438 328.15C141.371 328.15 141.319 328.128 141.279 328.083C141.242 328.038 141.224 327.982 141.224 327.916ZM143.729 329.507V332H143.404V328.83H143.712L143.729 329.507ZM143.656 330.219L143.513 330.134C143.518 329.946 143.549 329.771 143.603 329.606C143.658 329.44 143.731 329.295 143.823 329.17C143.917 329.045 144.027 328.947 144.154 328.877C144.281 328.807 144.423 328.771 144.579 328.771C144.71 328.771 144.828 328.793 144.933 328.836C145.039 328.879 145.128 328.947 145.2 329.041C145.272 329.133 145.328 329.253 145.367 329.401C145.406 329.548 145.426 329.726 145.426 329.935V332H145.103V329.932C145.103 329.715 145.079 329.545 145.03 329.422C144.981 329.297 144.911 329.209 144.819 329.158C144.729 329.107 144.621 329.082 144.494 329.082C144.359 329.082 144.24 329.118 144.137 329.19C144.033 329.263 143.946 329.356 143.876 329.472C143.805 329.587 143.752 329.711 143.715 329.844C143.678 329.975 143.658 330.1 143.656 330.219Z" fill="black"/>
<rect x="85.7071" y="129.728" width="17" height="17" transform="rotate(-45 85.7071 129.728)" stroke="#FF1647" stroke-opacity="0.65"/>
<rect x="71.7071" y="115.728" width="17" height="17" transform="rotate(-45 71.7071 115.728)" stroke="#FF1647" stroke-opacity="0.65"/>
<rect x="57.7071" y="129.728" width="17" height="17" transform="rotate(-45 57.7071 129.728)" stroke="#FF1647" stroke-opacity="0.65"/>
<rect x="85.7071" y="100.728" width="17" height="17" transform="rotate(-45 85.7071 100.728)" stroke="#FF1647" stroke-opacity="0.2"/>
<rect x="71.7071" y="86.728" width="17" height="17" transform="rotate(-45 71.7071 86.728)" stroke="#FF1647" stroke-opacity="0.2"/>
<rect x="57.7071" y="100.728" width="17" height="17" transform="rotate(-45 57.7071 100.728)" stroke="#FF1647" stroke-opacity="0.2"/>
<rect x="42.7071" y="115.728" width="17" height="17" transform="rotate(-45 42.7071 115.728)" stroke="#FF1647" stroke-opacity="0.2"/>
<rect x="28.7071" y="101.728" width="17" height="17" transform="rotate(-45 28.7071 101.728)" stroke="#FF1647" stroke-opacity="0.2"/>
<rect x="14.7071" y="115.728" width="17" height="17" transform="rotate(-45 14.7071 115.728)" stroke="#FF1647" stroke-opacity="0.2"/>
<rect x="85.7071" y="71.728" width="17" height="17" transform="rotate(-45 85.7071 71.728)" stroke="#FF1647" stroke-opacity="0.2"/>
<rect x="71.7071" y="57.728" width="17" height="17" transform="rotate(-45 71.7071 57.728)" stroke="#FF1647" stroke-opacity="0.2"/>
<rect x="57.7071" y="71.728" width="17" height="17" transform="rotate(-45 57.7071 71.728)" stroke="#FF1647" stroke-opacity="0.2"/>
<rect x="43.7071" y="86.728" width="17" height="17" transform="rotate(-45 43.7071 86.728)" stroke="#FF1647" stroke-opacity="0.2"/>
<rect x="29.7071" y="72.728" width="17" height="17" transform="rotate(-45 29.7071 72.728)" stroke="#FF1647" stroke-opacity="0.2"/>
<rect x="15.7071" y="86.728" width="17" height="17" transform="rotate(-45 15.7071 86.728)" stroke="#FF1647" stroke-opacity="0.2"/>
<rect x="147.707" y="129.728" width="17" height="17" transform="rotate(-45 147.707 129.728)" stroke="#FF1647" stroke-opacity="0.65"/>
<rect x="133.707" y="115.728" width="17" height="17" transform="rotate(-45 133.707 115.728)" stroke="#FF1647" stroke-opacity="0.65"/>
<rect x="119.707" y="129.728" width="17" height="17" transform="rotate(-45 119.707 129.728)" stroke="#FF1647" stroke-opacity="0.65"/>
<rect x="147.707" y="101.728" width="17" height="17" transform="rotate(-45 147.707 101.728)" stroke="#FF1647" stroke-opacity="0.2"/>
<rect x="133.707" y="87.728" width="17" height="17" transform="rotate(-45 133.707 87.728)" stroke="#FF1647" stroke-opacity="0.2"/>
<rect x="119.707" y="101.728" width="17" height="17" transform="rotate(-45 119.707 101.728)" stroke="#FF1647" stroke-opacity="0.2"/>
<rect x="190.707" y="115.728" width="17" height="17" transform="rotate(-45 190.707 115.728)" stroke="#FF1647" stroke-opacity="0.2"/>
<rect x="176.707" y="101.728" width="17" height="17" transform="rotate(-45 176.707 101.728)" stroke="#FF1647" stroke-opacity="0.2"/>
<rect x="162.707" y="115.728" width="17" height="17" transform="rotate(-45 162.707 115.728)" stroke="#FF1647" stroke-opacity="0.2"/>
<rect x="147.707" y="73.728" width="17" height="17" transform="rotate(-45 147.707 73.728)" stroke="#FF1647" stroke-opacity="0.2"/>
<rect x="133.707" y="59.728" width="17" height="17" transform="rotate(-45 133.707 59.728)" stroke="#FF1647" stroke-opacity="0.2"/>
<rect x="119.707" y="73.728" width="17" height="17" transform="rotate(-45 119.707 73.728)" stroke="#FF1647" stroke-opacity="0.2"/>
<rect x="190.707" y="86.728" width="17" height="17" transform="rotate(-45 190.707 86.728)" stroke="#FF1647" stroke-opacity="0.2"/>
<rect x="176.707" y="72.728" width="17" height="17" transform="rotate(-45 176.707 72.728)" stroke="#FF1647" stroke-opacity="0.2"/>
<rect x="162.707" y="86.728" width="17" height="17" transform="rotate(-45 162.707 86.728)" stroke="#FF1647" stroke-opacity="0.2"/>
<rect x="87.7071" y="235.728" width="17" height="17" transform="rotate(-45 87.7071 235.728)" stroke="#FF1647" stroke-opacity="0.65"/>
<rect x="73.7071" y="221.728" width="17" height="17" transform="rotate(-45 73.7071 221.728)" stroke="#FF1647" stroke-opacity="0.65"/>
<rect x="132.707" y="249.728" width="17" height="17" transform="rotate(-45 132.707 249.728)" stroke="#FF1647" stroke-opacity="0.2"/>
<rect x="146.707" y="235.728" width="17" height="17" transform="rotate(-45 146.707 235.728)" stroke="#FF1647" stroke-opacity="0.2"/>
<rect x="118.707" y="263.728" width="17" height="17" transform="rotate(-45 118.707 263.728)" stroke="#FF1647" stroke-opacity="0.2"/>
<rect x="160.707" y="221.728" width="17" height="17" transform="rotate(-45 160.707 221.728)" stroke="#FF1647" stroke-opacity="0.2"/>
<rect x="132.707" y="277.728" width="17" height="17" transform="rotate(-45 132.707 277.728)" stroke="#FF1647" stroke-opacity="0.2"/>
<rect x="146.707" y="263.728" width="17" height="17" transform="rotate(-45 146.707 263.728)" stroke="#FF1647" stroke-opacity="0.2"/>
<rect x="118.707" y="291.728" width="17" height="17" transform="rotate(-45 118.707 291.728)" stroke="#FF1647" stroke-opacity="0.2"/>
<rect x="160.707" y="249.728" width="17" height="17" transform="rotate(-45 160.707 249.728)" stroke="#FF1647" stroke-opacity="0.2"/>
<rect x="73.7071" y="249.728" width="17" height="17" transform="rotate(-45 73.7071 249.728)" stroke="#FF1647" stroke-opacity="0.2"/>
<rect x="87.7071" y="263.728" width="17" height="17" transform="rotate(-45 87.7071 263.728)" stroke="#FF1647" stroke-opacity="0.2"/>
<rect x="44.7071" y="221.728" width="17" height="17" transform="rotate(-45 44.7071 221.728)" stroke="#FF1647" stroke-opacity="0.2"/>
<rect x="58.7071" y="235.728" width="17" height="17" transform="rotate(-45 58.7071 235.728)" stroke="#FF1647" stroke-opacity="0.2"/>
<rect x="73.7071" y="277.728" width="17" height="17" transform="rotate(-45 73.7071 277.728)" stroke="#FF1647" stroke-opacity="0.2"/>
<rect x="87.7071" y="291.728" width="17" height="17" transform="rotate(-45 87.7071 291.728)" stroke="#FF1647" stroke-opacity="0.2"/>
<rect x="44.7071" y="249.728" width="17" height="17" transform="rotate(-45 44.7071 249.728)" stroke="#FF1647" stroke-opacity="0.2"/>
<rect x="58.7071" y="263.728" width="17" height="17" transform="rotate(-45 58.7071 263.728)" stroke="#FF1647" stroke-opacity="0.2"/>
<rect x="132.707" y="221.728" width="17" height="17" transform="rotate(-45 132.707 221.728)" stroke="#FF1647" stroke-opacity="0.65"/>
<rect x="118.707" y="235.728" width="17" height="17" transform="rotate(-45 118.707 235.728)" stroke="#FF1647" stroke-opacity="0.65"/>
<path d="M216.352 329.901V331H211.488V330.062L213.788 327.597C214.019 327.34 214.201 327.113 214.335 326.918C214.468 326.719 214.564 326.542 214.623 326.386C214.685 326.226 214.716 326.075 214.716 325.932C214.716 325.717 214.68 325.533 214.608 325.38C214.537 325.224 214.431 325.103 214.291 325.019C214.154 324.934 213.985 324.892 213.783 324.892C213.568 324.892 213.383 324.944 213.227 325.048C213.074 325.152 212.956 325.297 212.875 325.482C212.797 325.668 212.758 325.878 212.758 326.112H211.347C211.347 325.689 211.448 325.302 211.649 324.95C211.851 324.595 212.136 324.314 212.504 324.105C212.872 323.894 213.308 323.788 213.812 323.788C214.311 323.788 214.73 323.869 215.072 324.032C215.417 324.192 215.678 324.423 215.854 324.726C216.033 325.025 216.122 325.383 216.122 325.8C216.122 326.034 216.085 326.264 216.01 326.488C215.935 326.71 215.827 326.931 215.688 327.152C215.551 327.37 215.385 327.592 215.189 327.816C214.994 328.041 214.778 328.274 214.54 328.515L213.305 329.901H216.352ZM223.594 329.901V331H218.73V330.062L221.03 327.597C221.261 327.34 221.444 327.113 221.577 326.918C221.711 326.719 221.807 326.542 221.865 326.386C221.927 326.226 221.958 326.075 221.958 325.932C221.958 325.717 221.922 325.533 221.851 325.38C221.779 325.224 221.673 325.103 221.533 325.019C221.396 324.934 221.227 324.892 221.025 324.892C220.811 324.892 220.625 324.944 220.469 325.048C220.316 325.152 220.199 325.297 220.117 325.482C220.039 325.668 220 325.878 220 326.112H218.589C218.589 325.689 218.69 325.302 218.892 324.95C219.093 324.595 219.378 324.314 219.746 324.105C220.114 323.894 220.55 323.788 221.055 323.788C221.553 323.788 221.973 323.869 222.314 324.032C222.66 324.192 222.92 324.423 223.096 324.726C223.275 325.025 223.364 325.383 223.364 325.8C223.364 326.034 223.327 326.264 223.252 326.488C223.177 326.71 223.07 326.931 222.93 327.152C222.793 327.37 222.627 327.592 222.432 327.816C222.236 328.041 222.02 328.274 221.782 328.515L220.547 329.901H223.594Z" fill="#FF1647"/>
<path d="M12.3516 17.9014V19H7.48828V18.0625L9.78809 15.5967C10.0192 15.3395 10.2015 15.1133 10.335 14.918C10.4684 14.7194 10.5645 14.542 10.623 14.3857C10.6849 14.2262 10.7158 14.0749 10.7158 13.9316C10.7158 13.7168 10.68 13.5329 10.6084 13.3799C10.5368 13.2236 10.431 13.1032 10.291 13.0186C10.1543 12.9339 9.98503 12.8916 9.7832 12.8916C9.56836 12.8916 9.38281 12.9437 9.22656 13.0479C9.07357 13.152 8.95638 13.2969 8.875 13.4824C8.79688 13.668 8.75781 13.8779 8.75781 14.1123H7.34668C7.34668 13.6891 7.44759 13.3018 7.64941 12.9502C7.85124 12.5954 8.13607 12.3138 8.50391 12.1055C8.87174 11.8939 9.30794 11.7881 9.8125 11.7881C10.3105 11.7881 10.7305 11.8695 11.0723 12.0322C11.4173 12.1917 11.6777 12.4229 11.8535 12.7256C12.0326 13.0251 12.1221 13.3831 12.1221 13.7998C12.1221 14.0342 12.0846 14.2637 12.0098 14.4883C11.9349 14.7096 11.8275 14.931 11.6875 15.1523C11.5508 15.3704 11.3848 15.5918 11.1895 15.8164C10.9941 16.041 10.7777 16.2738 10.54 16.5146L9.30469 17.9014H12.3516ZM19.5938 17.9014V19H14.7305V18.0625L17.0303 15.5967C17.2614 15.3395 17.4437 15.1133 17.5771 14.918C17.7106 14.7194 17.8066 14.542 17.8652 14.3857C17.9271 14.2262 17.958 14.0749 17.958 13.9316C17.958 13.7168 17.9222 13.5329 17.8506 13.3799C17.779 13.2236 17.6732 13.1032 17.5332 13.0186C17.3965 12.9339 17.2272 12.8916 17.0254 12.8916C16.8105 12.8916 16.625 12.9437 16.4688 13.0479C16.3158 13.152 16.1986 13.2969 16.1172 13.4824C16.0391 13.668 16 13.8779 16 14.1123H14.5889C14.5889 13.6891 14.6898 13.3018 14.8916 12.9502C15.0934 12.5954 15.3783 12.3138 15.7461 12.1055C16.1139 11.8939 16.5501 11.7881 17.0547 11.7881C17.5527 11.7881 17.9727 11.8695 18.3145 12.0322C18.6595 12.1917 18.9199 12.4229 19.0957 12.7256C19.2747 13.0251 19.3643 13.3831 19.3643 13.7998C19.3643 14.0342 19.3268 14.2637 19.252 14.4883C19.1771 14.7096 19.0697 14.931 18.9297 15.1523C18.793 15.3704 18.627 15.5918 18.4316 15.8164C18.2363 16.041 18.0199 16.2738 17.7822 16.5146L16.5469 17.9014H19.5938Z" fill="#FF1647"/>
<path d="M101.203 203.768C101.203 203.615 101.18 203.479 101.133 203.357C101.09 203.232 101.008 203.119 100.887 203.018C100.766 202.912 100.596 202.809 100.377 202.707C100.158 202.605 99.875 202.5 99.5273 202.391C99.1406 202.266 98.7734 202.125 98.4258 201.969C98.082 201.812 97.7773 201.631 97.5117 201.424C97.25 201.213 97.043 200.969 96.8906 200.691C96.7422 200.414 96.668 200.092 96.668 199.725C96.668 199.369 96.7461 199.047 96.9023 198.758C97.0586 198.465 97.2773 198.215 97.5586 198.008C97.8398 197.797 98.1719 197.635 98.5547 197.521C98.9414 197.408 99.3652 197.352 99.8262 197.352C100.455 197.352 101.004 197.465 101.473 197.691C101.941 197.918 102.305 198.229 102.562 198.623C102.824 199.018 102.955 199.469 102.955 199.977H101.209C101.209 199.727 101.156 199.508 101.051 199.32C100.949 199.129 100.793 198.979 100.582 198.869C100.375 198.76 100.113 198.705 99.7969 198.705C99.4922 198.705 99.2383 198.752 99.0352 198.846C98.832 198.936 98.6797 199.059 98.5781 199.215C98.4766 199.367 98.4258 199.539 98.4258 199.73C98.4258 199.875 98.4609 200.006 98.5312 200.123C98.6055 200.24 98.7148 200.35 98.8594 200.451C99.0039 200.553 99.1816 200.648 99.3926 200.738C99.6035 200.828 99.8477 200.916 100.125 201.002C100.59 201.143 100.998 201.301 101.35 201.477C101.705 201.652 102.002 201.85 102.24 202.068C102.479 202.287 102.658 202.535 102.779 202.812C102.9 203.09 102.961 203.404 102.961 203.756C102.961 204.127 102.889 204.459 102.744 204.752C102.6 205.045 102.391 205.293 102.117 205.496C101.844 205.699 101.518 205.854 101.139 205.959C100.76 206.064 100.336 206.117 99.8672 206.117C99.4453 206.117 99.0293 206.062 98.6191 205.953C98.209 205.84 97.8359 205.67 97.5 205.443C97.168 205.217 96.9023 204.928 96.7031 204.576C96.5039 204.225 96.4043 203.809 96.4043 203.328H98.168C98.168 203.594 98.209 203.818 98.291 204.002C98.373 204.186 98.4883 204.334 98.6367 204.447C98.7891 204.561 98.9688 204.643 99.1758 204.693C99.3867 204.744 99.6172 204.77 99.8672 204.77C100.172 204.77 100.422 204.727 100.617 204.641C100.816 204.555 100.963 204.436 101.057 204.283C101.154 204.131 101.203 203.959 101.203 203.768ZM110.902 203.17H112.654C112.618 203.744 112.46 204.254 112.179 204.699C111.902 205.145 111.513 205.492 111.013 205.742C110.517 205.992 109.919 206.117 109.22 206.117C108.673 206.117 108.183 206.023 107.749 205.836C107.316 205.645 106.945 205.371 106.636 205.016C106.331 204.66 106.099 204.23 105.939 203.727C105.779 203.223 105.698 202.658 105.698 202.033V201.441C105.698 200.816 105.78 200.252 105.945 199.748C106.113 199.24 106.351 198.809 106.659 198.453C106.972 198.098 107.345 197.824 107.779 197.633C108.212 197.441 108.696 197.346 109.232 197.346C109.943 197.346 110.542 197.475 111.03 197.732C111.523 197.99 111.904 198.346 112.173 198.799C112.446 199.252 112.611 199.768 112.665 200.346H110.907C110.888 200.002 110.82 199.711 110.702 199.473C110.585 199.23 110.407 199.049 110.169 198.928C109.935 198.803 109.622 198.74 109.232 198.74C108.939 198.74 108.683 198.795 108.464 198.904C108.245 199.014 108.062 199.18 107.913 199.402C107.765 199.625 107.654 199.906 107.579 200.246C107.509 200.582 107.474 200.977 107.474 201.43V202.033C107.474 202.475 107.507 202.863 107.573 203.199C107.64 203.531 107.741 203.812 107.878 204.043C108.019 204.27 108.198 204.441 108.417 204.559C108.64 204.672 108.907 204.729 109.22 204.729C109.587 204.729 109.89 204.67 110.128 204.553C110.366 204.436 110.548 204.262 110.673 204.031C110.802 203.801 110.878 203.514 110.902 203.17ZM120.049 203.768C120.049 203.615 120.026 203.479 119.979 203.357C119.936 203.232 119.854 203.119 119.733 203.018C119.612 202.912 119.442 202.809 119.223 202.707C119.004 202.605 118.721 202.5 118.373 202.391C117.987 202.266 117.62 202.125 117.272 201.969C116.928 201.812 116.623 201.631 116.358 201.424C116.096 201.213 115.889 200.969 115.737 200.691C115.588 200.414 115.514 200.092 115.514 199.725C115.514 199.369 115.592 199.047 115.748 198.758C115.905 198.465 116.123 198.215 116.405 198.008C116.686 197.797 117.018 197.635 117.401 197.521C117.788 197.408 118.211 197.352 118.672 197.352C119.301 197.352 119.85 197.465 120.319 197.691C120.788 197.918 121.151 198.229 121.409 198.623C121.67 199.018 121.801 199.469 121.801 199.977H120.055C120.055 199.727 120.002 199.508 119.897 199.32C119.795 199.129 119.639 198.979 119.428 198.869C119.221 198.76 118.959 198.705 118.643 198.705C118.338 198.705 118.084 198.752 117.881 198.846C117.678 198.936 117.526 199.059 117.424 199.215C117.323 199.367 117.272 199.539 117.272 199.73C117.272 199.875 117.307 200.006 117.377 200.123C117.452 200.24 117.561 200.35 117.705 200.451C117.85 200.553 118.028 200.648 118.239 200.738C118.45 200.828 118.694 200.916 118.971 201.002C119.436 201.143 119.844 201.301 120.196 201.477C120.551 201.652 120.848 201.85 121.086 202.068C121.325 202.287 121.504 202.535 121.625 202.812C121.746 203.09 121.807 203.404 121.807 203.756C121.807 204.127 121.735 204.459 121.59 204.752C121.446 205.045 121.237 205.293 120.963 205.496C120.69 205.699 120.364 205.854 119.985 205.959C119.606 206.064 119.182 206.117 118.713 206.117C118.291 206.117 117.875 206.062 117.465 205.953C117.055 205.84 116.682 205.67 116.346 205.443C116.014 205.217 115.748 204.928 115.549 204.576C115.35 204.225 115.25 203.809 115.25 203.328H117.014C117.014 203.594 117.055 203.818 117.137 204.002C117.219 204.186 117.334 204.334 117.483 204.447C117.635 204.561 117.815 204.643 118.022 204.693C118.233 204.744 118.463 204.77 118.713 204.77C119.018 204.77 119.268 204.727 119.463 204.641C119.663 204.555 119.809 204.436 119.903 204.283C120 204.131 120.049 203.959 120.049 203.768ZM130.527 204.629V206H125.986V204.629H130.527ZM126.56 197.469V206H124.802V197.469H126.56ZM129.935 200.943V202.279H125.986V200.943H129.935ZM130.521 197.469V198.846H125.986V197.469H130.521Z" fill="white"/>
<path d="M101.133 203.357L100.187 203.683L100.193 203.701L100.2 203.718L101.133 203.357ZM100.887 203.018L100.23 203.772L100.237 203.778L100.244 203.784L100.887 203.018ZM99.5273 202.391L99.2198 203.342L99.2272 203.345L99.5273 202.391ZM98.4258 201.969L98.012 202.879L98.0158 202.881L98.4258 201.969ZM97.5117 201.424L96.8842 202.202L96.8905 202.208L96.897 202.213L97.5117 201.424ZM96.8906 200.691L96.0089 201.163L96.0141 201.173L96.8906 200.691ZM96.9023 198.758L97.7821 199.233L97.7847 199.228L96.9023 198.758ZM97.5586 198.008L98.1514 198.813L98.1586 198.808L97.5586 198.008ZM98.5547 197.521L98.2736 196.562L98.2709 196.563L98.5547 197.521ZM102.562 198.623L101.725 199.17L101.729 199.176L102.562 198.623ZM102.955 199.977V200.977H103.955V199.977H102.955ZM101.209 199.977H100.209V200.977H101.209V199.977ZM101.051 199.32L100.167 199.789L100.173 199.8L100.179 199.811L101.051 199.32ZM100.582 198.869L100.115 199.753L100.122 199.757L100.582 198.869ZM99.0352 198.846L99.4397 199.76L99.447 199.757L99.4542 199.754L99.0352 198.846ZM98.5781 199.215L99.4102 199.77L99.4166 199.76L98.5781 199.215ZM98.5312 200.123L97.6738 200.638L97.68 200.648L97.6864 200.658L98.5312 200.123ZM100.125 201.002L99.829 201.957L99.8354 201.959L100.125 201.002ZM101.35 201.477L100.902 202.371L100.906 202.373L101.35 201.477ZM98.6191 205.953L98.3529 206.917L98.3615 206.919L98.6191 205.953ZM97.5 205.443L96.9364 206.269L96.9409 206.272L97.5 205.443ZM96.4043 203.328V202.328H95.4043V203.328H96.4043ZM98.168 203.328H99.168V202.328H98.168V203.328ZM98.6367 204.447L98.03 205.242L98.04 205.25L98.6367 204.447ZM99.1758 204.693L98.9376 205.665L98.9417 205.666L99.1758 204.693ZM100.617 204.641L100.221 203.722L100.214 203.725L100.617 204.641ZM101.057 204.283L100.215 203.744L100.21 203.751L100.205 203.759L101.057 204.283ZM102.203 203.768C102.203 203.513 102.164 203.251 102.065 202.996L100.2 203.718C100.196 203.706 100.203 203.718 100.203 203.768H102.203ZM102.078 203.032C101.966 202.705 101.762 202.447 101.529 202.251L100.244 203.784C100.25 203.788 100.242 203.783 100.229 203.765C100.216 203.747 100.2 203.719 100.187 203.683L102.078 203.032ZM101.543 202.263C101.325 202.074 101.064 201.923 100.798 201.8L99.9558 203.614C100.127 203.694 100.206 203.751 100.23 203.772L101.543 202.263ZM100.798 201.8C100.526 201.674 100.198 201.553 99.8274 201.437L99.2272 203.345C99.5522 203.447 99.7908 203.537 99.9558 203.614L100.798 201.8ZM99.8349 201.439C99.4807 201.325 99.1479 201.197 98.8357 201.057L98.0158 202.881C98.399 203.053 98.8005 203.207 99.2198 203.342L99.8349 201.439ZM98.8396 201.058C98.5589 200.931 98.3232 200.788 98.1265 200.635L96.897 202.213C97.2315 202.473 97.6052 202.694 98.012 202.879L98.8396 201.058ZM98.1392 200.645C97.9727 200.511 97.8528 200.366 97.7671 200.21L96.0141 201.173C96.2331 201.572 96.5273 201.915 96.8842 202.202L98.1392 200.645ZM97.7723 200.22C97.7136 200.11 97.668 199.955 97.668 199.725H95.668C95.668 200.229 95.7708 200.718 96.009 201.163L97.7723 200.22ZM97.668 199.725C97.668 199.521 97.7111 199.365 97.7821 199.233L96.0226 198.282C95.7811 198.729 95.668 199.217 95.668 199.725H97.668ZM97.7847 199.228C97.867 199.074 97.9841 198.936 98.1514 198.813L96.9658 197.202C96.5706 197.493 96.2502 197.856 96.02 198.287L97.7847 199.228ZM98.1586 198.808C98.3327 198.677 98.5544 198.564 98.8384 198.48L98.2709 196.563C97.7894 196.705 97.3469 196.917 96.9586 197.208L98.1586 198.808ZM98.8358 198.481C99.1192 198.398 99.447 198.352 99.8262 198.352V196.352C99.2835 196.352 98.7636 196.418 98.2736 196.562L98.8358 198.481ZM99.8262 198.352C100.335 198.352 100.73 198.443 101.037 198.592L101.908 196.791C101.278 196.487 100.575 196.352 99.8262 196.352V198.352ZM101.037 198.592C101.36 198.748 101.577 198.943 101.725 199.17L103.4 198.076C103.032 197.514 102.523 197.088 101.908 196.791L101.037 198.592ZM101.729 199.176C101.874 199.394 101.955 199.65 101.955 199.977H103.955C103.955 199.287 103.774 198.641 103.396 198.07L101.729 199.176ZM102.955 198.977H101.209V200.977H102.955V198.977ZM102.209 199.977C102.209 199.583 102.125 199.19 101.922 198.83L100.179 199.811C100.188 199.826 100.209 199.87 100.209 199.977H102.209ZM101.934 198.852C101.728 198.463 101.415 198.175 101.042 197.981L100.122 199.757C100.15 199.772 100.161 199.782 100.164 199.784C100.166 199.786 100.166 199.787 100.167 199.789L101.934 198.852ZM101.049 197.985C100.657 197.778 100.221 197.705 99.7969 197.705V199.705C100.005 199.705 100.093 199.742 100.115 199.753L101.049 197.985ZM99.7969 197.705C99.3969 197.705 98.9891 197.766 98.6161 197.938L99.4542 199.754C99.4875 199.738 99.5875 199.705 99.7969 199.705V197.705ZM98.6307 197.931C98.2846 198.084 97.9658 198.322 97.7397 198.67L99.4166 199.76C99.4122 199.766 99.4078 199.772 99.4038 199.777C99.3998 199.781 99.3972 199.783 99.3969 199.783C99.3963 199.784 99.4078 199.774 99.4397 199.76L98.6307 197.931ZM97.7461 198.66C97.5299 198.984 97.4258 199.351 97.4258 199.73H99.4258C99.4258 199.724 99.4265 199.729 99.4229 199.741C99.4212 199.747 99.4191 199.753 99.4165 199.758C99.414 199.763 99.4117 199.767 99.4102 199.77L97.7461 198.66ZM97.4258 199.73C97.4258 200.045 97.5048 200.356 97.6738 200.638L99.3887 199.609C99.4009 199.629 99.4112 199.653 99.4179 199.678C99.4245 199.702 99.4258 199.721 99.4258 199.73H97.4258ZM97.6864 200.658C97.8475 200.912 98.0605 201.112 98.2844 201.269L99.4343 199.633C99.3692 199.587 99.3634 199.568 99.3761 199.588L97.6864 200.658ZM98.2844 201.269C98.5003 201.421 98.7433 201.549 99.0007 201.658L99.7844 199.818C99.62 199.748 99.5076 199.684 99.4343 199.633L98.2844 201.269ZM99.0007 201.658C99.2499 201.764 99.5273 201.864 99.829 201.957L100.421 200.047C100.168 199.968 99.9571 199.892 99.7844 199.818L99.0007 201.658ZM99.8354 201.959C100.258 202.087 100.612 202.226 100.902 202.371L101.797 200.582C101.384 200.376 100.922 200.198 100.415 200.045L99.8354 201.959ZM100.906 202.373C101.195 202.516 101.409 202.663 101.564 202.805L102.917 201.332C102.595 201.036 102.215 200.789 101.793 200.58L100.906 202.373ZM101.564 202.805C101.707 202.936 101.801 203.072 101.863 203.213L103.696 202.412C103.515 201.999 103.25 201.638 102.917 201.332L101.564 202.805ZM101.863 203.213C101.921 203.345 101.961 203.52 101.961 203.756H103.961C103.961 203.289 103.88 202.835 103.696 202.412L101.863 203.213ZM101.961 203.756C101.961 203.994 101.915 204.172 101.847 204.31L103.641 205.194C103.862 204.746 103.961 204.259 103.961 203.756H101.961ZM101.847 204.31C101.776 204.454 101.673 204.581 101.521 204.693L102.714 206.299C103.109 206.005 103.423 205.636 103.641 205.194L101.847 204.31ZM101.521 204.693C101.36 204.813 101.149 204.918 100.871 204.996L101.407 206.922C101.886 206.789 102.327 206.586 102.714 206.299L101.521 204.693ZM100.871 204.996C100.594 205.073 100.262 205.117 99.8672 205.117V207.117C100.41 207.117 100.926 207.056 101.407 206.922L100.871 204.996ZM99.8672 205.117C99.5328 205.117 99.2034 205.074 98.8768 204.987L98.3615 206.919C98.8552 207.051 99.3578 207.117 99.8672 207.117V205.117ZM98.8854 204.989C98.5742 204.903 98.301 204.777 98.0591 204.614L96.9409 206.272C97.3709 206.562 97.8437 206.776 98.3529 206.917L98.8854 204.989ZM98.0636 204.617C97.8585 204.477 97.6974 204.302 97.5731 204.083L95.8331 205.069C96.1073 205.553 96.4774 205.956 96.9364 206.269L98.0636 204.617ZM97.5731 204.083C97.4739 203.908 97.4043 203.669 97.4043 203.328H95.4043C95.4043 203.949 95.5339 204.541 95.8331 205.069L97.5731 204.083ZM96.4043 204.328H98.168V202.328H96.4043V204.328ZM97.168 203.328C97.168 203.691 97.2234 204.064 97.378 204.41L99.204 203.594C99.1946 203.573 99.168 203.496 99.168 203.328H97.168ZM97.378 204.41C97.5228 204.734 97.7386 205.02 98.03 205.242L99.2434 203.652C99.2379 203.648 99.2233 203.637 99.204 203.594L97.378 204.41ZM98.04 205.25C98.3118 205.452 98.6169 205.586 98.9376 205.665L99.414 203.722C99.3206 203.699 99.2663 203.669 99.2334 203.645L98.04 205.25ZM98.9417 205.666C99.2399 205.737 99.55 205.77 99.8672 205.77V203.77C99.6844 203.77 99.5336 203.751 99.4098 203.721L98.9417 205.666ZM99.8672 205.77C100.256 205.77 100.656 205.716 101.02 205.556L100.214 203.725C100.188 203.737 100.088 203.77 99.8672 203.77V205.77ZM101.013 205.559C101.36 205.409 101.686 205.169 101.908 204.807L100.205 203.759C100.212 203.747 100.22 203.737 100.228 203.729C100.235 203.72 100.242 203.714 100.245 203.711C100.253 203.705 100.249 203.711 100.221 203.722L101.013 205.559ZM101.899 204.823C102.105 204.5 102.203 204.139 102.203 203.768H100.203C100.203 203.777 100.202 203.776 100.205 203.767C100.206 203.763 100.207 203.758 100.209 203.754C100.211 203.749 100.213 203.746 100.215 203.744L101.899 204.823ZM110.902 203.17V202.17H109.967L109.904 203.102L110.902 203.17ZM112.654 203.17L113.652 203.231L113.717 202.17H112.654V203.17ZM112.179 204.699L111.333 204.165L111.33 204.171L112.179 204.699ZM111.013 205.742L110.566 204.848L110.563 204.849L111.013 205.742ZM107.749 205.836L107.345 206.751L107.352 206.754L107.749 205.836ZM106.636 205.016L105.877 205.666L105.881 205.671L106.636 205.016ZM105.945 199.748L104.995 199.434L104.994 199.438L105.945 199.748ZM106.659 198.453L105.908 197.793L105.904 197.798L106.659 198.453ZM111.03 197.732L110.564 198.617L110.566 198.618L111.03 197.732ZM112.173 198.799L111.314 199.31L111.317 199.315L112.173 198.799ZM112.665 200.346V201.346H113.764L113.661 200.252L112.665 200.346ZM110.907 200.346L109.909 200.402L109.963 201.346H110.907V200.346ZM110.702 199.473L109.802 199.908L109.805 199.914L110.702 199.473ZM110.169 198.928L109.699 199.81L109.707 199.815L109.716 199.819L110.169 198.928ZM107.579 200.246L106.602 200.033L106.601 200.041L107.579 200.246ZM107.573 203.199L106.592 203.393L106.593 203.395L107.573 203.199ZM107.878 204.043L107.018 204.553L107.023 204.562L107.028 204.57L107.878 204.043ZM108.417 204.559L107.945 205.44L107.954 205.445L107.964 205.45L108.417 204.559ZM110.673 204.031L109.8 203.543L109.794 203.554L110.673 204.031ZM110.902 204.17H112.654V202.17H110.902V204.17ZM111.655 203.109C111.63 203.531 111.517 203.875 111.333 204.165L113.024 205.233C113.404 204.633 113.607 203.957 113.652 203.231L111.655 203.109ZM111.33 204.171C111.157 204.449 110.912 204.675 110.566 204.848L111.46 206.637C112.114 206.31 112.646 205.84 113.028 205.228L111.33 204.171ZM110.563 204.849C110.238 205.013 109.802 205.117 109.22 205.117V207.117C110.036 207.117 110.796 206.971 111.463 206.635L110.563 204.849ZM109.22 205.117C108.788 205.117 108.436 205.044 108.146 204.918L107.352 206.754C107.929 207.003 108.558 207.117 109.22 207.117V205.117ZM108.153 204.921C107.853 204.789 107.602 204.604 107.391 204.36L105.881 205.671C106.287 206.139 106.778 206.5 107.345 206.751L108.153 204.921ZM107.395 204.365C107.188 204.124 107.016 203.816 106.892 203.424L104.986 204.029C105.181 204.645 105.474 205.197 105.877 205.666L107.395 204.365ZM106.892 203.424C106.768 203.034 106.698 202.574 106.698 202.033H104.698C104.698 202.743 104.789 203.412 104.986 204.029L106.892 203.424ZM106.698 202.033V201.441H104.698V202.033H106.698ZM106.698 201.441C106.698 200.903 106.769 200.445 106.895 200.058L104.994 199.438C104.792 200.058 104.698 200.73 104.698 201.441H106.698ZM106.894 200.062C107.026 199.663 107.204 199.352 107.415 199.109L105.904 197.798C105.498 198.266 105.199 198.818 104.995 199.434L106.894 200.062ZM107.41 199.113C107.627 198.867 107.881 198.68 108.182 198.548L107.375 196.718C106.808 196.968 106.317 197.328 105.908 197.793L107.41 199.113ZM108.182 198.548C108.473 198.419 108.818 198.346 109.232 198.346V196.346C108.575 196.346 107.951 196.464 107.375 196.718L108.182 198.548ZM109.232 198.346C109.825 198.346 110.255 198.454 110.564 198.617L111.497 196.848C110.83 196.496 110.06 196.346 109.232 196.346V198.346ZM110.566 198.618C110.904 198.795 111.144 199.025 111.314 199.31L113.032 198.288C112.663 197.667 112.141 197.185 111.494 196.847L110.566 198.618ZM111.317 199.315C111.505 199.628 111.628 199.997 111.67 200.44L113.661 200.252C113.593 199.539 113.388 198.876 113.029 198.282L111.317 199.315ZM112.665 199.346H110.907V201.346H112.665V199.346ZM111.906 200.289C111.881 199.849 111.791 199.42 111.6 199.031L109.805 199.914C109.848 200.002 109.895 200.154 109.909 200.402L111.906 200.289ZM111.603 199.037C111.391 198.6 111.057 198.257 110.622 198.036L109.716 199.819C109.758 199.841 109.78 199.861 109.802 199.908L111.603 199.037ZM110.64 198.045C110.208 197.815 109.715 197.74 109.232 197.74V199.74C109.53 199.74 109.661 199.79 109.699 199.81L110.64 198.045ZM109.232 197.74C108.814 197.74 108.399 197.819 108.017 198.01L108.911 199.799C108.966 199.771 109.063 199.74 109.232 199.74V197.74ZM108.017 198.01C107.628 198.204 107.317 198.494 107.081 198.848L108.745 199.957C108.807 199.865 108.863 199.823 108.911 199.799L108.017 198.01ZM107.081 198.848C106.846 199.2 106.696 199.606 106.602 200.033L108.556 200.459C108.611 200.207 108.683 200.05 108.745 199.957L107.081 198.848ZM106.601 200.041C106.512 200.462 106.474 200.928 106.474 201.43H108.474C108.474 201.025 108.506 200.702 108.558 200.451L106.601 200.041ZM106.474 201.43V202.033H108.474V201.43H106.474ZM106.474 202.033C106.474 202.522 106.51 202.978 106.592 203.393L108.554 203.005C108.504 202.748 108.474 202.427 108.474 202.033H106.474ZM106.593 203.395C106.676 203.81 106.811 204.204 107.018 204.553L108.738 203.533C108.672 203.421 108.604 203.252 108.554 203.003L106.593 203.395ZM107.028 204.57C107.255 204.935 107.56 205.234 107.945 205.44L108.889 203.677C108.837 203.649 108.783 203.605 108.728 203.516L107.028 204.57ZM107.964 205.45C108.358 205.65 108.788 205.729 109.22 205.729V203.729C109.026 203.729 108.922 203.693 108.871 203.667L107.964 205.45ZM109.22 205.729C109.685 205.729 110.152 205.656 110.569 205.45L109.687 203.655C109.628 203.684 109.489 203.729 109.22 203.729V205.729ZM110.569 205.45C110.991 205.243 111.327 204.923 111.552 204.508L109.794 203.554C109.769 203.6 109.742 203.628 109.687 203.655L110.569 205.45ZM111.546 204.519C111.765 204.127 111.869 203.686 111.899 203.238L109.904 203.102C109.888 203.341 109.839 203.475 109.8 203.543L111.546 204.519ZM119.979 203.357L119.033 203.683L119.039 203.701L119.046 203.718L119.979 203.357ZM119.733 203.018L119.076 203.772L119.083 203.778L119.09 203.784L119.733 203.018ZM118.373 202.391L118.066 203.342L118.073 203.345L118.373 202.391ZM117.272 201.969L116.858 202.879L116.862 202.881L117.272 201.969ZM116.358 201.424L115.73 202.202L115.737 202.208L115.743 202.213L116.358 201.424ZM115.737 200.691L114.855 201.163L114.86 201.173L115.737 200.691ZM115.748 198.758L116.628 199.233L116.631 199.228L115.748 198.758ZM116.405 198.008L116.998 198.813L117.005 198.808L116.405 198.008ZM117.401 197.521L117.12 196.562L117.117 196.563L117.401 197.521ZM121.409 198.623L120.571 199.17L120.575 199.176L121.409 198.623ZM121.801 199.977V200.977H122.801V199.977H121.801ZM120.055 199.977H119.055V200.977H120.055V199.977ZM119.897 199.32L119.014 199.789L119.019 199.8L119.025 199.811L119.897 199.32ZM119.428 198.869L118.961 199.753L118.968 199.757L119.428 198.869ZM117.881 198.846L118.286 199.76L118.293 199.757L118.3 199.754L117.881 198.846ZM117.424 199.215L118.256 199.77L118.263 199.76L117.424 199.215ZM117.377 200.123L116.52 200.638L116.526 200.648L116.533 200.658L117.377 200.123ZM118.971 201.002L118.675 201.957L118.682 201.959L118.971 201.002ZM120.196 201.477L119.748 202.371L119.752 202.373L120.196 201.477ZM117.465 205.953L117.199 206.917L117.208 206.919L117.465 205.953ZM116.346 205.443L115.782 206.269L115.787 206.272L116.346 205.443ZM115.25 203.328V202.328H114.25V203.328H115.25ZM117.014 203.328H118.014V202.328H117.014V203.328ZM117.483 204.447L116.876 205.242L116.886 205.25L117.483 204.447ZM118.022 204.693L117.784 205.665L117.788 205.666L118.022 204.693ZM119.463 204.641L119.067 203.722L119.061 203.725L119.463 204.641ZM119.903 204.283L119.061 203.744L119.056 203.751L119.051 203.759L119.903 204.283ZM121.049 203.768C121.049 203.513 121.01 203.251 120.911 202.996L119.046 203.718C119.042 203.706 119.049 203.718 119.049 203.768H121.049ZM120.925 203.032C120.812 202.705 120.608 202.447 120.375 202.251L119.09 203.784C119.096 203.788 119.088 203.783 119.075 203.765C119.062 203.747 119.046 203.719 119.033 203.683L120.925 203.032ZM120.39 202.263C120.172 202.074 119.91 201.923 119.644 201.8L118.802 203.614C118.974 203.694 119.052 203.751 119.076 203.772L120.39 202.263ZM119.644 201.8C119.372 201.674 119.044 201.553 118.674 201.437L118.073 203.345C118.398 203.447 118.637 203.537 118.802 203.614L119.644 201.8ZM118.681 201.439C118.327 201.325 117.994 201.197 117.682 201.057L116.862 202.881C117.245 203.053 117.647 203.207 118.066 203.342L118.681 201.439ZM117.686 201.058C117.405 200.931 117.169 200.788 116.973 200.635L115.743 202.213C116.078 202.473 116.451 202.694 116.858 202.879L117.686 201.058ZM116.985 200.645C116.819 200.511 116.699 200.366 116.613 200.21L114.86 201.173C115.079 201.572 115.373 201.915 115.73 202.202L116.985 200.645ZM116.618 200.22C116.56 200.11 116.514 199.955 116.514 199.725H114.514C114.514 200.229 114.617 200.718 114.855 201.163L116.618 200.22ZM116.514 199.725C116.514 199.521 116.557 199.365 116.628 199.233L114.869 198.282C114.627 198.729 114.514 199.217 114.514 199.725H116.514ZM116.631 199.228C116.713 199.074 116.83 198.936 116.998 198.813L115.812 197.202C115.417 197.493 115.096 197.856 114.866 198.287L116.631 199.228ZM117.005 198.808C117.179 198.677 117.4 198.564 117.685 198.48L117.117 196.563C116.635 196.705 116.193 196.917 115.805 197.208L117.005 198.808ZM117.682 198.481C117.965 198.398 118.293 198.352 118.672 198.352V196.352C118.13 196.352 117.61 196.418 117.12 196.562L117.682 198.481ZM118.672 198.352C119.181 198.352 119.576 198.443 119.884 198.592L120.754 196.791C120.124 196.487 119.421 196.352 118.672 196.352V198.352ZM119.884 198.592C120.206 198.748 120.423 198.943 120.571 199.17L122.246 198.076C121.878 197.514 121.369 197.088 120.754 196.791L119.884 198.592ZM120.575 199.176C120.72 199.394 120.801 199.65 120.801 199.977H122.801C122.801 199.287 122.62 198.641 122.242 198.07L120.575 199.176ZM121.801 198.977H120.055V200.977H121.801V198.977ZM121.055 199.977C121.055 199.583 120.971 199.19 120.768 198.83L119.025 199.811C119.034 199.826 119.055 199.87 119.055 199.977H121.055ZM120.78 198.852C120.574 198.463 120.261 198.175 119.888 197.981L118.968 199.757C118.996 199.772 119.007 199.782 119.01 199.784C119.012 199.786 119.012 199.787 119.014 199.789L120.78 198.852ZM119.895 197.985C119.503 197.778 119.068 197.705 118.643 197.705V199.705C118.851 199.705 118.94 199.742 118.961 199.753L119.895 197.985ZM118.643 197.705C118.243 197.705 117.835 197.766 117.462 197.938L118.3 199.754C118.334 199.738 118.434 199.705 118.643 199.705V197.705ZM117.477 197.931C117.131 198.084 116.812 198.322 116.586 198.67L118.263 199.76C118.258 199.766 118.254 199.772 118.25 199.777C118.246 199.781 118.243 199.783 118.243 199.783C118.242 199.784 118.254 199.774 118.286 199.76L117.477 197.931ZM116.592 198.66C116.376 198.984 116.272 199.351 116.272 199.73H118.272C118.272 199.724 118.273 199.729 118.269 199.741C118.267 199.747 118.265 199.753 118.263 199.758C118.26 199.763 118.258 199.767 118.256 199.77L116.592 198.66ZM116.272 199.73C116.272 200.045 116.351 200.356 116.52 200.638L118.235 199.609C118.247 199.629 118.257 199.653 118.264 199.678C118.271 199.702 118.272 199.721 118.272 199.73H116.272ZM116.533 200.658C116.694 200.912 116.907 201.112 117.131 201.269L118.28 199.633C118.215 199.587 118.21 199.568 118.222 199.588L116.533 200.658ZM117.131 201.269C117.346 201.421 117.589 201.549 117.847 201.658L118.631 199.818C118.466 199.748 118.354 199.684 118.28 199.633L117.131 201.269ZM117.847 201.658C118.096 201.764 118.373 201.864 118.675 201.957L119.267 200.047C119.014 199.968 118.803 199.892 118.631 199.818L117.847 201.658ZM118.682 201.959C119.104 202.087 119.458 202.226 119.748 202.371L120.643 200.582C120.231 200.376 119.768 200.198 119.261 200.045L118.682 201.959ZM119.752 202.373C120.041 202.516 120.255 202.663 120.41 202.805L121.763 201.332C121.441 201.036 121.061 200.789 120.639 200.58L119.752 202.373ZM120.41 202.805C120.553 202.936 120.647 203.072 120.709 203.213L122.542 202.412C122.361 201.999 122.096 201.638 121.763 201.332L120.41 202.805ZM120.709 203.213C120.767 203.345 120.807 203.52 120.807 203.756H122.807C122.807 203.289 122.726 202.835 122.542 202.412L120.709 203.213ZM120.807 203.756C120.807 203.994 120.761 204.172 120.693 204.31L122.487 205.194C122.708 204.746 122.807 204.259 122.807 203.756H120.807ZM120.693 204.31C120.622 204.454 120.519 204.581 120.367 204.693L121.56 206.299C121.955 206.005 122.269 205.636 122.487 205.194L120.693 204.31ZM120.367 204.693C120.206 204.813 119.995 204.918 119.717 204.996L120.253 206.922C120.732 206.789 121.174 206.586 121.56 206.299L120.367 204.693ZM119.717 204.996C119.44 205.073 119.108 205.117 118.713 205.117V207.117C119.256 207.117 119.772 207.056 120.253 206.922L119.717 204.996ZM118.713 205.117C118.379 205.117 118.05 205.074 117.723 204.987L117.208 206.919C117.701 207.051 118.204 207.117 118.713 207.117V205.117ZM117.731 204.989C117.42 204.903 117.147 204.777 116.905 204.614L115.787 206.272C116.217 206.562 116.69 206.776 117.199 206.917L117.731 204.989ZM116.91 204.617C116.705 204.477 116.544 204.302 116.419 204.083L114.679 205.069C114.953 205.553 115.324 205.956 115.782 206.269L116.91 204.617ZM116.419 204.083C116.32 203.908 116.25 203.669 116.25 203.328H114.25C114.25 203.949 114.38 204.541 114.679 205.069L116.419 204.083ZM115.25 204.328H117.014V202.328H115.25V204.328ZM116.014 203.328C116.014 203.691 116.069 204.064 116.224 204.41L118.05 203.594C118.041 203.573 118.014 203.496 118.014 203.328H116.014ZM116.224 204.41C116.369 204.734 116.585 205.02 116.876 205.242L118.089 203.652C118.084 203.648 118.069 203.637 118.05 203.594L116.224 204.41ZM116.886 205.25C117.158 205.452 117.463 205.586 117.784 205.665L118.26 203.722C118.167 203.699 118.112 203.669 118.08 203.645L116.886 205.25ZM117.788 205.666C118.086 205.737 118.396 205.77 118.713 205.77V203.77C118.53 203.77 118.38 203.751 118.256 203.721L117.788 205.666ZM118.713 205.77C119.102 205.77 119.502 205.716 119.866 205.556L119.061 203.725C119.034 203.737 118.934 203.77 118.713 203.77V205.77ZM119.859 205.559C120.206 205.409 120.532 205.169 120.754 204.807L119.051 203.759C119.058 203.747 119.066 203.737 119.074 203.729C119.081 203.72 119.088 203.714 119.092 203.711C119.099 203.705 119.095 203.711 119.067 203.722L119.859 205.559ZM120.745 204.823C120.952 204.5 121.049 204.139 121.049 203.768H119.049C119.049 203.777 119.048 203.776 119.051 203.767C119.052 203.763 119.053 203.758 119.056 203.754C119.058 203.749 119.06 203.746 119.061 203.744L120.745 204.823ZM130.527 204.629H131.527V203.629H130.527V204.629ZM130.527 206V207H131.527V206H130.527ZM125.986 206H124.986V207H125.986V206ZM125.986 204.629V203.629H124.986V204.629H125.986ZM126.56 197.469H127.56V196.469H126.56V197.469ZM126.56 206V207H127.56V206H126.56ZM124.802 206H123.802V207H124.802V206ZM124.802 197.469V196.469H123.802V197.469H124.802ZM129.935 200.943H130.935V199.943H129.935V200.943ZM129.935 202.279V203.279H130.935V202.279H129.935ZM125.986 202.279H124.986V203.279H125.986V202.279ZM125.986 200.943V199.943H124.986V200.943H125.986ZM130.521 197.469H131.521V196.469H130.521V197.469ZM130.521 198.846V199.846H131.521V198.846H130.521ZM125.986 198.846H124.986V199.846H125.986V198.846ZM125.986 197.469V196.469H124.986V197.469H125.986ZM129.527 204.629V206H131.527V204.629H129.527ZM130.527 205H125.986V207H130.527V205ZM126.986 206V204.629H124.986V206H126.986ZM125.986 205.629H130.527V203.629H125.986V205.629ZM125.56 197.469V206H127.56V197.469H125.56ZM126.56 205H124.802V207H126.56V205ZM125.802 206V197.469H123.802V206H125.802ZM124.802 198.469H126.56V196.469H124.802V198.469ZM128.935 200.943V202.279H130.935V200.943H128.935ZM129.935 201.279H125.986V203.279H129.935V201.279ZM126.986 202.279V200.943H124.986V202.279H126.986ZM125.986 201.943H129.935V199.943H125.986V201.943ZM129.521 197.469V198.846H131.521V197.469H129.521ZM130.521 197.846H125.986V199.846H130.521V197.846ZM126.986 198.846V197.469H124.986V198.846H126.986ZM125.986 198.469H130.521V196.469H125.986V198.469Z" fill="#FF1647"/>
</svg>
